STARTFONT 2.3
FONT -FontForge-Hanalei-Book-R-Normal--36-360-72-72-P-182-ISO10646-1
SIZE 36 72 72  4
FONTBOUNDINGBOX 47 48 -2 -10
COMMENT "Generated by fontforge, http://fontforge.sourceforge.net"
COMMENT "Copyright (c) 2012 by Brian J. Bonislawsky DBA Astigmatic (AOETI) (astigma@astigmatic.com), with ReservedFont Name "Hanalei""
STARTPROPERTIES 40
FOUNDRY "FontForge"
FAMILY_NAME "Hanalei"
WEIGHT_NAME "Book"
SLANT "R"
SETWIDTH_NAME "Normal"
ADD_STYLE_NAME ""
PIXEL_SIZE 36
POINT_SIZE 360
RESOLUTION_X 72
RESOLUTION_Y 72
SPACING "P"
AVERAGE_WIDTH 182
CHARSET_REGISTRY "ISO10646"
CHARSET_ENCODING "1"
FONTNAME_REGISTRY ""
CHARSET_COLLECTIONS "ISO8859-2 ISO8859-9 ISO8859-4 ISO10646-1"
BITS_PER_PIXEL 4
FONT_NAME "Hanalei-Regular"
FACE_NAME "Hanalei"
COPYRIGHT "Copyright (c) 2012 by Brian J. Bonislawsky DBA Astigmatic (AOETI) (astigma@astigmatic.com), with ReservedFont Name "Hanalei""
FONT_VERSION "1.000"
FONT_ASCENT 29
FONT_DESCENT 7
UNDERLINE_POSITION -5
UNDERLINE_THICKNESS 1
X_HEIGHT 24
CAP_HEIGHT 24
RAW_ASCENT 799
RAW_DESCENT 200
NORM_SPACE 7
RELATIVE_WEIGHT 40
RELATIVE_SETWIDTH 50
SUPERSCRIPT_X 0
SUPERSCRIPT_Y 17
SUPERSCRIPT_SIZE 23
SUBSCRIPT_X 0
SUBSCRIPT_Y 5
SUBSCRIPT_SIZE 23
AVG_LOWERCASE_WIDTH 194
AVG_UPPERCASE_WIDTH 190
ENDPROPERTIES
CHARS 366
STARTCHAR space
ENCODING 32
SWIDTH 200 0
DWIDTH 7 0
BBX 1 1 0 0
BITMAP
00
ENDCHAR
STARTCHAR exclam
ENCODING 33
SWIDTH 257 0
DWIDTH 9 0
BBX 8 26 1 -1
BITMAP
05ACC810
993016C2
940000B2
570000C0
3A0003A0
2B000490
2B000580
3A000490
695532B0
9D8892D0
760003A0
58000670
4A000850
3B000A40
3A000A40
58000850
86000680
1BA8AB10
00353000
00341000
3C98BA10
67000C10
39000C00
39000C00
3C648B00
01785000
ENDCHAR
STARTCHAR quotedbl
ENCODING 34
SWIDTH 476 0
DWIDTH 17 0
BBX 16 16 1 11
BITMAP
0156400000465100
5D879D403D978D70
B30005A0670001D0
760007603A0003A0
580009301C000570
570009301B000580
85331760493312A0
CD9994908EA9A2D0
B2000660760002A0
8400084048000480
7500084039000480
85000760490003A0
B20003A0770000D0
E10003D0A50001D2
5D88AD302C979D70
0166510000575100
ENDCHAR
STARTCHAR numbersign
ENCODING 35
SWIDTH 1076 0
DWIDTH 39 0
BBX 37 27 1 -1
BITMAP
00023100000000023100000000000000000000
06DBBDA8300006DBBD91006D9667AA6446A300
1E10008CC0001E10008903C147775E79976C00
0D100086D0000D100086086000000D00000B20
0A3000B2B4000B3000C2094000000C05CDDE40
0A4000D159000A4000D0086000000B4B1006A0
0B3000E00D200B3000E009C1367643980002B0
0D1000D005B00D1000D108BEA7A99B7A000560
2D5651B312A62D5651B3057000A2000B000840
6D86759DB55A5D867595048000C0000B000920
3B0000B3001D3B0000C2047000C0000B000A10
0D0000D0000B4D0000D0056000B00039000B10
0E0000F40004BD0000D0084000D9CCA968CD30
0D1000EC0000BF1000D00B1000C32D57753F50
0E0000DB40002D2000E00AC548C10C00000B30
1C0000C69002558000C2098996100C00000940
4ECCA586D5CA52ECA585077000000A00000B20
3B1022A3BC2000D122A301D258A9758AA76B00
1D0000D03D00008600D0004C85347852359200
0D0001C00870002C01C0000032000000000000
0D0002B001D1000882B00007BACB9889C70000
1C0001C000950000B6C0001D000123321C2000
490000D00049000068D0004A00000000076000
950000B3002C0003D2B3003B00000000076000
980002C4000D769C32C4000C213443200C2000
18DBCD50000279EBCD500003CB98789BC70000
00021000000000021000000000000000000000
ENDCHAR
STARTCHAR dollar
ENCODING 36
SWIDTH 453 0
DWIDTH 16 0
BBX 16 34 0 -5
BITMAP
0000000342000000
000003CA9C900000
00000B3000950000
00000A2000840000
0000075000B00000
0000066000B18300
0000066000DD7D40
0000078ACD9202D0
00003BCA80000094
06BDA400C1000076
1D200000750013A5
2B000000353AC980
1C00000148C30000
0A5003AEA6100000
0AD67C48DA100000
0C299002C8B10000
0AB5000B304C5000
0039B23900029D80
00004C22000000C2
000004D9200000C2
00000007E50002D0
0000018FCC602CE2
01359D65B1CBD586
0BB95000A3130076
1C000000560269D3
2B000000128C7420
0C100028BDD00000
079019C621B00000
009CCB5001A00000
0003384001A00000
00000A2001B00000
00000C0000C00000
000008B549B00000
0000004885000000
ENDCHAR
STARTCHAR percent
ENCODING 37
SWIDTH 889 0
DWIDTH 32 0
BBX 32 25 0 0
BITMAP
007A9765582000000000000000000000
0392124443A00001AAB9100000000000
09A9B40000BB30038004B00000000000
0A001A0000B290047001B00000000000
0A002C99A96460055006600000000000
09003600A2055009200A100000000000
090046009005400B000B000000000000
09004500900540480019000000000000
09015600900550BB9438000000000000
092B9A99900460B00547000000000000
19830002800280B00092010000000000
29A10003800390B000B04BA998798000
05D501217BCA12900370B53011118500
001998889AB106500644B67A10004CA0
0000000000000A100836300830007490
0000000000001EA61924500A88BAA0A0
00000000000028036A24500A005400A0
00000000000047002A04500A005400A0
00000000000074007504500A005400A0
000000000000A100B105404A007300A0
000000000002A000B0073A6999C100A0
0000000000093000B009390000A00091
0000000000085000B009780000A402B1
0000000000019B9B60007C13444ABE20
0000000000000010000003975568A400
ENDCHAR
STARTCHAR ampersand
ENCODING 38
SWIDTH 627 0
DWIDTH 23 0
BBX 23 28 0 -1
BITMAP
000000140000000000000000
000002C9CA87861000000000
00000B9864457DCBAAC20000
00005E7597001B0132590000
0003D2002A002935301C0000
000780000C0055C8CA2C0000
0001C30008C8486009D80000
00003C0002C4AC0000D10000
00000A400087B20003C10000
000004A0001C60002C200000
000000D19C666001C2000000
000000CD5003A00A40000000
000004B90000C14A00000000
00003C7D400068C200000000
0000A402C0000C9000000000
0005A000960003C100001000
002C10006C000167004CD400
01C30005BC36CA3DADA31C00
1B40002C17E8100D30000750
C40000CA9CE1000850000480
D00007EA92590002C0000570
98001C01B00B2000987ABD30
BB959700A00590001D931000
C05861008217D00004B00000
A200000246D7C20009700000
49004ACA981086018B000000
098BA30000002ADB60000000
006400000000000000000000
ENDCHAR
STARTCHAR quotesingle
ENCODING 39
SWIDTH 246 0
DWIDTH 9 0
BBX 7 16 1 11
BITMAP
01564000
5D879D40
B30005A0
76000760
58000930
57000930
85331760
CD999490
B2000660
84000840
75000840
85000760
B20003A0
E10003D0
5D88AD30
01665100
ENDCHAR
STARTCHAR parenleft
ENCODING 40
SWIDTH 387 0
DWIDTH 14 0
BBX 16 30 -1 -2
BITMAP
0000000045200000
00000005C9CB1000
000000095007C000
0000001D10008600
000000780001C400
000002D1000A6000
00001C40005A0000
0000BD7100C20000
0002D37C33A00000
0008700168600000
001D10002D100000
00970000C4000000
04C0000780000000
3D20001D10000000
5800007700000000
1D2000C900000000
09E745CC20000000
05E99833B0000000
004C10007A000000
0007900007A00000
0000C304A2C20000
00004A7B205A0000
00000DB0000B4000
000006B00002D200
0000008900004C10
0000000B500004C1
00000001D10000C1
00000000780005A0
000000001D005D20
0000000008EDA200
ENDCHAR
STARTCHAR parenright
ENCODING 41
SWIDTH 386 0
DWIDTH 14 0
BBX 16 30 -1 -2
BITMAP
0000035300000000
0002CC9D30000000
001D500670000000
00770002C0000000
005B000095000000
000790002D100000
0000C30005C10000
00003B0017EA0000
00000C24C73D1000
0000076610087000
000002C20002D000
0000003B00008700
0000000950001C30
00000001C00002D2
00000000950000A4
00000000AA0003D0
00000003BD448E70
0000001C24999E40
000001B50001C300
00000B60000A5000
00003B3A304B0000
0000B402A6B30000
0006A0000BC00000
002D20001C500000
02D40000B4000000
2D40000780000000
2B00002C00000000
0B4000A500000000
03D401D000000000
002BDE6000000000
ENDCHAR
STARTCHAR asterisk
ENCODING 42
SWIDTH 517 0
DWIDTH 19 0
BBX 18 17 0 9
BITMAP
00000006CCA2000000
0000000D0068000000
0000000B1075000000
000000093092000000
02CA100840A1003B90
0C24C71861C139B387
390006C79A6AA4001C
2C410057000C00014B
058BB5C2000888CB94
000027600001951000
000004DD408CC10000
00001C12D5A0590000
0001C403B2C0096000
000C400C207600A600
000C1058001C005700
0004C6C2000977B100
000026500002750000
ENDCHAR
STARTCHAR plus
ENCODING 43
SWIDTH 458 0
DWIDTH 17 0
BBX 16 16 0 4
BITMAP
0000000465000000
000001CA79C20000
0000085000590000
0000066000670000
0021038000930000
05DDBBDCFCD89CB0
0D10121096464196
2B00000057000049
3B0000005600003A
1D00000062000068
09859BBA79CCB8D2
0088459364D01540
0000067000C00000
0000094000B10000
0000089103D20000
0000007CDB400000
ENDCHAR
STARTCHAR comma
ENCODING 44
SWIDTH 228 0
DWIDTH 8 0
BBX 9 10 -1 -5
BITMAP
0002BB6000
000863BA00
001C000B40
00A4000490
0880002C40
A80001C200
C0000B4000
9400590000
2D52C10000
029B600000
ENDCHAR
STARTCHAR hyphen
ENCODING 45
SWIDTH 465 0
DWIDTH 17 0
BBX 16 8 0 8
BITMAP
0033000131000010
05CADCCCDDBACDD2
0D10000067132068
1D0000004800002B
1D0000004800002B
0D20000032000068
06B8CDCCABDCDBD2
0056100032000230
ENDCHAR
STARTCHAR period
ENCODING 46
SWIDTH 202 0
DWIDTH 7 0
BBX 7 7 0 -1
BITMAP
00242000
1AB8AC30
1B000750
0C000A20
0C000A20
0B746C20
00586100
ENDCHAR
STARTCHAR slash
ENCODING 47
SWIDTH 453 0
DWIDTH 16 0
BBX 16 25 0 0
BITMAP
0000000002886100
0000000009858E50
000000000C2002D3
000000001D00006A
00000000780002D2
00000001D1000A60
0000000A60002C00
0000006F83008600
000000A66BA0C200
000000D10042D000
000002C000097000
00000860003C0000
00001D1000B40000
0000A60002C00000
0003FA3006700000
000774AA29400000
000B30034C200000
002C000088000000
00960003C0000000
04C0000A50000000
2D30001D00000000
5900005900000000
1D40008600000000
02CA66D400000000
0004884000000000
ENDCHAR
STARTCHAR zero
ENCODING 48
SWIDTH 646 0
DWIDTH 23 0
BBX 25 28 -1 -1
BITMAP
00000000001000000000000000
000000001ECD70000000000000
000000006802BA830000000000
00000000C2000C9C0000000000
000000069000088A4000000000
0000003C10006B12C100000000
000004D20003C1005B10000000
00001FC4000D800006C2000000
0000873A9068A600004C000000
0001D10063C10C304C38700000
0009600007A003B5C100C20000
006B00005A0000BE10003C1000
05C11202C100003D300005B100
2D28DD4A30000002C200005C30
2CB802DA000000002D100004A0
0BA0005C100000009BB0000880
0A300005C300003C8095004E20
09A200003C9002ED202C47D400
005D500001980C54C307E71000
0001C600980CB9001B0B400000
00001C488009B000016A000000
000002DD01A9000007A1000000
0000006D3D5000009600000000
00000004DC0000097000000000
000000001D20006A0000000000
0000000004D301D10000000000
00000000003CBC600000000000
00000000000022000000000000
ENDCHAR
STARTCHAR one
ENCODING 49
SWIDTH 400 0
DWIDTH 14 0
BBX 15 27 -1 -1
BITMAP
0000000140000000
0000001CBEBB8200
000001B8D5226D40
00003C32C0000A50
0019A100E0000D10
09C50000D0001D00
3A000002E0002C00
4900004CE0002C00
1D2004B4B0000D00
03D64C18EDCC4C20
0018A20780000D10
00000004A0001C00
00000002B0003A00
00000001C0003900
00000002C0003A00
00000003A0001C00
00000006B6630C10
00000007B7785C20
0000000490001D00
00000003A0003A00
00000003B0004900
0000000490004900
0000000680003A00
0000000A40001D00
0000000E10000D20
00000006D756C900
0000000027873000
ENDCHAR
STARTCHAR two
ENCODING 50
SWIDTH 502 0
DWIDTH 18 0
BBX 18 26 0 -1
BITMAP
0000004B7364000000
000001C37F8C400000
00001B3005A3C00000
0001B40000D0790000
002C400005D00A6000
07B200009A1000B500
7800000AAB10001B80
850000A606C1000096
4C000870006B000094
08C44B00000B7004E0
005AA200008BC69CC3
000000002BA0385086
00000006E5000019C2
0000003D9B1002C700
000002D304A01C4000
00002D400072B50000
0005D3000008900000
00BA200002C8000000
02B000003D40000100
03E00002EEA88ADD20
0BB9000C89245305A0
0D09B5871B000001D0
0D0048802A000000E0
0C30000025000003B0
04D9CDEC99CDDC9C40
003510014410014500
ENDCHAR
STARTCHAR three
ENCODING 51
SWIDTH 456 0
DWIDTH 16 0
BBX 16 26 0 -1
BITMAP
007D830000000000
05A159CCBAAB1000
0B30000012268000
0D1000000001F900
0C2000000001C880
07945553100680C1
0089879FDC8D10B4
000002EB01532C80
00000B68B102C400
00007A00490B4000
0019B01695590000
00C702C85DC20000
00C00C5005B10000
00A53B00004C3000
002D98000002B700
0002BD6000002AD6
0000028C4016CC7C
00000027EBD811DA
000028CF64000068
08BDC6078000002B
3B210001C0000049
67000000A016BCD4
5800000016D72000
1D1005ADC9100000
06C5C93000000000
004A300000000000
ENDCHAR
STARTCHAR four
ENCODING 52
SWIDTH 514 0
DWIDTH 19 0
BBX 19 26 -1 -1
BITMAP
0000000006748BB93000
000000005A6BE225C600
00000000B20087007700
00000004A0000C00B300
0000001C20007A00D100
000000B50005A000D000
00001B80002E2000D000
00006BC910AD0000C100
0000C106A2FEDDC59400
0007800019AA0000B300
002C0000781C0000D000
01C30004A03E1002E600
1B50001DDCAFBCCB6B50
58000076000B300002B0
1C0001C00008400000D0
07B206700009300002B0
006CEC20343348A97A60
00004CAC98AE8422D600
00000220000D0001C000
00000000000D0002B000
00000000001C0002B000
00000000004A0000D000
0000000000860000C100
0000000000B40000A400
00000000004D856BB000
00000000000168840000
ENDCHAR
STARTCHAR five
ENCODING 53
SWIDTH 500 0
DWIDTH 18 0
BBX 18 26 0 -1
BITMAP
00157512685459D700
03D869FB7E78740C20
066000860A30000670
048000A20840000580
039000C00820000850
029000C7657CCCBC00
039000C56851001100
048000C00000000000
066120A20000000000
095CBCDBCC74358100
0BC301321D59A87A00
02E000000C006BCE20
00D000000C089215C2
00B3011017084000A1
002DCCBC99BD6000C0
0001000034157000C0
0000000000057001B0
0000000000066000C0
0075201461074140C0
0888CCB9FCDEDCB7C0
1C000000B201001D93
4A0000009300000BD1
3B000000A200000C30
0D2023204023202C00
04DDB9BDCDA9BDD500
001000001000002000
ENDCHAR
STARTCHAR six
ENCODING 54
SWIDTH 520 0
DWIDTH 19 0
BBX 21 27 -1 -1
BITMAP
0000000121000000000000
000000ADCEA20000000000
000000D0005D2000000000
000000D000097000000000
000002C0001D1000000000
0000059000680000000000
00000A4000B30000000000
00002C0000D00000000000
0000AD9610D00000000000
0000C446B2D00000000000
0000C10005E90000000000
0000D0000B49A100000000
0001D0001D006C71000000
00059000590001BC000000
000A4000760000C9A00000
002E51008B1006907C4000
004C9BB489D34A1003AD00
00580013B42D4293000D10
00770004B003ED6D603D00
00A4000A516C8102E2C600
00D1000EAD7100009E9000
0690001D30000000690000
1D20003A00000014B50000
2D10003A000039D9500000
07C4117B0019C500000000
004ACCCA05C50000000000
00000008DB100000000000
ENDCHAR
STARTCHAR seven
ENCODING 55
SWIDTH 423 0
DWIDTH 15 0
BBX 17 26 -1 -1
BITMAP
00874358A53359B100
07869A85E7AA857800
0C000000B200001C00
1C0000009300000D00
0D000000A100000E70
0A6146642489868E20
01CD9779CE8347D800
000000002D0000D100
00000000CA5102C000
00000001E68C63A000
00000001C000368000
00000004A0001D2000
000000086000680000
0000000D1000C20000
000000790000D00000
000000CDC712B00000
000000D015B3B00000
000002C0000A600000
00000680003C000000
00000C200095000000
00004A0000D0000000
0001D20002B0000000
0003B0000490000000
0000B7000580000000
000019DABD40000000
000000133000000000
ENDCHAR
STARTCHAR eight
ENCODING 56
SWIDTH 527 0
DWIDTH 19 0
BBX 19 26 0 -1
BITMAP
00384212586211487000
03D69BCB9ACACB95C500
0860000002B000004A00
0940000001B015733A00
0B7000000140897CC800
1EE69CDEDBBDE100A600
07D8510B422490001C00
00880002C30B20009600
000C30002C7700059000
0004A02967C0001C1000
0000C6B201D000750000
00007E10007700C00000
00001D60000C34700000
00009BC40002DB300000
0000C02D10003D200000
00058006900486700000
000C1000D3BB21C00000
00670006CE5000860000
02B0001C1B60001C2000
1C20008624E30003C100
A40001DCBA7C00004C20
85000660000B60000960
2D400B100009D0001E70
03CDD9000005A302CE50
000996BDDDCBDDDFDC00
00007730001310003100
ENDCHAR
STARTCHAR nine
ENCODING 57
SWIDTH 500 0
DWIDTH 18 0
BBX 19 26 0 -1
BITMAP
000000000019D3000000
0000002569D63DA71000
000029DE741007A8D400
29ACB50B400002C02D20
A7310004900002C00A60
D0000000A0157A806A00
C100000027EC5411D100
8600049BD9D200068000
6E42BAC00AE9300B2000
87BC30690D24A90D0000
5C200007AC00034B0000
03C50000880000C30000
001A7000C30007800000
00009704B0000D100000
00000A5D300059000000
000001DEA40095000000
0000009539B1B2000000
000000D10034D0000000
000004A0000B50000000
00000B40005A00000000
00005A0000C200000000
0003D10003B000000000
00068000077000000000
0001D400094000000000
00002CA77D2000000000
00000036620000000000
ENDCHAR
STARTCHAR colon
ENCODING 58
SWIDTH 245 0
DWIDTH 9 0
BBX 7 20 1 -1
BITMAP
02786100
4C536C30
3A000B10
1B000C00
3A000D00
1AB9C800
00131000
00000000
00000000
00000000
00000000
00000000
00000000
00342000
3BA8BB10
48000A20
1B000C00
2B000C00
2C647C10
01686000
ENDCHAR
STARTCHAR semicolon
ENCODING 59
SWIDTH 270 0
DWIDTH 10 0
BBX 10 24 -1 -5
BITMAP
0000278610
0005B536C2
00039000C1
0001B000C0
0003A000D0
0001AB9C80
0000023100
0000000000
0000000000
0000000000
0000000000
0000000000
0000000000
0000000000
00006BA300
0001C25D40
00076002C0
002B0000A3
02C20007B1
2C30006A00
570003B000
1C000B2000
07A24A0000
005AA30000
ENDCHAR
STARTCHAR less
ENCODING 60
SWIDTH 445 0
DWIDTH 16 0
BBX 15 21 0 2
BITMAP
0000000000040000
00000000009BD300
000000001A904E20
00000038D6000690
000005ED100000D0
00006B17900004D0
027C8000A205C940
0D710000347B1000
1C00000028B00000
0D100018C6100000
09A001C800000000
0DBB4C7C94000000
2C05A6004F700000
2C0000003BA91000
0AC92000A407D940
0005C806900015D0
000007B2000000C0
0000005CC40005A0
000000002A902D30
00000000008BD400
0000000000041000
ENDCHAR
STARTCHAR equal
ENCODING 61
SWIDTH 484 0
DWIDTH 17 0
BBX 16 17 1 4
BITMAP
06A6445984224810
3C378877D9BB98A0
94000000C00000D0
B3000000C00000B2
A4000000B00000C1
5A014542246633B0
0ADC978BC967AD30
0010000000000000
0000000000000000
06A6445984224810
3C378877D9BB98A0
94000000C00000D0
B3000000C00000B2
A4000000B00000C1
5A014542246633B0
0ADC978BC967AD30
0010000000000000
ENDCHAR
STARTCHAR greater
ENCODING 62
SWIDTH 445 0
DWIDTH 16 0
BBX 15 21 1 2
BITMAP
0003100000000000
02CBA00000000000
2E508A1000000000
970006D840000000
D100000CE5000000
C50000881B700000
39C501A0007C7200
001A834000017D00
0000A92000000B20
000006C910000D00
00000008D2008A00
0000048C7C4AAD00
00006F5005A50B20
0008BA4000000B20
49D803B00028DA00
C510007706C50000
C1000002A8000000
960004BC60000000
2D308B3000000000
03CB900000000000
0005000000000000
ENDCHAR
STARTCHAR question
ENCODING 63
SWIDTH 455 0
DWIDTH 16 0
BBX 16 27 0 -1
BITMAP
0004200000000000
01CAD61000000000
097017CA86000000
0D0000026FB30000
1C0000002B3ADBA1
0D00000058000286
0AA86200B2000058
01446AB420000076
0000002AED9301D6
0000005B924B9B99
00002C8200006688
0000950000019B50
000AC600005C5000
000C3C1008A10000
000B16C6A7000000
000A3028B0000000
000B2001A0000000
000D0001C0000000
0007C88C70000000
0000255200000000
0000242000000000
002BA8AB20000000
003A000940000000
000C000B10000000
000C000B10000000
001C747C10000000
0001686100000000
ENDCHAR
STARTCHAR at
ENCODING 64
SWIDTH 812 0
DWIDTH 29 0
BBX 28 29 1 -2
BITMAP
0001300000000000000000000000
001BACA9ACC978ADC75469300000
0074003324845534958879D00000
0BE2000003700001A004C88B1000
1C83000005400003500C10091000
0D3C7BCCB769BBA669AE20091000
0B146C0026731136632580074000
0B101A00796679644740A0029000
0C002B057133295552B0A585A100
1B210D08200006400083E8319100
5EAA4C07566106100095A2008200
49000C04B56BA9A999AA38005600
0C002A045002916401280A001B00
0C0039054007403700460A256840
0C003907200A002800550BB64740
0B002B0A00280019005506500550
3C651C195BB61249004601A00380
4B565C75C03799CBAABDC7C000B1
2A001B6B70000084000483C00057
0C00480870000092000480B001A4
0C005802B03430700006304CBE70
2A0049005B878AABBBA778742C10
67001E853000001000144237B400
A3000D25BC510000000000000000
4B559A00836AA800000000000000
03C95000A0000B00000000000000
003BAA7140000B00000000000000
0000004A99615700000000000000
00000000004BA000000000000000
ENDCHAR
STARTCHAR A
ENCODING 65
SWIDTH 507 0
DWIDTH 18 0
BBX 20 26 -1 0
BITMAP
00000001200000000000
000001BDCE9100000000
000003B0007C10000000
000003A0000B95100000
00000590003C5B500000
00000860009508500000
00000C2000D107600000
00003B0001D005900000
0000BC9512C001D00000
0000E447B2B000B30000
0000D00006C0245A0000
0000E0000CEC961D0000
0001C0002C96000D0000
00059000683B000D0000
00094000860D100A7C70
001E4100956CA8BD92B4
004DACB48E9E6530003A
00590014B40A3000000C
00680003C0066000000C
00950008500560036789
00D1000C10013ADA8E71
04B0000EACDDCA000B30
0B30001D41003A0005A0
1D00001C00002B0000D3
07B3004D00001D224AB1
005BDDA2000018CC9400
ENDCHAR
STARTCHAR B
ENCODING 66
SWIDTH 533 0
DWIDTH 19 0
BBX 18 29 1 -2
BITMAP
00018B200000000000
001C85D60000000000
09F90018DA62000000
4CA3000004AE600000
1DC1000000689C5100
0DA5000000A3028CD8
0C4CDC7103B000000D
0D0003ED821000000D
1D0001D17DB830003B
5B7751D1006ECB20B5
8C7573B35BA204DCE3
680000EDE2000013A3
3B0002D37900018D90
1D0003900A205C5000
1D0003A00438E30000
2C0002B003A84C6000
490000D2BB40018D91
7EDCB4BEA1000000A5
580011D28E81000094
3A0002B147ED2002E5
2B0004CCF724D32C9A
3B015BB36A003DD53A
4CDC94000B200259C7
8F50000006407D9410
CC300000003C810000
CC6000049DB3000000
19D202BB5000000000
004D8D400000000000
000162000000000000
ENDCHAR
STARTCHAR C
ENCODING 67
SWIDTH 515 0
DWIDTH 19 0
BBX 19 27 0 -1
BITMAP
00018710000000000000
000A87CDCCDB62013200
001C0000115B7BDDBC00
00490000002A00000A40
00490000003900000760
001C0000005400000840
000BCCCCD95677510C10
001D3000D587568CD700
006B4300D00000002000
00BB89B2D00000000000
00940002C00000000000
00850007700000000000
0094000B300000000000
00B2000D100000000000
01D0000D000000000000
05D7520C200000000000
06A57A6A400000000000
0580001D000000000000
06700067000000037100
095000A438A88ACB8B00
1D1000BDB6E554100B40
780000B3009400000670
88000095006500000670
0AC769D2006400121A40
00E875013335ADCBCA00
008A27CDBAA930000000
0008C720000000000000
ENDCHAR
STARTCHAR D
ENCODING 68
SWIDTH 520 0
DWIDTH 19 0
BBX 19 28 1 -1
BITMAP
00000010000000000000
00136DCC000000000000
09DEC108700000000000
4C1D1000B50000000000
1D5900001C5000000000
0D6A000001C800000000
0C28C3000009C1000000
0D002D500006E8000000
1D0002F5002C1C300000
5B6640DD33B202D30000
8C7673B5C200003D5000
680000D04D600001AB00
3B0002B001A800000D00
1D0003A0000A80005A00
1D0003A00003F403E700
2C0002B0002D5DBC4D00
4A0000D005D403302E10
7EDCA4B3AC200006C400
680011C9AB80007B1000
3A0002FC007706B00000
2B0004D200082D100000
3A0005900002C5000000
490004A0004D40000000
760002C005C200000000
C20000D13D1000000000
C60003D2D30000000000
1ADCDF68800000000000
001215A9100000000000
ENDCHAR
STARTCHAR E
ENCODING 69
SWIDTH 490 0
DWIDTH 18 0
BBX 17 27 1 -1
BITMAP
001341000000000000
09DAAD99CD977AD900
4C0000A82D46530B30
1D0000B30B20000670
0D0000D00A20000580
0C1001D00800000850
0D0002E986ADDCAD10
1D0001D45740013200
5B6640D00000000000
8C7673B20000000000
680000E31248100000
3B0002D9BB98A00000
1D0003A00000C10000
1D0003A00000A30000
2C0002B00000C10000
4A0000D99744B00000
7EDCA4B6469C200000
680011D10000000000
3A0002B01000000000
2B0004EDED75469100
3A0005905958977900
490004A03A00000C00
760002C04900000D00
C20000D14300001C00
C60003DC99BB958700
1ADCDC31441148A000
001210000000000000
ENDCHAR
STARTCHAR F
ENCODING 70
SWIDTH 475 0
DWIDTH 17 0
BBX 17 27 1 -1
BITMAP
001341000000000000
09DAAD99CD977AD900
4C0000A82D46530B30
1D0000B30B20000670
0D0000D00A20000580
0C1001D00800000850
0D0002E986ADDCAD10
1D0001D45740013200
5B6640D00000000000
8C7673B20000000000
680000E31248100000
3B0002D9BB98A00000
1D0003A00000C10000
1D0003A00000A30000
2C0002B00000C10000
4A0000D99744B00000
7EDCA4B6469C200000
680011D10000000000
3A0002C00000000000
2B0004A00000000000
3A0005900000000000
490004A00000000000
760002C00000000000
C20000D10000000000
C60003D20000000000
1ADCDC300000000000
001210000000000000
ENDCHAR
STARTCHAR G
ENCODING 71
SWIDTH 557 0
DWIDTH 20 0
BBX 20 27 0 -1
BITMAP
00018710000000000000
000A87CDCCDB62013200
001C0000115B7BDDBC00
00490000002A00000A40
00490000003900000760
001C0000005400000840
000BCCCCD95677510C10
001D3000D587568CD700
006B4300D00000002000
00BB89B2D00000000000
00940002C00000000000
008500077000039CC920
0094000B30005C4005D0
00B2000D1000590001B0
01D0000D00000D000390
05D7520C20000C000390
06A57A6A40000C0001C0
0580001D00000C4662C2
0670006700003E9653B2
095000A438A88C0000D0
1D1000BDB6E56D0000D0
780000B300940B2000C1
8800009500650B200095
0AC769D200640D00004A
00E875013335AE3002B6
008A27CDBAA934BCDC50
0008C720000000000000
ENDCHAR
STARTCHAR H
ENCODING 72
SWIDTH 611 0
DWIDTH 22 0
BBX 21 27 1 -1
BITMAP
0014410000000157410000
09DAAD8000006D879D6000
4C0000A60001E10001D200
1D0000B30000C20000D000
0D0000D00000860003A000
0C1001D000006700059000
0D0002C000006800068000
1D0001D000007700068000
5B7751D10000A64304A000
8C7573B20000DB89B2C000
680000D00000B300059000
3B0002C000008500086000
1D0003B00000760009C600
1D0003B0000067249D5B50
2C0002D000009FC95002C0
490000E677AC76800000D0
7EDCB4BCC52002A00000D0
580011D1C0000290024790
3A0002C0B0000049DDB830
2B0004A0915ADDC5075000
3A0005C68D94A300086000
490004D76100C200077000
860002C00000D000059000
C20000D10003A00002B000
B60004D10003D4002A8000
19DCDB3000003AEED60000
0001000000000000000000
ENDCHAR
STARTCHAR I
ENCODING 73
SWIDTH 266 0
DWIDTH 10 0
BBX 8 27 1 -1
BITMAP
00144100
09DAAD80
4C0000A6
1D0000B3
0D0000D0
0C1001D0
0D0002C0
1D0001D0
5B7751D1
8C7573B2
680000D0
3B0002B0
1D0003A0
1D0003A0
2C0002B0
490000D0
7EDCB4B3
580011D1
3A0002B0
2B0004A0
3A000590
490004A0
860002C0
C20000D1
B60004D1
19DCDB30
00010000
ENDCHAR
STARTCHAR J
ENCODING 74
SWIDTH 484 0
DWIDTH 17 0
BBX 18 28 -1 -2
BITMAP
000000000000133100
000000000019DABD80
00000000004B0000B5
00000000001C0000B2
00000000000D0000D0
00000000000D0001C0
00000000000D0002B0
00000000001C0001C0
00000000005B6640D0
00000000009C7673C1
0000000000680000D0
00000000003A0003B0
00002100002C0004A0
007DCA00001C000490
09A10B30002B0003B0
4B0003C100590001D0
8500006B107EDCA3C2
4D500005D3680021D0
01C600033C590003B0
001C21B809AA000490
0004BB5001EA000680
0000BB00003D400590
00002C600002B603B0
000001C500004800D0
0000001D1000B504D1
000000068009FCDB30
00000001D9C9121000
000000001410000000
ENDCHAR
STARTCHAR K
ENCODING 75
SWIDTH 541 0
DWIDTH 20 0
BBX 19 27 1 -1
BITMAP
00133100000000000000
09DAAD80000002740000
4C0000A600000A9AD300
1D0000B300003C003D20
0D0000D00001C30005A0
0C1001D0001C600001E0
0D0002C003C600003D60
1D0001D03FA10003D300
5B6640D1A67D201D2000
8C7673B6B003C0A50000
680000ED300023C00000
3B0002F500004C300000
1D0003A00005F2000000
1D0003A0003DB4000000
2C0002F501C349000000
4A0000DB46900C300000
7EDCA4B34D2003C00000
680011D5DC0385A40000
3A0002ED2DAB41670000
2B0004E20C80002C0000
3A00059004B0000C3000
490004A000A40004C000
760002C0003A00008900
C20000D1000D00006900
C60003D2000C2004D200
1ADCDC300007CACB2000
00121000000013200000
ENDCHAR
STARTCHAR L
ENCODING 76
SWIDTH 467 0
DWIDTH 17 0
BBX 17 27 1 -1
BITMAP
001441000000000000
09DAAD800000000000
4C0000A60000000000
1D0000B30000000000
0D0000D00000000000
0C1001D00000000000
0D0002C00000000000
1D0001D00000000000
5B7751D10000000000
8C7573B20000000000
680000D00000000000
3B0002B00000000000
1D0003A00000000000
1D0003A00000000000
2C0002B00000000000
490000D00000000000
7EDCB4B30000000000
580011D00000000000
3A0002B00000000000
2B0004DCA642348500
3A0005A7B79AA85D10
490004A2B000000860
860002C2A000000580
C20000D47000000760
B60004E64788741D20
19DCDA69964469D600
000100000000000000
ENDCHAR
STARTCHAR M
ENCODING 77
SWIDTH 733 0
DWIDTH 26 0
BBX 28 27 -1 -1
BITMAP
0000001210000000002310000000
00001ADBDC3000001DCBDB200000
00001D0003D400002B0005D10000
00000D00009910003A0000B60000
00001D0001DC5000580003DE1000
00003B00059760009500095D0000
0000770008558000D1000D0D0000
0000C2000A32B00780002B0C1000
0005E8620B20D10EDB71390A3000
0007A4584B30781D126849077000
000670001D122D3C0000A502C000
000670005DC84A7A0001FCB4C100
000750009D1008C700079000D100
000A3000CD3006F2000AC000C100
000D0000D69002D0000DD100B200
005B2000D1D000C6200DA4009500
008CCDA2C1B3005DAB2D85005900
00850023D186793C214C76342D10
00940007806E510950B47E963A30
00B2000C202C000672C059000940
00D0000D000B3002C6701D000850
04A0002C00077000BC400D000580
0B40002B0003A0004F300C2001D0
1D00002C0001C0000C500B2000B4
09A2004D0000E225CA100C1001A9
007CDDA200008BB9400008DBCD70
0000000000000000000000021000
ENDCHAR
STARTCHAR N
ENCODING 78
SWIDTH 598 0
DWIDTH 22 0
BBX 20 27 1 -1
BITMAP
00133100000000133000
08DBBDA8200008DBBD70
4C0000AC90003C0000B6
1D0000B5C0001D0000B3
0D0000D0D1000D0000E0
0C1001D086000D1001D0
0D0002C02D100E0002C0
1D0001D008901D0001D0
5B5640D122C35B5640D1
8C8684BDA4878C8684B2
680000D2004B680000D0
3B0002B0000D4B0002C0
1C0003E20007AC0003A0
1D0003EA0000DD0003A0
2C0002BD20003D1002C0
4A0000D76003586000D0
7DCC94B5B6C945EC93B3
680122D1EA1001C022D1
3A0002C06B0000B302C0
2B0004A00B50004A03A0
3A00059003C0000B5490
490004A000C20001D790
770002B00077000097B0
C20000D100490005D0D0
C50003D2002D66AB23D1
1ADBCC3000037AEBCC30
00121000000000021000
ENDCHAR
STARTCHAR O
ENCODING 79
SWIDTH 612 0
DWIDTH 22 0
BBX 22 27 0 -1
BITMAP
0001871000000000000000
000A87CDCCDB6215762000
001C0000115B7BDDBFD700
00490000002A00000A7B00
004900000039000007B800
001C00000054000008B600
000BCCCCD95677510C7700
001D3000D58756DCD74900
006B4300D00003A0201D00
00BB89B2D00007DDDC4C20
00940002C00007A0000D00
00850007700002B0000E00
0094000B300000D1000E00
00B2000D100000B2000D10
01D0000D000000A4000A40
05D7520C200000A3000590
06A57A6A400000CABBA3D0
0580001D000000A72013A0
0670006800000067164580
095000A414A988AED8D880
1D1000BDC98C5542005EA0
780000B3000D0000001FD0
88000095000B1000000DB4
0AC769D2000A0000214AB5
00E8750023336ACEFFFE70
008A17BDBAAB8201465100
0008C72000000000000000
ENDCHAR
STARTCHAR P
ENCODING 80
SWIDTH 513 0
DWIDTH 18 0
BBX 18 28 1 -1
BITMAP
000024000000000000
0008CB910000000000
04BC006D9410000000
3DD400005ADB100000
2CC10000006BC60000
0EB20000009529DA83
0D7C962001C000036C
0E0359FA244000000D
0D0002C5D95200002C
4A1100D0058CC40087
8ECBC4C2003C5AA7F2
770000D017C2005995
4A0002B6E7000004C4
2C0003DBB90001AA20
1C0004D109602C5000
2C0003A00091C30000
4A0001C0002C400000
6B8751C106B4000000
7A5574C2A700000000
490001DC4000000000
3A0004F30000000000
3A0005800000000000
490005900000000000
770003A00000000000
B30001D00000000000
E20000D20000000000
5D878D700000000000
015762000000000000
ENDCHAR
STARTCHAR Q
ENCODING 81
SWIDTH 612 0
DWIDTH 22 0
BBX 22 32 0 -6
BITMAP
0001871000000000000000
000A87CDCCDB6215762000
001C0000115B7BDDBFD700
00490000002A00000A7B00
004900000039000007B800
001C00000054000008B600
000BCCCCD95677510C7700
001D3000D58756DCD74900
006B4300D00003A0201D00
00BB89B2D00007DDDC4C20
00940002C00007A0000D00
00850007700002B0000E00
0094000B300000D1000E00
00B2000D100000B2000D10
01D0000D000000A4000A40
05D7520C200000A3000590
06A57A6A400000CABBA3D0
0580001D000000A72013A0
0670006800000067164580
095000A414A988AED8D880
1D1000BDC98C5542005DA0
780000B3000D0000001FD0
88000095000B1000000DB4
0AC769D2000A0000214AB5
00E8750023336ACEFFFE70
008A17BDEBAB7D11465100
0008C720A3000B20000000
00000000B2000860000000
00000000D10003B0000000
00000000E2001990000000
000000004CCCD700000000
0000000000110000000000
ENDCHAR
STARTCHAR R
ENCODING 82
SWIDTH 532 0
DWIDTH 19 0
BBX 19 28 1 -1
BITMAP
00000100000000000000
0004CD60000000000000
017D21AB400000000000
3DD500039CC700000000
3BC10000006DB2000000
0DC1000000854CB64100
0D89520000C10037AB00
0D168BD6057000000D00
0E0002C9C52000001D00
3B0001D039CD81006900
7DCCA2C1001A9D64E200
891011D104C5019CB400
590001C3BA200001B500
2B0003CCD779606C6000
1C0004E47D53CA900000
2C0003A5B00098000000
3B0002BA60003B000000
6A4310D1C30009600000
7C99B5C2AC0000B40000
580001DB7942893A0000
3A0003F604BB200D1000
3A0005A001F200078000
49000580005B0000B400
680004A0000A50001C30
A40001C00002C0000940
E10000D10000B2005B00
8B434AB000007969A100
049BA500000005630000
ENDCHAR
STARTCHAR S
ENCODING 83
SWIDTH 442 0
DWIDTH 16 0
BBX 16 27 0 -1
BITMAP
0000000110027C30
005646AEECDB63D1
05B78731D0000085
0A9CDD20A2000068
0DA1076092000087
6A0002B04169A9D2
790000BDCC732330
0A70003C10000000
01C2000890000000
00590000A5000000
000D15B83A000000
0008BA100C200000
0004E10006900000
0000790000B40000
00000A60002C4000
000001D10013C000
000000862AB3C100
0000003DC3007700
0000000A60001D10
00000166E30005B1
1BBACCAC8C00006B
9523100D0B30002D
D000000C167000A7
D100000B03B34B90
A40013337CCCDA00
3D5ACA9A61000000
0294000000000000
ENDCHAR
STARTCHAR T
ENCODING 84
SWIDTH 453 0
DWIDTH 16 0
BBX 18 27 -1 -1
BITMAP
005400003410000310
0899CCCCAFCCBCDAC0
1C0000000B30110095
4A0000000940000058
3A0000000930000067
1D10123203134420B3
05CCCACDCDCD99BDA0
00210076000A300000
000000940009400000
000000D55417600000
000002FA7785800000
000000E00008500000
000000B2000A300000
000000A4000C100000
000000A4000B200000
000000B2000A300000
000000E44306700000
000000F989A5900000
000000D10009500000
000000B2000C200000
000000B2000D000000
000000D1000C100000
000001D0000B200000
000005900007600000
000005B1001A700000
0000006DCCD7000000
000000002200000000
ENDCHAR
STARTCHAR U
ENCODING 85
SWIDTH 583 0
DWIDTH 21 0
BBX 21 27 0 -1
BITMAP
0000121000000013200000
002BDBDC300019DBBD6000
00690003D300980001E000
003A0000D100670001C000
002B0003A0003B0003A000
003A000670001C00049000
0058000860000D0003B000
0094000850001C0001D000
00E6751870003B4651C200
03E7677680006EA774B300
00D0000A40004A0000D100
00D0000D10001D0000E000
00D0001D00000C1000E000
01D0002B00000B3000C100
04A0002B00000A4000A400
08B6410D00000B30006800
09967A4D00000DBCCA3C00
0750003A00000B51014A00
0760008600000879C26700
094000A338889DC55B7600
0C1000BDBAB541000B9700
3B0000A400D0000008A900
8700007600A20000086D00
2D8436D4009201466D1B30
01DBB8200125CEC7753D20
006904ADDCB922BCBDB300
0008EA4000000000210000
ENDCHAR
STARTCHAR V
ENCODING 86
SWIDTH 506 0
DWIDTH 18 0
BBX 19 26 0 -1
BITMAP
00244100000000000000
1ADA9D6000007CDC6000
B70006800000D203A900
D20005800000D0000D20
590004A00001C0003B00
0D0001D0000490009400
0B3000B300094000D000
0850005A002D1001C000
0764782D008CBC72B000
07EA530C10840044A000
05B0000B3094000A4000
00C3000850B2001C0000
0068000590D000580000
001D0001D69000750000
000D10008E9400840000
000A30232E69B6840000
0009CDB72C0001C20000
0006A0002B0004900000
0000D10067000A300000
00009500A3000D000000
00005902C0001B000000
00002C0A40003A000000
00001D0B300039000000
00001D03D74498000000
00001D647FCA60000000
0000028A940000000000
ENDCHAR
STARTCHAR W
ENCODING 87
SWIDTH 735 0
DWIDTH 26 0
BBX 28 26 -1 -1
BITMAP
0002441000000000000003775100
01BD9AD40000000000006C769D40
0C60007600003ADC8100670002D1
1D1000770003D511A400670002C0
07800059000A5000750076000860
01D0002B000CB0006600A3000C10
00C2000D101CB2002A01D0001D00
00A40007807877000B2680002B00
00954782D0DCC91444ADEDB52B00
009EA530E0D03DD861BD00153B00
00790000D1C02E1000CD00008500
000D1000A4C0095000CD0000D100
0008600079B002B0008D0002B000
0003B0002F7000C0004A00049000
0000D0000D7300B368C500068000
0000C1023D8AC6AC74E962068000
0000BBDA7C0001D800E57AA59000
000089001B0004AD00C0000A5000
00001D003900094A32B0001D0000
00000A3076000C18659000590000
00000670C1000C06696000850000
000004A490000C076E1000940000
000002B860000C02D90000940000
000003B1D8326D00880000850000
000002D65DFC81000BA547D30000
00000038A8300000004897200000
ENDCHAR
STARTCHAR X
ENCODING 88
SWIDTH 483 0
DWIDTH 17 0
BBX 18 25 0 0
BITMAP
000132000000210000
01ADAD50000ACDC300
0C700490000D004D30
690001D000580003C0
5C10008600C20003D1
07A0001D1780001D30
00B40006CC0000A500
002C0004F50004A000
000B329E9AC20B3000
0006BD6D003B2C0000
0002F3680000970000
00007AD20006A00000
00000C70002E200000
00004B0000B8C10000
0001EA2003B2780000
000697D608EA2C0000
000C301A4C200B3000
004A00007A0004A000
01D20005CB0000B400
0A60001D1960002C20
A800009601D00003C1
D00001D000850000A4
96000580003A0003D0
1C721A40000D215D30
017BC8000005CC8100
ENDCHAR
STARTCHAR Y
ENCODING 89
SWIDTH 484 0
DWIDTH 17 0
BBX 20 25 -1 0
BITMAP
00045200000004885000
03CB9C0000000D55AC20
1C300B3000001C0005C1
850004B00000680000B5
B50000970000C30005B0
1C60001C6005A0001D10
01C40001B62D20007800
002D10272CCD7100C200
000875B407E47C61C000
0001EC0003B000559000
000099000870001D2000
000009700C2000870000
000000B45A0001D00000
0000002DD20007700000
00000009E8100B200000
0000000C36B70D000000
0000001D00054C000000
000000780001C3000000
000001D2000880000000
00000880001D10000000
00005C00006800000000
0000A40000A300000000
00004C1000D100000000
000006D867D000000000
00000016872000000000
ENDCHAR
STARTCHAR Z
ENCODING 90
SWIDTH 458 0
DWIDTH 16 0
BBX 18 25 -1 0
BITMAP
0006D978ADA77AD600
002C13541D46631C10
006700000930000970
0067000009300008E3
004A00000600000C89
000C68BCB9BCCCBDD2
000295102D50003E20
00000000CB10009600
00000003C8D602D000
000000087008677000
0000000D10001C3000
000000790000B70000
000002D10007A00000
00001D40001D100000
00008E810077000000
0000D26D40D1000000
0004B00192C0000000
000C30001C50000000
00890000AD6336A400
07B00006AD79963C00
4C10000D2930000930
3C0000590830000850
0A8000950810000A30
008C87EA758BBA8B00
0004C9535751026200
ENDCHAR
STARTCHAR bracketleft
ENCODING 91
SWIDTH 420 0
DWIDTH 15 0
BBX 15 30 0 -2
BITMAP
000000000005A300
0000000259B84D10
0003CBB962000770
004DDA60000003B0
07B4238C10000490
0770000D0268AD40
04A0003EBA642100
03B0005900000000
03B0006700000000
04A0006700000000
0860004900000000
0CDDCB2C00000000
0C30013B00000000
0950006800000000
0770007600000000
0680008500000000
0670007600000000
0860006800000000
0A86522B00000000
0B97793C00000000
0940005800000000
0750008600000000
0760009400000000
0950009400000000
0A30008C9889BA00
0D00005923331860
3C00003C000003A0
0AB657D5000002A0
003BC74343200870
0001BCA8889BCB00
ENDCHAR
STARTCHAR backslash
ENCODING 92
SWIDTH 453 0
DWIDTH 16 0
BBX 16 25 0 0
BITMAP
0005884000000000
02DA55D000000000
1D5000C100000000
5B00008500000000
0B50003B00000000
02D1000B50000000
00870002D1000000
002C0017DB000000
000C16C74D000000
000955000B300000
0003D10007700000
0000780002D00000
00001D1000A50000
00000860002D1000
000003B0018E8000
000000D08B63C000
000000C45000D100
0000004C00008600
0000000870002D10
00000001D1000880
00000000950000C6
000000004A00005A
000000001C0001C4
000000000D768D50
0000000002785100
ENDCHAR
STARTCHAR bracketright
ENCODING 93
SWIDTH 420 0
DWIDTH 15 0
BBX 15 30 0 -2
BITMAP
02A6000000000000
1D57B95200000000
68000269BBC40000
950000005ACE5000
7600000B9324A800
2DA9620C10005800
01236ABD40007500
0000000860009400
0000000580009500
0000000670007600
0000000860004A00
0000000A3ACDDE00
0000000951002E00
0000000680003A00
0000000490005800
00000003A0006700
00000004A0005800
0000000680004900
0000000942467C00
0000000A49878D00
0000000770003B00
00000004A0004900
00000002B0005900
00000002B0003A00
0AB9889CA0001C00
5A13332770000C10
8500000A40000950
95000003D8559B00
5900234337BC4000
0ACB98889CC10000
ENDCHAR
STARTCHAR asciicircum
ENCODING 94
SWIDTH 353 0
DWIDTH 13 0
BBX 12 10 0 14
BITMAP
000026430000
0000C6AF8000
0005900AE100
000C101C9700
008600A50B20
05A007E103B0
1C101C680069
0C00940C101B
07A6C00684B4
004720017830
ENDCHAR
STARTCHAR underscore
ENCODING 95
SWIDTH 499 0
DWIDTH 18 0
BBX 16 8 1 -10
BITMAP
0051000130000100
0BACCCCBFDBACC90
4A000000C12310C2
7700000093000086
77000000A2000076
4B000000600000B3
0B89CCCCACCCCAA0
0174000131000410
ENDCHAR
STARTCHAR grave
ENCODING 96
SWIDTH 183 0
DWIDTH 7 0
BBX 7 8 0 27
BITMAP
05CCA000
7910C000
C200B100
4B007600
08601C00
01C00950
00760960
001CC700
ENDCHAR
STARTCHAR a
ENCODING 97
SWIDTH 507 0
DWIDTH 18 0
BBX 20 26 -1 0
BITMAP
00000001200000000000
000001BDCE9100000000
000003B0007C10000000
000003A0000B95100000
00000590003C5B500000
00000860009508500000
00000C2000D107600000
00003B0001D005900000
0000BC9512C001D00000
0000E447B2B000B30000
0000D00006C0245A0000
0000E0000CEC961D0000
0001C0002C96000D0000
00059000683B000D0000
00094000860D100A7C70
001E4100956CA8BD92B4
004DACB48E9E6530003A
00590014B40A3000000C
00680003C0066000000C
00950008500560036789
00D1000C10013ADA8E71
04B0000EACDDCA000B30
0B30001D41003A0005A0
1D00001C00002B0000D3
07B3004D00001D224AB1
005BDDA2000018CC9400
ENDCHAR
STARTCHAR b
ENCODING 98
SWIDTH 533 0
DWIDTH 19 0
BBX 18 29 1 -2
BITMAP
00018B200000000000
001C85D60000000000
09F90018DA62000000
4CA3000004AE600000
1DC1000000689C5100
0DA5000000A3028CD8
0C4CDC7103B000000D
0D0003ED821000000D
1D0001D17DB830003B
5B7751D1006ECB20B5
8C7573B35BA204DCE3
680000EDE2000013A3
3B0002D37900018D90
1D0003900A205C5000
1D0003A00438E30000
2C0002B003A84C6000
490000D2BB40018D91
7EDCB4BEA1000000A5
580011D28E81000094
3A0002B147ED2002E5
2B0004CCF724D32C9A
3B015BB36A003DD53A
4CDC94000B200259C7
8F50000006407D9410
CC300000003C810000
CC6000049DB3000000
19D202BB5000000000
004D8D400000000000
000162000000000000
ENDCHAR
STARTCHAR c
ENCODING 99
SWIDTH 515 0
DWIDTH 19 0
BBX 19 27 0 -1
BITMAP
00018710000000000000
000A87CDCCDB62013200
001C0000115B7BDDBC00
00490000002A00000A40
00490000003900000760
001C0000005400000840
000BCCCCD95677510C10
001D3000D587568CD700
006B4300D00000002000
00BB89B2D00000000000
00940002C00000000000
00850007700000000000
0094000B300000000000
00B2000D100000000000
01D0000D000000000000
05D7520C200000000000
06A57A6A400000000000
0580001D000000000000
06700067000000037100
095000A438A88ACB8B00
1D1000BDB6E554100B40
780000B3009400000670
88000095006500000670
0AC769D2006400121A40
00E875013335ADCBCA00
008A27CDBAA930000000
0008C720000000000000
ENDCHAR
STARTCHAR d
ENCODING 100
SWIDTH 520 0
DWIDTH 19 0
BBX 19 28 1 -1
BITMAP
00000010000000000000
00136DCC000000000000
09DEC108700000000000
4C1D1000B50000000000
1D5900001C5000000000
0D6A000001C800000000
0C28C3000009C1000000
0D002D500006E8000000
1D0002F5002C1C300000
5B6640DD33B202D30000
8C7673B5C200003D5000
680000D04D600001AB00
3B0002B001A800000D00
1D0003A0000A80005A00
1D0003A00003F403E700
2C0002B0002D5DBC4D00
4A0000D005D403302E10
7EDCA4B3AC200006C400
680011C9AB80007B1000
3A0002FC007706B00000
2B0004D200082D100000
3A0005900002C5000000
490004A0004D40000000
760002C005C200000000
C20000D13D1000000000
C60003D2D30000000000
1ADCDF68800000000000
001215A9100000000000
ENDCHAR
STARTCHAR e
ENCODING 101
SWIDTH 490 0
DWIDTH 18 0
BBX 17 27 1 -1
BITMAP
001341000000000000
09DAAD99CD977AD900
4C0000A82D46530B30
1D0000B30B20000670
0D0000D00A20000580
0C1001D00800000850
0D0002E986ADDCAD10
1D0001D45740013200
5B6640D00000000000
8C7673B20000000000
680000E31248100000
3B0002D9BB98A00000
1D0003A00000C10000
1D0003A00000A30000
2C0002B00000C10000
4A0000D99744B00000
7EDCA4B6469C200000
680011D10000000000
3A0002B01000000000
2B0004EDED75469100
3A0005905958977900
490004A03A00000C00
760002C04900000D00
C20000D14300001C00
C60003DC99BB958700
1ADCDC31441148A000
001210000000000000
ENDCHAR
STARTCHAR f
ENCODING 102
SWIDTH 475 0
DWIDTH 17 0
BBX 17 27 1 -1
BITMAP
001341000000000000
09DAAD99CD977AD900
4C0000A82D46530B30
1D0000B30B20000670
0D0000D00A20000580
0C1001D00800000850
0D0002E986ADDCAD10
1D0001D45740013200
5B6640D00000000000
8C7673B20000000000
680000E31248100000
3B0002D9BB98A00000
1D0003A00000C10000
1D0003A00000A30000
2C0002B00000C10000
4A0000D99744B00000
7EDCA4B6469C200000
680011D10000000000
3A0002C00000000000
2B0004A00000000000
3A0005900000000000
490004A00000000000
760002C00000000000
C20000D10000000000
C60003D20000000000
1ADCDC300000000000
001210000000000000
ENDCHAR
STARTCHAR g
ENCODING 103
SWIDTH 557 0
DWIDTH 20 0
BBX 20 27 0 -1
BITMAP
00018710000000000000
000A87CDCCDB62013200
001C0000115B7BDDBC00
00490000002A00000A40
00490000003900000760
001C0000005400000840
000BCCCCD95677510C10
001D3000D587568CD700
006B4300D00000002000
00BB89B2D00000000000
00940002C00000000000
008500077000039CC920
0094000B30005C4005D0
00B2000D1000590001B0
01D0000D00000D000390
05D7520C20000C000390
06A57A6A40000C0001C0
0580001D00000C4662C2
0670006700003E9653B2
095000A438A88C0000D0
1D1000BDB6E56D0000D0
780000B300940B2000C1
8800009500650B200095
0AC769D200640D00004A
00E875013335AE3002B6
008A27CDBAA934BCDC50
0008C720000000000000
ENDCHAR
STARTCHAR h
ENCODING 104
SWIDTH 611 0
DWIDTH 22 0
BBX 21 27 1 -1
BITMAP
0014410000000157410000
09DAAD8000006D879D6000
4C0000A60001E10001D200
1D0000B30000C20000D000
0D0000D00000860003A000
0C1001D000006700059000
0D0002C000006800068000
1D0001D000007700068000
5B7751D10000A64304A000
8C7573B20000DB89B2C000
680000D00000B300059000
3B0002C000008500086000
1D0003B00000760009C600
1D0003B0000067249D5B50
2C0002D000009FC95002C0
490000E677AC76800000D0
7EDCB4BCC52002A00000D0
580011D1C0000290024790
3A0002C0B0000049DDB830
2B0004A0915ADDC5075000
3A0005C68D94A300086000
490004D76100C200077000
860002C00000D000059000
C20000D10003A00002B000
B60004D10003D4002A8000
19DCDB3000003AEED60000
0001000000000000000000
ENDCHAR
STARTCHAR i
ENCODING 105
SWIDTH 266 0
DWIDTH 10 0
BBX 8 27 1 -1
BITMAP
00144100
09DAAD80
4C0000A6
1D0000B3
0D0000D0
0C1001D0
0D0002C0
1D0001D0
5B7751D1
8C7573B2
680000D0
3B0002B0
1D0003A0
1D0003A0
2C0002B0
490000D0
7EDCB4B3
580011D1
3A0002B0
2B0004A0
3A000590
490004A0
860002C0
C20000D1
B60004D1
19DCDB30
00010000
ENDCHAR
STARTCHAR j
ENCODING 106
SWIDTH 482 0
DWIDTH 17 0
BBX 18 28 -1 -2
BITMAP
000000000000133100
000000000019DABD80
00000000004B0000B5
00000000001C0000B2
00000000000D0000D0
00000000000D0001C0
00000000000D0002B0
00000000001C0001C0
00000000005B6640D0
00000000009C7673C1
0000000000680000D0
00000000003A0003B0
00002100002C0004A0
007DCA00001C000490
09A10B30002B0003B0
4B0003C100590001D0
8500006B107EDCA3C2
4D500005D3680021D0
01C600033C590003B0
001C21B809AA000490
0004BB5001EA000680
0000BB00003D400590
00002C600002B603B0
000001C500004800D0
0000001D1000B504D1
000000068009FCDB30
00000001D9C9121000
000000001410000000
ENDCHAR
STARTCHAR k
ENCODING 107
SWIDTH 541 0
DWIDTH 20 0
BBX 19 27 1 -1
BITMAP
00133100000000000000
09DAAD80000002740000
4C0000A600000A9AD300
1D0000B300003C003D20
0D0000D00001C30005A0
0C1001D0001C600001E0
0D0002C003C600003D60
1D0001D03FA10003D300
5B6640D1A67D201D2000
8C7673B6B003C0A50000
680000ED300023C00000
3B0002F500004C300000
1D0003A00005F2000000
1D0003A0003DB4000000
2C0002F501C349000000
4A0000DB46900C300000
7EDCA4B34D2003C00000
680011D5DC0385A40000
3A0002ED2DAB41670000
2B0004E20C80002C0000
3A00059004B0000C3000
490004A000A40004C000
760002C0003A00008900
C20000D1000D00006900
C60003D2000C2004D200
1ADCDC300007CACB2000
00121000000013200000
ENDCHAR
STARTCHAR l
ENCODING 108
SWIDTH 467 0
DWIDTH 17 0
BBX 17 27 1 -1
BITMAP
001441000000000000
09DAAD800000000000
4C0000A60000000000
1D0000B30000000000
0D0000D00000000000
0C1001D00000000000
0D0002C00000000000
1D0001D00000000000
5B7751D10000000000
8C7573B20000000000
680000D00000000000
3B0002B00000000000
1D0003A00000000000
1D0003A00000000000
2C0002B00000000000
490000D00000000000
7EDCB4B30000000000
580011D00000000000
3A0002B00000000000
2B0004DCA642348500
3A0005A7B79AA85D10
490004A2B000000860
860002C2A000000580
C20000D47000000760
B60004E64788741D20
19DCDA69964469D600
000100000000000000
ENDCHAR
STARTCHAR m
ENCODING 109
SWIDTH 733 0
DWIDTH 26 0
BBX 28 27 -1 -1
BITMAP
0000001210000000002310000000
00001ADBDC3000001DCBDB200000
00001D0003D400002B0005D10000
00000D00009910003A0000B60000
00001D0001DC5000580003DE1000
00003B00059760009500095D0000
0000770008558000D1000D0D0000
0000C2000A32B00780002B0C1000
0005E8620B20D10EDB71390A3000
0007A4584B30781D126849077000
000670001D122D3C0000A502C000
000670005DC84A7A0001FCB4C100
000750009D1008C700079000D100
000A3000CD3006F2000AC000C100
000D0000D69002D0000DD100B200
005B2000D1D000C6200DA4009500
008CCDA2C1B3005DAB2D85005900
00850023D186793C214C76342D10
00940007806E510950B47E963A30
00B2000C202C000672C059000940
00D0000D000B3002C6701D000850
04A0002C00077000BC400D000580
0B40002B0003A0004F300C2001D0
1D00002C0001C0000C500B2000B4
09A2004D0000E225CA100C1001A9
007CDDA200008BB9400008DBCD70
0000000000000000000000021000
ENDCHAR
STARTCHAR n
ENCODING 110
SWIDTH 598 0
DWIDTH 22 0
BBX 20 27 1 -1
BITMAP
00133100000000133000
08DBBDA8200008DBBD70
4C0000AC90003C0000B6
1D0000B5C0001D0000B3
0D0000D0D1000D0000E0
0C1001D086000D1001D0
0D0002C02D100E0002C0
1D0001D008901D0001D0
5B5640D122C35B5640D1
8C8684BDA4878C8684B2
680000D2004B680000D0
3B0002B0000D4B0002C0
1C0003E20007AC0003A0
1D0003EA0000DD0003A0
2C0002BD20003D1002C0
4A0000D76003586000D0
7DCC94B5B6C945EC93B3
680122D1EA1001C022D1
3A0002C06B0000B302C0
2B0004A00B50004A03A0
3A00059003C0000B5490
490004A000C20001D790
770002B00077000097B0
C20000D100490005D0D0
C50003D2002D66AB23D1
1ADBCC3000037AEBCC30
00121000000000021000
ENDCHAR
STARTCHAR o
ENCODING 111
SWIDTH 612 0
DWIDTH 22 0
BBX 22 27 0 -1
BITMAP
0001871000000000000000
000A87CDCCDB6215762000
001C0000115B7BDDBFD700
00490000002A00000A7B00
004900000039000007B800
001C00000054000008B600
000BCCCCD95677510C7700
001D3000D58756DCD74900
006B4300D00003A0201D00
00BB89B2D00007DDDC4C20
00940002C00007A0000D00
00850007700002B0000E00
0094000B300000D1000E00
00B2000D100000B2000D10
01D0000D000000A4000A40
05D7520C200000A3000590
06A57A6A400000CABBA3D0
0580001D000000A72013A0
0670006800000067164580
095000A414A988AED8D880
1D1000BDC98C5542005EA0
780000B3000D0000001FD0
88000095000B1000000DB4
0AC769D2000A0000214AB5
00E8750023336ACEFFFE70
008A17BDBAAB8201465100
0008C72000000000000000
ENDCHAR
STARTCHAR p
ENCODING 112
SWIDTH 513 0
DWIDTH 18 0
BBX 18 28 1 -1
BITMAP
000024000000000000
0008CB910000000000
04BC006D9410000000
3DD400005ADB100000
2CC10000006BC60000
0EB20000009529DA83
0D7C962001C000036C
0E0359FA244000000D
0D0002C5D95200002C
4A1100D0058CC40087
8ECBC4C2003C5AA7F2
770000D017C2005995
4A0002B6E7000004C4
2C0003DBB90001AA20
1C0004D109602C5000
2C0003A00091C30000
4A0001C0002C400000
6B8751C106B4000000
7A5574C2A700000000
490001DC4000000000
3A0004F30000000000
3A0005800000000000
490005900000000000
770003A00000000000
B30001D00000000000
E20000D20000000000
5D878D700000000000
015762000000000000
ENDCHAR
STARTCHAR q
ENCODING 113
SWIDTH 612 0
DWIDTH 22 0
BBX 22 32 0 -6
BITMAP
0001871000000000000000
000A87CDCCDB6215762000
001C0000115B7BDDBFD700
00490000002A00000A7B00
004900000039000007B800
001C00000054000008B600
000BCCCCD95677510C7700
001D3000D58756DCD74900
006B4300D00003A0201D00
00BB89B2D00007DDDC4C20
00940002C00007A0000D00
00850007700002B0000E00
0094000B300000D1000E00
00B2000D100000B2000D10
01D0000D000000A4000A40
05D7520C200000A3000590
06A57A6A400000CABBA3D0
0580001D000000A72013A0
0670006800000067164580
095000A414A988AED8D880
1D1000BDC98C5542005DA0
780000B3000D0000001FD0
88000095000B1000000DB4
0AC769D2000A0000214AB5
00E8750023336ACEFFFE70
008A17BDEBAB7D11465100
0008C720A3000B20000000
00000000B2000860000000
00000000D10003B0000000
00000000E2001990000000
000000004CCCD700000000
0000000000110000000000
ENDCHAR
STARTCHAR r
ENCODING 114
SWIDTH 532 0
DWIDTH 19 0
BBX 19 28 1 -1
BITMAP
00000100000000000000
0004CD60000000000000
017D21AB400000000000
3DD500039CC700000000
3BC10000006DB2000000
0DC1000000854CB64100
0D89520000C10037AB00
0D168BD6057000000D00
0E0002C9C52000001D00
3B0001D039CD81006900
7DCCA2C1001A9D64E200
891011D104C5019CB400
590001C3BA200001B500
2B0003CCD779606C6000
1C0004E47D53CA900000
2C0003A5B00098000000
3B0002BA60003B000000
6A4310D1C30009600000
7C99B5C2AC0000B40000
580001DB7942893A0000
3A0003F604BB200D1000
3A0005A001F200078000
49000580005B0000B400
680004A0000A50001C30
A40001C00002C0000940
E10000D10000B2005B00
8B434AB000007969A100
049BA500000005630000
ENDCHAR
STARTCHAR s
ENCODING 115
SWIDTH 442 0
DWIDTH 16 0
BBX 16 27 0 -1
BITMAP
0000000110027C30
005646AEECDB63D1
05B78731D0000085
0A9CDD20A2000068
0DA1076092000087
6A0002B04169A9D2
790000BDCC732330
0A70003C10000000
01C2000890000000
00590000A5000000
000D15B83A000000
0008BA100C200000
0004E10006900000
0000790000B40000
00000A60002C4000
000001D10013C000
000000862AB3C100
0000003DC3007700
0000000A60001D10
00000166E30005B1
1BBACCAC8C00006B
9523100D0B30002D
D000000C167000A7
D100000B03B34B90
A40013337CCCDA00
3D5ACA9A61000000
0294000000000000
ENDCHAR
STARTCHAR t
ENCODING 116
SWIDTH 453 0
DWIDTH 16 0
BBX 18 27 -1 -1
BITMAP
005400003410000310
0899CCCCAFCCBCDAC0
1C0000000B30110095
4A0000000940000058
3A0000000930000067
1D10123203134420B3
05CCCACDCDCD99BDA0
00210076000A300000
000000940009400000
000000D55417600000
000002FA7785800000
000000E00008500000
000000B2000A300000
000000A4000C100000
000000A4000B200000
000000B2000A300000
000000E44306700000
000000F989A5900000
000000D10009500000
000000B2000C200000
000000B2000D000000
000000D1000C100000
000001D0000B200000
000005900007600000
000005B1001A700000
0000006DCCD7000000
000000002200000000
ENDCHAR
STARTCHAR u
ENCODING 117
SWIDTH 583 0
DWIDTH 21 0
BBX 21 27 0 -1
BITMAP
0000121000000013200000
002BDBDC300019DBBD6000
00690003D300980001E000
003A0000D100670001C000
002B0003A0003B0003A000
003A000670001C00049000
0058000860000D0003B000
0094000850001C0001D000
00E6751870003B4651C200
03E7677680006EA774B300
00D0000A40004A0000D100
00D0000D10001D0000E000
00D0001D00000C1000E000
01D0002B00000B3000C100
04A0002B00000A4000A400
08B6410D00000B30006800
09967A4D00000DBCCA3C00
0750003A00000B51014A00
0760008600000879C26700
094000A338889DC55B7600
0C1000BDBAB541000B9700
3B0000A400D0000008A900
8700007600A20000086D00
2D8436D4009201466D1B30
01DBB8200125CEC7753D20
006904ADDCB922BCBDB300
0008EA4000000000210000
ENDCHAR
STARTCHAR v
ENCODING 118
SWIDTH 506 0
DWIDTH 18 0
BBX 19 26 0 -1
BITMAP
00244100000000000000
1ADA9D6000007CDC6000
B70006800000D203A900
D20005800000D0000D20
590004A00001C0003B00
0D0001D0000490009400
0B3000B300094000D000
0850005A002D1001C000
0764782D008CBC72B000
07EA530C10840044A000
05B0000B3094000A4000
00C3000850B2001C0000
0068000590D000580000
001D0001D69000750000
000D10008E9400840000
000A30232E69B6840000
0009CDB72C0001C20000
0006A0002B0004900000
0000D10067000A300000
00009500A3000D000000
00005902C0001B000000
00002C0A40003A000000
00001D0B300039000000
00001D03D74498000000
00001D647FCA60000000
0000028A940000000000
ENDCHAR
STARTCHAR w
ENCODING 119
SWIDTH 735 0
DWIDTH 26 0
BBX 28 26 -1 -1
BITMAP
0002441000000000000003775100
01BD9AD40000000000006C769D40
0C60007600003ADC8100670002D1
1D1000770003D511A400670002C0
07800059000A5000750076000860
01D0002B000CB0006600A3000C10
00C2000D101CB2002A01D0001D00
00A40007807877000B2680002B00
00954782D0DCC91444ADEDB52B00
009EA530E0D03DD861BD00153B00
00790000D1C02E1000CD00008500
000D1000A4C0095000CD0000D100
0008600079B002B0008D0002B000
0003B0002F7000C0004A00049000
0000D0000D7300B368C500068000
0000C1023D8AC6AC74E962068000
0000BBDA7C0001D800E57AA59000
000089001B0004AD00C0000A5000
00001D003900094A32B0001D0000
00000A3076000C18659000590000
00000670C1000C06696000850000
000004A490000C076E1000940000
000002B860000C02D90000940000
000003B1D8326D00880000850000
000002D65DFC81000BA547D30000
00000038A8300000004897200000
ENDCHAR
STARTCHAR x
ENCODING 120
SWIDTH 483 0
DWIDTH 17 0
BBX 18 25 0 0
BITMAP
000132000000210000
01ADAD50000ACDC300
0C700490000D004D30
690001D000580003C0
5C10008600C20003D1
07A0001D1780001D30
00B40006CC0000A500
002C0004F50004A000
000B329E9AC20B3000
0006BD6D003B2C0000
0002F3680000970000
00007AD20006A00000
00000C70002E200000
00004B0000B8C10000
0001EA2003B2780000
000697D608EA2C0000
000C301A4C200B3000
004A00007A0004A000
01D20005CB0000B400
0A60001D1960002C20
A800009601D00003C1
D00001D000850000A4
96000580003A0003D0
1C721A40000D215D30
017BC8000005CC8100
ENDCHAR
STARTCHAR y
ENCODING 121
SWIDTH 484 0
DWIDTH 17 0
BBX 20 25 -1 0
BITMAP
00045200000004885000
03CB9C0000000D55AC20
1C300B3000001C0005C1
850004B00000680000B5
B50000970000C30005B0
1C60001C6005A0001D10
01C40001B62D20007800
002D10272CCD7100C200
000875B407E47C61C000
0001EC0003B000559000
000099000870001D2000
000009700C2000870000
000000B45A0001D00000
0000002DD20007700000
00000009E8100B200000
0000000C36B70D000000
0000001D00054C000000
000000780001C3000000
000001D2000880000000
00000880001D10000000
00005C00006800000000
0000A40000A300000000
00004C1000D100000000
000006D867D000000000
00000016872000000000
ENDCHAR
STARTCHAR z
ENCODING 122
SWIDTH 458 0
DWIDTH 16 0
BBX 18 25 -1 0
BITMAP
0006D978ADA77AD600
002C13541D46631C10
006700000930000970
0067000009300008E3
004A00000600000C89
000C68BCB9BCCCBDD2
000295102D50003E20
00000000CB10009600
00000003C8D602D000
000000087008677000
0000000D10001C3000
000000790000B70000
000002D10007A00000
00001D40001D100000
00008E810077000000
0000D26D40D1000000
0004B00192C0000000
000C30001C50000000
00890000AD6336A400
07B00006AD79963C00
4C10000D2930000930
3C0000590830000850
0A8000950810000A30
008C87EA758BBA8B00
0004C9535751026200
ENDCHAR
STARTCHAR braceleft
ENCODING 123
SWIDTH 473 0
DWIDTH 17 0
BBX 18 31 -1 -3
BITMAP
000000000000004810
0000000243147CA7B0
000002BC9AE84100A5
00001C5000C0000058
00005B0000C0000067
00000B4000850468D3
000002B0002DC85430
000000C10237700000
000000A7CA62B00000
0000009C2000D00000
0000003C0000A40000
0033000950003B0000
05CACBBBDCD4097000
0D100001102C03A000
1D000000000C4C3000
1D000000000DE70000
0B403455414A2D1000
02CC9879DBC20C3000
0000000A4000770000
0000005B0000C00000
000000EDC704900000
000001C01686600000
00000580000C300000
00000B300078000000
00005A0000DC975540
0001D10002B02567C2
0000D2000580000076
00005D501870000077
000003AFFF853000C3
0000000354569CA990
000000000000002500
ENDCHAR
STARTCHAR bar
ENCODING 124
SWIDTH 263 0
DWIDTH 9 0
BBX 8 30 1 -2
BITMAP
00366200
1AD99D90
4B0000B5
1C0000B3
0E0000D0
0D0001D0
0D0002B0
0E0002B0
2C0001C0
5B6750D0
9D9794C2
770000D0
4A0002B0
2B0003A0
1C000490
1C0003A0
2B0002B0
590000D0
7DBA82C2
793464C1
590001C0
3A0004A0
3A000590
4A000580
58000490
860003B0
C30000D0
E10000D2
6D756C90
039A9400
ENDCHAR
STARTCHAR braceright
ENCODING 125
SWIDTH 473 0
DWIDTH 17 0
BBX 18 31 0 -3
BITMAP
007400000000000000
0B79C7413420000000
5A00158EA9CC200000
8600000C0005D10000
7600000C0000A50000
2D8640590003C00000
02458CD2000B300000
00000773200D000000
000009369C7B000000
00000C0002CA000000
00003B0000B3000000
0000B4000490003300
0006A04DCDCBBCAB50
000A40C201110001D0
0003C4D000000000B2
00007EE000000000C1
0001D2A514554303B0
0002D12CBC9789CC20
0000780004B0000000
00000C1000A6000000
000008507CDE000000
00000677610B100000
000002C00007500000
000000860002B00000
045579CC0000950000
2D76520A20001D1000
6800000750002D0000
680000069104C50000
3C000358FFFA300000
099AC9654530000000
005200000000000000
ENDCHAR
STARTCHAR asciitilde
ENCODING 126
SWIDTH 456 0
DWIDTH 16 0
BBX 16 10 0 9
BITMAP
0000000000001000
00009CCC5009BC80
0002B01CD01C0095
000A4008D4670077
004A004A1BC103B0
02C103E107800C20
1C300CA500A37700
1B00671C001CC100
0A51C109406D8000
019C5003CCDC2000
ENDCHAR
STARTCHAR nonbreakingspace
ENCODING 160
SWIDTH 200 0
DWIDTH 7 0
BBX 1 1 0 0
BITMAP
00
ENDCHAR
STARTCHAR exclamdown
ENCODING 161
SWIDTH 259 0
DWIDTH 9 0
BBX 7 26 1 -1
BITMAP
018CC810
09700690
07500580
08400490
0B4003C0
02ACCA20
00000000
017A9400
1C734A80
3B0001C0
0D000590
0D000680
0D000680
1C000590
390003A0
670002D0
859CDDD0
580004A0
49000680
3A000670
58000570
67000490
940001B0
D10000D0
7C757BA0
02686200
ENDCHAR
STARTCHAR cent
ENCODING 162
SWIDTH 480 0
DWIDTH 17 0
BBX 17 34 0 -5
BITMAP
000000003420000000
0000003CA9C9000000
000000B30009500000
000000A20009400000
00000075000C000000
00000066000C182000
00000066001DC8C300
00000066ACC9303C00
000013BE6C00000A30
000DB9610760000850
03B9000001A0013A40
0E7800000062ACA800
0C3B0000268C400000
0949501AC741000000
0851B9D50000000000
0A3005C10000000000
0EBCC6850000000000
1D4001950000000000
0B0000C20000000000
0A1000C10000000000
0B2000BA4100000000
0C000098ADD5000000
2C00005900CAA41000
1C7214C500C049CE20
019FD9300480000760
000ACDB60810000860
0000007DC541000B20
00000066379E815B00
00000075002A6DC100
00000084002A020000
000000A2001B000000
000000D0000C000000
0000009B559B000000
000000048850000000
ENDCHAR
STARTCHAR sterling
ENCODING 163
SWIDTH 594 0
DWIDTH 21 0
BBX 21 26 0 -1
BITMAP
000000004A400000000000
00000006C4BB5000000000
0000005D10039DA7530000
000008CA000000368D1000
0000089900000000094000
000005AD00000000095000
000004A7DDC951000C2000
0000059000888C92890000
000008600076005C900000
00200CAA964A0000000000
06CCCF63254D8BD3000000
1D101B300079424B000000
4A0008500094000D100000
4900076000A3000D100000
1D0008500084002D000000
0998BE30005ECAC6000000
00752DDCCA3B0240000000
00000C2001580000000000
00000940009BCA6569D800
0000095000A69968741C30
00000A3000A34900000670
00000D1000953900000580
00003B0000593600000760
00003C20008D569BCB8D10
000005DCCD857731025300
0000000120000000000000
ENDCHAR
STARTCHAR currency
ENCODING 164
SWIDTH 640 0
DWIDTH 23 0
BBX 22 21 1 3
BITMAP
0068500000000000285000
1C94C2001A830000B69C10
96003B00785C83087006A0
C0000692D13DABA80000C0
D100009D31D301D10002D1
5C4007D30770004B105C30
01B53DD809400004C8A100
000AD30794C50002CF5000
000A600072D9900964C800
03C600001A70693C000B50
0C300001C7000AD20002B0
0B30000BD2009C100006C0
05B100683C15CC80009A10
007C52D103CD2079078000
008BFD600019A0072E7000
2B803B700001B001B69910
D30000A90009602D4005C1
C00003B8618B01D70000C1
B4001C10BF80087B4003C0
3D40A40008C54D01C25D30
02AC80000038A4004C9200
ENDCHAR
STARTCHAR yen
ENCODING 165
SWIDTH 575 0
DWIDTH 21 0
BBX 20 25 0 0
BITMAP
00000000000000131000
002BEE30000004DACC30
03D405900000077004D3
0C2000C200000A30003D
3B00004B00001D000089
1A9000089000870003C0
009800009A03D1000B40
000B40002A6D60002C00
0002C05B62ECAD707700
00009AA000950175A400
00003F2000C20002D100
000007B002C0000C4000
000088B93AC5105D6000
0009869A98BCBCC9B600
001D0000004900002C00
003B0000003A00000D00
002C0000004800000D00
000C3014432235415A00
0003DCDD9BDCF88CD200
000021B40004B0000000
000007A0000A40000000
00002D10001E00000000
00000D30003B00000000
000004D6107800000000
00000018CDB200000000
ENDCHAR
STARTCHAR brokenbar
ENCODING 166
SWIDTH 258 0
DWIDTH 9 0
BBX 8 33 1 -4
BITMAP
00132000
2BC9BC40
870003D0
490003A0
2B000670
1B000660
49000490
8EDCC2C0
860003A0
56000580
48000570
48000490
760001C0
A30000D1
5C646C80
02898400
00000000
00010000
19DCDB20
880004D0
580003A0
2B000670
1B000660
39000580
7CDDB2C0
981012B0
66000580
48000570
48000480
660002B0
A30000D1
7B4239A0
04ABA600
ENDCHAR
STARTCHAR section
ENCODING 167
SWIDTH 474 0
DWIDTH 17 0
BBX 16 27 1 -1
BITMAP
000000020015A400
08978ADFCCB84C10
7846530850000760
B200000480000490
C164000380000670
AC9A920125898C20
6B0049CEE8334400
8500002C6C830000
840000850049BC10
4D9610A0008BAB70
013CC72001B02A90
008407CC876000C1
02A000844D1003A0
0B2001A058000B10
75000682C1005700
68000B8ED500B100
9CA45B4B18C9B300
7648729300047C20
2BCB609000000670
00017B5200000670
1AA89DCEC7100C30
8723310866C5AC70
C100000480184490
C100000470000670
9500001137ABAD20
3D49CBBBB5212200
03A5000000000000
ENDCHAR
STARTCHAR dieresis
ENCODING 168
SWIDTH 351 0
DWIDTH 13 0
BBX 13 6 0 27
BITMAP
04786200576200
AA546D0C756B60
94003A0C000850
4800570C000C00
2A00670C200C00
1BCBB204BCC600
ENDCHAR
STARTCHAR copyright
ENCODING 169
SWIDTH 719 0
DWIDTH 26 0
BBX 24 28 1 -1
BITMAP
000310000000000000000000
007BCB99BDA878BE96457800
01B001342B34541B47888C50
2DA000000A000009203D99D4
68B000000A0000081085002C
3AA79CCB958BCB858AC80048
1B17870047411147424A0075
1B0075000000000000390084
390066005CBA9ACA00480084
67315800B222221B10863166
AD9A3A08F200000A10CC9A49
94005806EDCDCCCD00A20066
570075049166000100750093
48009403A0660000006700A2
48008402A0760000006700A3
570076039066000000750084
89643A04806A779800A86358
99574A07604B543C00B86759
76006606CAC7000C00840084
570084001EBBCBAC007500A2
6700920003200022007500B1
7500830020000030009300A2
B2006DBCDDCBCCDDA8DCD275
D0003A007301008424414848
9955C5008200007400001DC4
0CA842106001005100002C20
05CCCABCABCBCCACCCC9B400
002100003100003100045000
ENDCHAR
STARTCHAR ordfeminine
ENCODING 170
SWIDTH 455 0
DWIDTH 16 0
BBX 18 26 -1 -1
BITMAP
000003AB98BB810000
00000A64E8217A0000
00000C1B40002B0000
00000D0B30000D0000
00003B03B0000C1000
00008600B300086000
0000D100680003C000
000790003C0000C400
000EC9406E024AE600
002C13977F28846700
00580000C970004900
00946A78C5D0001D00
00D5903455A5000B30
069A4000003A000590
1D195000000D0000D2
4A03C579AAAE200069
0C6026B500093002C5
01ADABC10006DBCD50
000133000000143000
0001CBCBA99BCD2000
00076001232104A000
000B2000000000D000
000A3000000000D000
000690023443159000
0000ACC98778BC1000
000001000000000000
ENDCHAR
STARTCHAR guillemotleft
ENCODING 171
SWIDTH 689 0
DWIDTH 25 0
BBX 24 17 0 4
BITMAP
00000002B60000000004B500
0000002C39C10000003C3AA0
000004C20088000006B100A6
00019A10001C0002A900003A
017C5000003C028B3000005A
0D5000002BA32D5000003B92
2B000006C30049000007B200
1D00008A10002C0000A80000
0DB109D300001E900AD20000
2B6DB81B50003A8DB62C4000
0D203001A9102C212001B800
03B9100005C504B8100006C4
0005C400003A0006C3000048
00001B50007800002C400096
000000A504E2000001B406D1
0000000BBB200000001CBA20
000000012000000000011000
ENDCHAR
STARTCHAR logicalnot
ENCODING 172
SWIDTH 591 0
DWIDTH 21 0
BBX 21 14 0 1
BITMAP
02DC98779CC854469A0000
0C31466653E58997487000
1C00000000C10018DED200
2B00000000B100B6104C10
1D00000000A000C0000A20
0A62689986469AE1000C00
01BC8644589743A3001B00
0000000000000083003900
0000000000000084003800
0000000000000093003800
00000000000000B1003900
00000000000000C0001B00
00000000000000C7227B00
0000000000000017BB7100
ENDCHAR
STARTCHAR uni00AD
ENCODING 173
SWIDTH 465 0
DWIDTH 17 0
BBX 16 8 0 8
BITMAP
0033000131000010
05CADCCCDDBACDD2
0D10000067132068
1D0000004800002B
1D0000004800002B
0D20000032000068
06B8CDCCABDCDBD2
0056100032000230
ENDCHAR
STARTCHAR registered
ENCODING 174
SWIDTH 719 0
DWIDTH 26 0
BBX 24 28 1 -1
BITMAP
000310000000000000000000
007BCB99BDA878BE96457800
01B001342B34541B47888C50
2DA000000A000009203D99D4
68B000000A0000081085002C
3AA79CCB958BCB858AC80048
1B17870047411147424A0075
1B0075000000000000390084
390066000073000000480084
673158028CABB63100863166
AD9A3A068A20269C70CC9A49
940058048C63000660A20066
57007503938DC93B20750093
48009403A05704A8006700A2
48008402A0570000006700A3
57007602A057000000750084
89643A039048000000A86358
99574A039049000000B86759
760066058039000000840084
57008406B58A0000007500A2
6700920047610000007500B1
7500830020000030009300A2
B2006DBCDDCBCCDDA8DCD275
D0003A007301008424414848
9955C5008200007400001DC4
0CA842106001005100002C20
05CCCABCABCBCCACCCC9B400
002100003100003100045000
ENDCHAR
STARTCHAR macron
ENCODING 175
SWIDTH 263 0
DWIDTH 9 0
BBX 10 5 0 27
BITMAP
1A97667960
A5355653B3
C000000067
C334542085
3A9889AC90
ENDCHAR
STARTCHAR degree
ENCODING 176
SWIDTH 333 0
DWIDTH 12 0
BBX 12 10 0 14
BITMAP
0008DB7BC200
001C03E25800
009400860C10
06A005E10680
4B003C7700B3
6800C64D1066
0B9AA88975C2
0A53000198A0
094023210490
03CCA9ABCC20
ENDCHAR
STARTCHAR plusminus
ENCODING 177
SWIDTH 464 0
DWIDTH 17 0
BBX 16 24 0 -4
BITMAP
0000000465100000
000001BA79C30000
00000670003B0000
0000048000480000
001102A000750000
03DCCAECECD99CC1
0C30122077455177
1D0000004800002B
1D0000004800002C
0D10000044000049
07959BCA78BCB8C3
008843A355C01550
0000048000B10000
0000075000A20000
000007A203C40000
0000006CDB500000
0000000000000000
0199544696312660
09747986BAACB7B4
0D0000005800004A
1C0000003800001C
0E0000005600003B
0B40245422565286
02DDA879CB868BB0
ENDCHAR
STARTCHAR twosuperior
ENCODING 178
SWIDTH 324 0
DWIDTH 12 0
BBX 11 14 0 11
BITMAP
05A976557300
1B0023442B00
380000000820
1A0000000A10
07AAACAA9C00
000083005900
00038002A000
001A000A1000
009200550000
084000D99A20
0A10064101A0
07B10A0000A0
04CAB61102A0
00899889AB20
ENDCHAR
STARTCHAR threesuperior
ENCODING 179
SWIDTH 332 0
DWIDTH 12 0
BBX 12 15 0 10
BITMAP
07A976558300
2A0023443B10
470000000AB0
290000000B90
08AAA9B99790
0003A8B12180
000900710180
000900810090
000498C00090
005678C000A0
058331A000A1
0920007969B0
08400037BC60
02B499742200
002610000000
ENDCHAR
STARTCHAR acute
ENCODING 180
SWIDTH 202 0
DWIDTH 7 0
BBX 8 8 0 27
BITMAP
0006B700
001C17A0
008500B2
02B005B1
1C204B00
A501C100
B30A4000
2BC90000
ENDCHAR
STARTCHAR mu
ENCODING 181
SWIDTH 582 0
DWIDTH 21 0
BBX 20 30 1 -5
BITMAP
0026873000005BCB7100
06C646C8000AA3128B00
0850000E000B30003A00
0680003A000770006800
05900067000590007600
049000760003A0006700
058000850004A0005900
07700094000580001C00
095000850009DDCC3D00
0D432076000980000D00
2FC9A958000490001C00
1D0000760001D0002C00
0D1000A30000D0001D00
0C2000D10000D1000D00
0B2000D00000D0000A40
0C2000E00000E5663680
0D1000D00001F8667680
0D0000D00000C2550950
3C3210A33224CD9C5A40
4DAAC78EECA96102C940
2B0000B259000000CA50
1C0001D00C000000B880
1C0002B00B000011D1D0
2B0003A00427CDCC81D1
3A0004DABBD68C668D50
680003C2220003676100
A40001D0000000000000
E10000D1000000000000
6C645AA0000000000000
03899500000000000000
ENDCHAR
STARTCHAR paragraph
ENCODING 182
SWIDTH 556 0
DWIDTH 20 0
BBX 19 28 0 -1
BITMAP
00000000000015100000
000000000003DAD20000
0000000025BC304D8200
0000004DC830000B9D50
000019CD100000077680
068BC60A300000086A40
2C5200049000379D1C10
49000000804CE8420D00
3B0000046B92C2000D00
0D3017EA7301D0000C10
08D6C78A1005EDDC5950
0B5A2006C405B1001A40
099200002AC4C0000D10
005C60002C9CE0000E00
00019A00B404F0001D00
000007927000D0000D00
000000981000D0000D00
00000007D403C4420A40
000000002B74D88A7950
0000000000AAB0000D10
000000000009D0000D00
000000000000D0002C00
000000000001C0002C00
000000000002B0000D00
00000000000770000D10
00000000000B40000A50
000000000004D6449C10
00000000000028A95000
ENDCHAR
STARTCHAR periodcentered
ENCODING 183
SWIDTH 215 0
DWIDTH 8 0
BBX 6 6 1 10
BITMAP
5CBBB3
D1004A
930066
A30075
A722A7
07A950
ENDCHAR
STARTCHAR cedilla
ENCODING 184
SWIDTH 237 0
DWIDTH 9 0
BBX 9 11 0 -8
BITMAP
00002BC910
0000B30850
0000B00830
0000B10A20
0000B10930
0001C00750
48BCD21870
C4104ACC10
C00027B800
A43BB62000
1BB2000000
ENDCHAR
STARTCHAR onesuperior
ENCODING 185
SWIDTH 286 0
DWIDTH 10 0
BBX 10 15 0 11
BITMAP
0000012000
00001A9900
0002A20680
00591000B0
4A500018C0
A00003A392
B0005900A0
4A14B500A0
03A93600A0
00004600A0
00004500A0
00005400A0
0000820082
0000A10083
00002AAB70
ENDCHAR
STARTCHAR ordmasculine
ENCODING 186
SWIDTH 476 0
DWIDTH 17 0
BBX 16 25 1 0
BITMAP
09C8667B95347A10
69157767B8A96890
B2000001C00000D0
C1000000C07DDDE0
B200000197910196
D90467633B400057
BBD96C8AA9700083
83000C00038000B0
74001B00038000B0
74002900047000B0
93003900066000B0
B1003CADBC769CD0
C0001D35B57746F1
DA449A00C00000D0
C6995000C00000C0
A3000002800001C0
5B269A9659A97870
07B7435784236800
0004100000000000
00A9BCB988AC4000
04A000123321D000
076000000000B200
067000000000B300
02C113443201D000
005CB8778ACD5000
ENDCHAR
STARTCHAR guillemotright
ENCODING 187
SWIDTH 689 0
DWIDTH 25 0
BBX 23 17 1 4
BITMAP
007B20000000017B10000000
1C84C20000002D74B1000000
88003C400000A6004C300000
C10001A81000D00002B70000
C3000005C710D2000006C610
3AB2000006D04BA1000017B0
003C600000B1004C400000C0
0000980001D00001B60002C0
00004D901BC000006E602CB0
0006B19BD6C00007A1ABD5D0
01A9000303C002A8000303B0
6C500001AB307C300002AA20
B200004C4000C000005C3000
960006B10000A40007A10000
2E406A0000003D2089000000
03CBB000000004CBA0000000
000210000000000200000000
ENDCHAR
STARTCHAR onequarter
ENCODING 188
SWIDTH 790 0
DWIDTH 28 0
BBX 28 26 0 0
BITMAP
0000003100000000000000000000
0000059B50000000000000000000
00006800B20007BBB30000000000
0019600065000A001A3000000000
07920003C6000B00093000000000
470000881A000A001B0000000000
47000A4019003800560000000000
0A509B0027008400830000000000
007A59003700B000B00000000000
000009003705DA61B00000000000
0000090037064023B00000000000
0000090028074004800000000000
000009000A092009200001CB5000
000019001B0B000B000009209400
000006BAB31A001A000065001A00
000000000056002800057019AA91
0000000000AB8337004900370056
0000000000A02667059000680064
0000000000B000B2580004893172
00000000019001A064001B987B82
00000000056005603D20920009A2
000000000A1008301BAA70000992
0000000039000920096899874A63
000000003A000920004200576145
0000000005CAAA10000000650057
000000000001100000000009BB90
ENDCHAR
STARTCHAR onehalf
ENCODING 189
SWIDTH 771 0
DWIDTH 28 0
BBX 27 27 0 -1
BITMAP
0000003100000000000000000000
0000059B50000000000000000000
00006800B20007BBB30000000000
0019600065000A001A3000000000
07920003C6000B00093000000000
470000881A000A001B0000000000
47000A4019003800560000000000
0A509B0027008400830000000000
007A59003700B000B00000000000
000009003705DA61B00000000000
0000090037064023B00000000000
0000090028074004800000000000
000009000A092009217300001000
000019001B0B000B0B4799999900
000006BAB31A001A380000000A00
0000000000560028280000000910
0000000000AB83370B3567642B00
0000000000A02667027578469C00
0000000000B000B20001A0009300
00000000019001A0000830065000
0000000005600560005700290000
000000000A100830049000932400
00000000390009200B0003A87870
000000003A0009200940091000B0
0000000005CAAA1006D9890000B0
000000000001100001B8B9996860
0000000000000000002300013500
ENDCHAR
STARTCHAR threequarters
ENCODING 190
SWIDTH 817 0
DWIDTH 29 0
BBX 29 25 0 0
BITMAP
06A976557300000000000000000000
1A0023442B20005BBB500000000000
3800000009C0009100960000000000
1A0000000AA000A000660000000000
07AAA9BA989000A000B00000000000
0002A8B2209000A002900000000000
000810620090056006500000000000
0009107200900A1008300000000000
000498B100902EA719200000000000
005678D000A037024A100000000000
048331A0009247001A000000000000
0830006968C065006500000BB70000
07500037BC709200A1000074076000
01B48A742200B000A000048000B000
0016200000039000A00029007BAA20
000000000008C940A002A100A00290
0000000000091155A03A1004B00360
00000000000A000843A1002A922450
00000000000B000C037000A987B650
000000000029002900E30740006A50
000000000083005600B9A900006950
0000000001B000650077799974B460
0000000001B1006500042102953280
00000000003BAAB200000003800290
0000000000001100000000007BBA10
ENDCHAR
STARTCHAR questiondown
ENCODING 191
SWIDTH 455 0
DWIDTH 16 0
BBX 16 27 0 -1
BITMAP
0000000002551000
000000007B78C400
00000000A2006600
00000000A2007500
00000000C0004800
00000000AA66B700
0000000003652000
0000000002310000
00000001BCAC9000
0000000770009600
000000057000A200
00000005A200C000
0000001C7C70B100
000003C300A78500
00018B20001DC300
017C6000000D3000
2D66000003990000
4ACAC403B9400000
2F603ADFC3000000
0D0000014BA52110
2B0000093037ABD1
1D00001B00000085
09DDA45800000067
00003BD910000085
0000005ABC7101D1
00000000016C7D60
0000000000017300
ENDCHAR
STARTCHAR Agrave
ENCODING 192
SWIDTH 507 0
DWIDTH 18 0
BBX 20 34 -1 0
BITMAP
0000002ACE2000000000
000002C4084000000000
00000680057000000000
000000C301C000000000
0000002C009400000000
00000008602B00000000
00000001C03C00000000
000000007CA200000000
00000001200000000000
000001BDCE9100000000
000003B0007C10000000
000003A0000B95100000
00000590003C5B500000
00000860009508500000
00000C2000D107600000
00003B0001D005900000
0000BC9512C001D00000
0000E447B2B000B30000
0000D00006C0245A0000
0000E0000CEC961D0000
0001C0002C96000D0000
00059000683B000D0000
00094000860D100A7C70
001E4100956CA8BD92B4
004DACB48E9E6530003A
00590014B40A3000000C
00680003C0066000000C
00950008500560036789
00D1000C10013ADA8E71
04B0000EACDDCA000B30
0B30001D41003A0005A0
1D00001C00002B0000D3
07B3004D00001D224AB1
005BDDA2000018CC9400
ENDCHAR
STARTCHAR Aacute
ENCODING 193
SWIDTH 507 0
DWIDTH 18 0
BBX 20 34 -1 0
BITMAP
0000000000003C910000
000000000000B44C1000
000000000003A0066000
00000000000B202C3000
00000000009601C20000
0000000005A00B400000
00000000068068000000
00000000009CC1000000
00000001200000000000
000001BDCE9100000000
000003B0007C10000000
000003A0000B95100000
00000590003C5B500000
00000860009508500000
00000C2000D107600000
00003B0001D005900000
0000BC9512C001D00000
0000E447B2B000B30000
0000D00006C0245A0000
0000E0000CEC961D0000
0001C0002C96000D0000
00059000683B000D0000
00094000860D100A7C70
001E4100956CA8BD92B4
004DACB48E9E6530003A
00590014B40A3000000C
00680003C0066000000C
00950008500560036789
00D1000C10013ADA8E71
04B0000EACDDCA000B30
0B30001D41003A0005A0
1D00001C00002B0000D3
07B3004D00001D224AB1
005BDDA2000018CC9400
ENDCHAR
STARTCHAR Acircumflex
ENCODING 194
SWIDTH 507 0
DWIDTH 18 0
BBX 20 35 -1 0
BITMAP
00000000ACDC40000000
00000002B01DC0000000
0000000A4009D4000000
0000004A006A2B000000
000001C103E007700000
00001C300CA500B40000
00001B00671C001C0000
00000B40C10940780000
000001AC6002CC800000
00000001200000000000
000001BDCE9100000000
000003B0007C10000000
000003A0000B95100000
00000590003C5B500000
00000860009508500000
00000C2000D107600000
00003B0001D005900000
0000BC9512C001D00000
0000E447B2B000B30000
0000D00006C0245A0000
0000E0000CEC961D0000
0001C0002C96000D0000
00059000683B000D0000
00094000860D100A7C70
001E4100956CA8BD92B4
004DACB48E9E6530003A
00590014B40A3000000C
00680003C0066000000C
00950008500560036789
00D1000C10013ADA8E71
04B0000EACDDCA000B30
0B30001D41003A0005A0
1D00001C00002B0000D3
07B3004D00001D224AB1
005BDDA2000018CC9400
ENDCHAR
STARTCHAR Atilde
ENCODING 195
SWIDTH 507 0
DWIDTH 18 0
BBX 20 36 -1 0
BITMAP
00000000000000010000
0000002DCDA002DBC300
0000009405F507602C00
000002C001EB0C101C10
00000B300B48A700A400
000088009801D1059000
0006A004AC004A1C1000
0008300B185008B70000
0003B16701B01CD10000
00004BA1008CCD800000
00000001200000000000
000001BDCE9100000000
000003B0007C10000000
000003A0000B95100000
00000590003C5B500000
00000860009508500000
00000C2000D107600000
00003B0001D005900000
0000BC9512C001D00000
0000E447B2B000B30000
0000D00006C0245A0000
0000E0000CEC961D0000
0001C0002C96000D0000
00059000683B000D0000
00094000860D100A7C70
001E4100956CA8BD92B4
004DACB48E9E6530003A
00590014B40A3000000C
00680003C0066000000C
00950008500560036789
00D1000C10013ADA8E71
04B0000EACDDCA000B30
0B30001D41003A0005A0
1D00001C00002B0000D3
07B3004D00001D224AB1
005BDDA2000018CC9400
ENDCHAR
STARTCHAR Adieresis
ENCODING 196
SWIDTH 507 0
DWIDTH 18 0
BBX 20 33 -1 0
BITMAP
00000378720057620000
00009A546D0C856B6000
000085002A0C00076000
00003900480B100C1000
00001B00580B300C0000
00001BCBB303BCC70000
00000000000000000000
00000001200000000000
000001BDCE9100000000
000003B0007C10000000
000003A0000B95100000
00000590003C5B500000
00000860009508500000
00000C2000D107600000
00003B0001D005900000
0000BC9512C001D00000
0000E447B2B000B30000
0000D00006C0245A0000
0000E0000CEC961D0000
0001C0002C96000D0000
00059000683B000D0000
00094000860D100A7C70
001E4100956CA8BD92B4
004DACB48E9E6530003A
00590014B40A3000000C
00680003C0066000000C
00950008500560036789
00D1000C10013ADA8E71
04B0000EACDDCA000B30
0B30001D41003A0005A0
1D00001C00002B0000D3
07B3004D00001D224AB1
005BDDA2000018CC9400
ENDCHAR
STARTCHAR Aring
ENCODING 197
SWIDTH 507 0
DWIDTH 18 0
BBX 20 37 -1 0
BITMAP
00000000430131000000
00000004BACC9B000000
0000000C20690B200000
00000068004B05800000
000004B003D700B30000
00001D101C1B202B0000
00000C30AC9C901B0000
000004EC9332C8D40000
00000480000034B20000
000002C4677754C00000
00000058655579200000
00000001200000000000
000001BDCE9100000000
000003B0007C10000000
000003A0000B95100000
00000590003C5B500000
00000860009508500000
00000C2000D107600000
00003B0001D005900000
0000BC9512C001D00000
0000E447B2B000B30000
0000D00006C0245A0000
0000E0000CEC961D0000
0001C0002C96000D0000
00059000683B000D0000
00094000860D100A7C70
001E4100956CA8BD92B4
004DACB48E9E6530003A
00590014B40A3000000C
00680003C0066000000C
00950008500560036789
00D1000C10013ADA8E71
04B0000EACDDCA000B30
0B30001D41003A0005A0
1D00001C00002B0000D3
07B3004D00001D224AB1
005BDDA2000018CC9400
ENDCHAR
STARTCHAR AE
ENCODING 198
SWIDTH 797 0
DWIDTH 29 0
BBX 30 27 -1 -1
BITMAP
000000000000000134100000000000
000000000001108DAADA8CD977ADA0
0000000000BCDDD1000991D46630A4
0000000000D003C5000A40A3000058
0000000004A0001C100D1093000049
000000000B40001D300D0081000077
000000004B0000B5000E9869DDDAD1
00000002D30006E0000D4574100330
0000001D91000DC5651C1000000000
0000004C8C704FD7674B3000000000
0000007600768990000D4124820000
000000D20001D3C0001D9BB97C0000
000004B0000B50D0002B00000B2000
00000C30005A00D0002B0000094000
0000890000D201D0001C00000B2000
0003F81004EB99B0000C89843C0000
000786C7085237EDCA5A7459C30000
000C20074C200490012C1000000000
004B00007A0002B0001D0100000000
00C30003C34444C0002EDED8546920
0880000CDA8889B0003A04A58977A0
7B00004A000003A0003B02B00000D0
A40000A400000670001D02A00000C1
4D1000D100000A30000C23400000D0
06C646C000000A70003DC99BC95790
001698300000019DCDC41441138A10
000000000000000021000000000000
ENDCHAR
STARTCHAR Ccedilla
ENCODING 199
SWIDTH 515 0
DWIDTH 19 0
BBX 19 34 0 -8
BITMAP
00018710000000000000
000A87CDCCDB62013200
001C0000115B7BDDBC00
00490000002A00000A40
00490000003900000760
001C0000005400000840
000BCCCCD95677510C10
001D3000D587568CD700
006B4300D00000002000
00BB89B2D00000000000
00940002C00000000000
00850007700000000000
0094000B300000000000
00B2000D100000000000
01D0000D000000000000
05D7520C200000000000
06A57A6A400000000000
0580001D000000000000
06700067000000037100
095000A438A88ACB8B00
1D1000BDB6E554100B40
780000B3009400000670
88000095006500000670
0AC769D2006400121A40
00E875013335ADCBCA00
008A27CDBDB9A4000000
0008C720093084000000
000000000A2075000000
000000001C1056000000
0000038BCE3169000000
00000C4103ACD1000000
00000C00026A90000000
00000862AB6200000000
000001AB300000000000
ENDCHAR
STARTCHAR Egrave
ENCODING 200
SWIDTH 490 0
DWIDTH 18 0
BBX 17 36 1 -1
BITMAP
000006CD9000000000
00008811B000000000
0000D100C000000000
000059008400000000
00000A502B00000000
000001C00A40000000
000000850A40000000
0000001CC600000000
000000000000000000
001341000000000000
09DAAD99CD977AD900
4C0000A82D46530B30
1D0000B30B20000670
0D0000D00A20000580
0C1001D00800000850
0D0002E986ADDCAD10
1D0001D45740013200
5B6640D00000000000
8C7673B20000000000
680000E31248100000
3B0002D9BB98A00000
1D0003A00000C10000
1D0003A00000A30000
2C0002B00000C10000
4A0000D99744B00000
7EDCA4B6469C200000
680011D10000000000
3A0002B01000000000
2B0004EDED75469100
3A0005905958977900
490004A03A00000C00
760002C04900000D00
C20000D14300001C00
C60003DC99BB958700
1ADCDC31441148A000
001210000000000000
ENDCHAR
STARTCHAR Eacute
ENCODING 201
SWIDTH 490 0
DWIDTH 18 0
BBX 17 36 1 -1
BITMAP
0000000004B8100000
000000000C25B00000
000000006800840000
00000001C103C20000
0000000B402C100000
0000008800C2000000
000000960860000000
0000001ACB00000000
000000000000000000
001341000000000000
09DAAD99CD977AD900
4C0000A82D46530B30
1D0000B30B20000670
0D0000D00A20000580
0C1001D00800000850
0D0002E986ADDCAD10
1D0001D45740013200
5B6640D00000000000
8C7673B20000000000
680000E31248100000
3B0002D9BB98A00000
1D0003A00000C10000
1D0003A00000A30000
2C0002B00000C10000
4A0000D99744B00000
7EDCA4B6469C200000
680011D10000000000
3A0002B01000000000
2B0004EDED75469100
3A0005905958977900
490004A03A00000C00
760002C04900000D00
C20000D14300001C00
C60003DC99BB958700
1ADCDC31441148A000
001210000000000000
ENDCHAR
STARTCHAR Ecircumflex
ENCODING 202
SWIDTH 490 0
DWIDTH 18 0
BBX 17 36 1 -1
BITMAP
000000ACDB30000000
000003A02DB0000000
00000B300AD3000000
00005900792B000000
0002C104D008600000
001C300CB400B40000
002A00762B002C0000
000B31C00A30870000
0002AC5003CC800000
001341000000000000
09DAAD99CD977AD900
4C0000A82D46530B30
1D0000B30B20000670
0D0000D00A20000580
0C1001D00800000850
0D0002E986ADDCAD10
1D0001D45740013200
5B6640D00000000000
8C7673B20000000000
680000E31248100000
3B0002D9BB98A00000
1D0003A00000C10000
1D0003A00000A30000
2C0002B00000C10000
4A0000D99744B00000
7EDCA4B6469C200000
680011D10000000000
3A0002B01000000000
2B0004EDED75469100
3A0005905958977900
490004A03A00000C00
760002C04900000D00
C20000D14300001C00
C60003DC99BB958700
1ADCDC31441148A000
001210000000000000
ENDCHAR
STARTCHAR Edieresis
ENCODING 203
SWIDTH 490 0
DWIDTH 18 0
BBX 17 34 1 -1
BITMAP
000478610057610000
00B9546C1C756C5000
00A300490C00094000
005800660C000C0000
003900760C201C0000
002BCCA204BCC60000
000000000000000000
001341000000000000
09DAAD99CD977AD900
4C0000A82D46530B30
1D0000B30B20000670
0D0000D00A20000580
0C1001D00800000850
0D0002E986ADDCAD10
1D0001D45740013200
5B6640D00000000000
8C7673B20000000000
680000E31248100000
3B0002D9BB98A00000
1D0003A00000C10000
1D0003A00000A30000
2C0002B00000C10000
4A0000D99744B00000
7EDCA4B6469C200000
680011D10000000000
3A0002B01000000000
2B0004EDED75469100
3A0005905958977900
490004A03A00000C00
760002C04900000D00
C20000D14300001C00
C60003DC99BB958700
1ADCDC31441148A000
001210000000000000
ENDCHAR
STARTCHAR Igrave
ENCODING 204
SWIDTH 266 0
DWIDTH 10 0
BBX 10 36 -1 -1
BITMAP
007CD80000
09712A0000
1D000C0000
0680093000
00B403A000
002B00B300
000941B300
0002DC5000
0000000000
0000144100
0009DAAD80
004C0000A6
001D0000B3
000D0000D0
000C1001D0
000D0002C0
001D0001D0
005B7751D1
008C7573B2
00680000D0
003B0002B0
001D0003A0
001D0003A0
002C0002B0
00490000D0
007EDCB4B3
00580011D1
003A0002B0
002B0004A0
003A000590
00490004A0
00860002C0
00C20000D1
00B60004D1
0019DCDB30
0000010000
ENDCHAR
STARTCHAR Iacute
ENCODING 205
SWIDTH 266 0
DWIDTH 10 0
BBX 10 36 1 -1
BITMAP
000001BA30
00000773C3
00001C002A
00009501A6
0005A00A50
002C107700
003B02B000
0006CD3000
0000000000
0014410000
09DAAD8000
4C0000A600
1D0000B300
0D0000D000
0C1001D000
0D0002C000
1D0001D000
5B7751D100
8C7573B200
680000D000
3B0002B000
1D0003A000
1D0003A000
2C0002B000
490000D000
7EDCB4B300
580011D100
3A0002B000
2B0004A000
3A00059000
490004A000
860002C000
C20000D100
B60004D100
19DCDB3000
0001000000
ENDCHAR
STARTCHAR Icircumflex
ENCODING 206
SWIDTH 266 0
DWIDTH 10 0
BBX 12 36 -1 -1
BITMAP
00009CDC4000
0002B01CC000
00094009D400
004A006A2B00
01C103E10770
0B400CA500A5
1B00681C001D
0B40C1084068
019C6002CC90
000014410000
0009DAAD8000
004C0000A600
001D0000B300
000D0000D000
000C1001D000
000D0002C000
001D0001D000
005B7751D100
008C7573B200
00680000D000
003B0002B000
001D0003A000
001D0003A000
002C0002B000
00490000D000
007EDCB4B300
00580011D100
003A0002B000
002B0004A000
003A00059000
00490004A000
00860002C000
00C20000D100
00B60004D100
0019DCDB3000
000001000000
ENDCHAR
STARTCHAR Idieresis
ENCODING 207
SWIDTH 266 0
DWIDTH 10 0
BBX 14 34 -2 -1
BITMAP
00588510167510
1C844993C657C2
0C0007539000C1
09400931A002A0
07600B31C10480
04CBC9106CCB30
00000000000000
00000144100000
00009DAAD80000
0004C0000A6000
0001D0000B3000
0000D0000D0000
0000C1001D0000
0000D0002C0000
0001D0001D0000
0005B7751D1000
0008C7573B2000
000680000D0000
0003B0002B0000
0001D0003A0000
0001D0003A0000
0002C0002B0000
000490000D0000
0007EDCB4B3000
000580011D1000
0003A0002B0000
0002B0004A0000
0003A000590000
000490004A0000
000860002C0000
000C20000D1000
000B60004D1000
00019DCDB30000
00000010000000
ENDCHAR
STARTCHAR Eth
ENCODING 208
SWIDTH 669 0
DWIDTH 24 0
BBX 26 28 -1 -1
BITMAP
00000000000001100000000000
000000000024BDD40000000000
000000004DCE502C1000000000
00000000D3960006B000000000
0000000094D000008A10000000
0000000076D2000007C2000000
00000000674C7000004D400000
0000000086009A10001DD00000
00000000A4000BB00095790000
00000000E56527E90A600A7000
00000002E866758B610000AA10
06C96421E3610851BA100006D4
3C12589998990B2006C2000086
86000000000D0C10005C1000D2
85000000000C2C10000BA01AD0
58000000000D0B200099ABD6A5
0B8ACCCBA79808502B901410A7
01520001FFFB7595E500002C80
00000000D101279D9C2002C300
00000000C1000BE403B01C3000
00000000B2000D600053A50000
00000000C1000D000008B00000
00000000D0000D0001B8000000
00000001C0000B201C60000000
0000000680000760B600000000
00000006B1001A788000000000
000000006DCCEB4D0000000000
00000000002139A40000000000
ENDCHAR
STARTCHAR Ntilde
ENCODING 209
SWIDTH 598 0
DWIDTH 22 0
BBX 20 37 1 -1
BITMAP
00000000000000020000
0000000BCDB300BBC500
0000004902EA02A00B20
000000C200BD29400A40
000007800783BB006900
00004B005C00A602C000
0002C101CB301B294000
0004800843A004BB0000
0000C32B00B109D50000
00002AC3005CCDB00000
00133100000000133000
08DBBDA8200008DBBD70
4C0000AC90003C0000B6
1D0000B5C0001D0000B3
0D0000D0D1000D0000E0
0C1001D086000D1001D0
0D0002C02D100E0002C0
1D0001D008901D0001D0
5B5640D122C35B5640D1
8C8684BDA4878C8684B2
680000D2004B680000D0
3B0002B0000D4B0002C0
1C0003E20007AC0003A0
1D0003EA0000DD0003A0
2C0002BD20003D1002C0
4A0000D76003586000D0
7DCC94B5B6C945EC93B3
680122D1EA1001C022D1
3A0002C06B0000B302C0
2B0004A00B50004A03A0
3A00059003C0000B5490
490004A000C20001D790
770002B00077000097B0
C20000D100490005D0D0
C50003D2002D66AB23D1
1ADBCC3000037AEBCC30
00121000000000021000
ENDCHAR
STARTCHAR Ograve
ENCODING 210
SWIDTH 612 0
DWIDTH 22 0
BBX 22 35 0 -1
BITMAP
000000003BCD0000000000
00000003B20B1000000000
0000000950085000000000
00000001C1039000000000
000000005A00C100000000
000000000B305900000000
0000000003A06900000000
0000000000AC9100000000
0001871000000000000000
000A87CDCCDB6215762000
001C0000115B7BDDBFD700
00490000002A00000A7B00
004900000039000007B800
001C00000054000008B600
000BCCCCD95677510C7700
001D3000D58756DCD74900
006B4300D00003A0201D00
00BB89B2D00007DDDC4C20
00940002C00007A0000D00
00850007700002B0000E00
0094000B300000D1000E00
00B2000D100000B2000D10
01D0000D000000A4000A40
05D7520C200000A3000590
06A57A6A400000CABBA3D0
0580001D000000A72013A0
0670006800000067164580
095000A414A988AED8D880
1D1000BDC98C5542005EA0
780000B3000D0000001FD0
88000095000B1000000DB4
0AC769D2000A0000214AB5
00E8750023336ACEFFFE70
008A17BDBAAB8201465100
0008C72000000000000000
ENDCHAR
STARTCHAR Oacute
ENCODING 211
SWIDTH 612 0
DWIDTH 22 0
BBX 22 35 0 -1
BITMAP
00000000000006B7000000
0000000000001C17A00000
0000000000008500B20000
000000000002B005B10000
00000000001C204B000000
0000000000A501C1000000
0000000000B30A40000000
00000000002BC900000000
0001871000000000000000
000A87CDCCDB6215762000
001C0000115B7BDDBFD700
00490000002A00000A7B00
004900000039000007B800
001C00000054000008B600
000BCCCCD95677510C7700
001D3000D58756DCD74900
006B4300D00003A0201D00
00BB89B2D00007DDDC4C20
00940002C00007A0000D00
00850007700002B0000E00
0094000B300000D1000E00
00B2000D100000B2000D10
01D0000D000000A4000A40
05D7520C200000A3000590
06A57A6A400000CABBA3D0
0580001D000000A72013A0
0670006800000067164580
095000A414A988AED8D880
1D1000BDC98C5542005EA0
780000B3000D0000001FD0
88000095000B1000000DB4
0AC769D2000A0000214AB5
00E8750023336ACEFFFE70
008A17BDBAAB8201465100
0008C72000000000000000
ENDCHAR
STARTCHAR Ocircumflex
ENCODING 212
SWIDTH 612 0
DWIDTH 22 0
BBX 22 36 0 -1
BITMAP
0000000006DCC700000000
000000000C10AF10000000
0000000068005D80000000
00000001C103C1B2000000
0000000B401D403B000000
00000097009A9007800000
000000C003B0B200C20000
000000780A305803B00000
00000008C9000BCA200000
0001871000000000000000
000A87CDCCDB6215762000
001C0000115B7BDDBFD700
00490000002A00000A7B00
004900000039000007B800
001C00000054000008B600
000BCCCCD95677510C7700
001D3000D58756DCD74900
006B4300D00003A0201D00
00BB89B2D00007DDDC4C20
00940002C00007A0000D00
00850007700002B0000E00
0094000B300000D1000E00
00B2000D100000B2000D10
01D0000D000000A4000A40
05D7520C200000A3000590
06A57A6A400000CABBA3D0
0580001D000000A72013A0
0670006800000067164580
095000A414A988AED8D880
1D1000BDC98C5542005EA0
780000B3000D0000001FD0
88000095000B1000000DB4
0AC769D2000A0000214AB5
00E8750023336ACEFFFE70
008A17BDBAAB8201465100
0008C72000000000000000
ENDCHAR
STARTCHAR Otilde
ENCODING 213
SWIDTH 612 0
DWIDTH 22 0
BBX 22 37 0 -1
BITMAP
0000000000000000110000
000000006CCC7006CBA000
00000000C10AF10B106800
000000077006D73A004A00
0000002C002C1BB202C100
000001C301D304B00A4000
00000A50099800854A0000
00000C003A0C100DB20000
00000870B206704DB00000
0000007C7001CCDC400000
0001871000000000000000
000A87CDCCDB6215762000
001C0000115B7BDDBFD700
00490000002A00000A7B00
004900000039000007B800
001C00000054000008B600
000BCCCCD95677510C7700
001D3000D58756DCD74900
006B4300D00003A0201D00
00BB89B2D00007DDDC4C20
00940002C00007A0000D00
00850007700002B0000E00
0094000B300000D1000E00
00B2000D100000B2000D10
01D0000D000000A4000A40
05D7520C200000A3000590
06A57A6A400000CABBA3D0
0580001D000000A72013A0
0670006800000067164580
095000A414A988AED8D880
1D1000BDC98C5542005EA0
780000B3000D0000001FD0
88000095000B1000000DB4
0AC769D2000A0000214AB5
00E8750023336ACEFFFE70
008A17BDBAAB8201465100
0008C72000000000000000
ENDCHAR
STARTCHAR Odieresis
ENCODING 214
SWIDTH 612 0
DWIDTH 22 0
BBX 22 34 0 -1
BITMAP
0000016885002675000000
00003C744A75B658C10000
00001C0009357000C00000
00000B200C148004800000
000009400C14A007600000
000005CCC8017CCB200000
0000000000000000000000
0001871000000000000000
000A87CDCCDB6215762000
001C0000115B7BDDBFD700
00490000002A00000A7B00
004900000039000007B800
001C00000054000008B600
000BCCCCD95677510C7700
001D3000D58756DCD74900
006B4300D00003A0201D00
00BB89B2D00007DDDC4C20
00940002C00007A0000D00
00850007700002B0000E00
0094000B300000D1000E00
00B2000D100000B2000D10
01D0000D000000A4000A40
05D7520C200000A3000590
06A57A6A400000CABBA3D0
0580001D000000A72013A0
0670006800000067164580
095000A414A988AED8D880
1D1000BDC98C5542005EA0
780000B3000D0000001FD0
88000095000B1000000DB4
0AC769D2000A0000214AB5
00E8750023336ACEFFFE70
008A17BDBAAB8201465100
0008C72000000000000000
ENDCHAR
STARTCHAR multiply
ENCODING 215
SWIDTH 421 0
DWIDTH 15 0
BBX 14 14 1 5
BITMAP
00144000010000
04D9B6009CD700
3D201D25901B80
B30004CB0001D1
D000004D400093
D6000002F406C1
18C20005BCA810
008D203B17B000
07A6B291008B30
C700A9100004D1
D00009D20000D0
A4002C4C100880
2D51C205929B00
029C6000AB6000
ENDCHAR
STARTCHAR Oslash
ENCODING 216
SWIDTH 612 0
DWIDTH 22 0
BBX 22 28 0 -2
BITMAP
0001871000000000000000
000A87CDCCDB5208B94000
001C0000115B8BEA36E600
00490000002A0094002E10
00490000003901C0000A40
001C000000540950005B00
000BCCCCD9568B0002E800
001D3000D589D1000B7900
006B4300D02D6000571D00
00BB89B2D08ACC10CC4C20
00940002C0C005A4900D00
008500077490001B300E00
0094000A3C200087000E00
00B2000C780004F3000D10
01D0000DC1001CA4000A40
05D7520D300077A3000590
06A57ACF9100C0CABBA3D0
058000C29E3580A72013A0
06700580046A3067174580
09500C10007E88AED8D880
1D10870004DC5542005DA0
7804B0001C2D0000001FD0
883C1000850B1000000DB4
0AE20001C00A0000214AB5
00D1000773336ACEFFFE70
007A000CBAAB8201465100
000AD9BA00000000000000
0000353000000000000000
ENDCHAR
STARTCHAR Ugrave
ENCODING 217
SWIDTH 583 0
DWIDTH 21 0
BBX 21 35 0 -1
BITMAP
00000005CCB00000000000
0000006A10C00000000000
000000C200B20000000000
0000003B00660000000000
00000008701C0000000000
00000000C1086000000000
0000000067086000000000
000000000CC70000000000
0000121000000013200000
002BDBDC300019DBBD6000
00690003D300980001E000
003A0000D100670001C000
002B0003A0003B0003A000
003A000670001C00049000
0058000860000D0003B000
0094000850001C0001D000
00E6751870003B4651C200
03E7677680006EA774B300
00D0000A40004A0000D100
00D0000D10001D0000E000
00D0001D00000C1000E000
01D0002B00000B3000C100
04A0002B00000A4000A400
08B6410D00000B30006800
09967A4D00000DBCCA3C00
0750003A00000B51014A00
0760008600000879C26700
094000A338889DC55B7600
0C1000BDBAB541000B9700
3B0000A400D0000008A900
8700007600A20000086D00
2D8436D4009201466D1B30
01DBB8200125CEC7753D20
006904ADDCB922BCBDB300
0008EA4000000000210000
ENDCHAR
STARTCHAR Uacute
ENCODING 218
SWIDTH 583 0
DWIDTH 21 0
BBX 21 35 0 -1
BITMAP
000000000001C920000000
00000000000863C2000000
00000000001C0039000000
0000000000A401B5000000
0000000006900B40000000
000000003B008600000000
000000004A03B000000000
0000000007CD2000000000
0000121000000013200000
002BDBDC300019DBBD6000
00690003D300980001E000
003A0000D100670001C000
002B0003A0003B0003A000
003A000670001C00049000
0058000860000D0003B000
0094000850001C0001D000
00E6751870003B4651C200
03E7677680006EA774B300
00D0000A40004A0000D100
00D0000D10001D0000E000
00D0001D00000C1000E000
01D0002B00000B3000C100
04A0002B00000A4000A400
08B6410D00000B30006800
09967A4D00000DBCCA3C00
0750003A00000B51014A00
0760008600000879C26700
094000A338889DC55B7600
0C1000BDBAB541000B9700
3B0000A400D0000008A900
8700007600A20000086D00
2D8436D4009201466D1B30
01DBB8200125CEC7753D20
006904ADDCB922BCBDB300
0008EA4000000000210000
ENDCHAR
STARTCHAR Ucircumflex
ENCODING 219
SWIDTH 583 0
DWIDTH 21 0
BBX 21 36 0 -1
BITMAP
00000000ACDC4000000000
00000002B01DC000000000
0000000A4009D400000000
0000004A006A2B00000000
000001C103E00770000000
00001C300CA500B4000000
00001B00671C001C000000
00000B40C1094078000000
000001AC6002CC80000000
0000121000000013200000
002BDBDC300019DBBD6000
00690003D300980001E000
003A0000D100670001C000
002B0003A0003B0003A000
003A000670001C00049000
0058000860000D0003B000
0094000850001C0001D000
00E6751870003B4651C200
03E7677680006EA774B300
00D0000A40004A0000D100
00D0000D10001D0000E000
00D0001D00000C1000E000
01D0002B00000B3000C100
04A0002B00000A4000A400
08B6410D00000B30006800
09967A4D00000DBCCA3C00
0750003A00000B51014A00
0760008600000879C26700
094000A338889DC55B7600
0C1000BDBAB541000B9700
3B0000A400D0000008A900
8700007600A20000086D00
2D8436D4009201466D1B30
01DBB8200125CEC7753D20
006904ADDCB922BCBDB300
0008EA4000000000210000
ENDCHAR
STARTCHAR Udieresis
ENCODING 220
SWIDTH 583 0
DWIDTH 21 0
BBX 21 34 0 -1
BITMAP
0000037862005762000000
0000AA546D0C856B600000
000094003A0C0008500000
00004900580C000C000000
00002A00670C200C000000
00001BCBB204BCC7000000
0000000000000000000000
0000121000000013200000
002BDBDC300019DBBD6000
00690003D300980001E000
003A0000D100670001C000
002B0003A0003B0003A000
003A000670001C00049000
0058000860000D0003B000
0094000850001C0001D000
00E6751870003B4651C200
03E7677680006EA774B300
00D0000A40004A0000D100
00D0000D10001D0000E000
00D0001D00000C1000E000
01D0002B00000B3000C100
04A0002B00000A4000A400
08B6410D00000B30006800
09967A4D00000DBCCA3C00
0750003A00000B51014A00
0760008600000879C26700
094000A338889DC55B7600
0C1000BDBAB541000B9700
3B0000A400D0000008A900
8700007600A20000086D00
2D8436D4009201466D1B30
01DBB8200125CEC7753D20
006904ADDCB922BCBDB300
0008EA4000000000210000
ENDCHAR
STARTCHAR Yacute
ENCODING 221
SWIDTH 484 0
DWIDTH 17 0
BBX 20 33 -1 0
BITMAP
000000000007B6000000
00000000002C18900000
00000000009400B10000
0000000003B006B10000
000000001C205A000000
00000000B402C1000000
00000000C30B30000000
000000002BC800000000
00045200000004885000
03CB9C0000000D55AC20
1C300B3000001C0005C1
850004B00000680000B5
B50000970000C30005B0
1C60001C6005A0001D10
01C40001B62D20007800
002D10272CCD7100C200
000875B407E47C61C000
0001EC0003B000559000
000099000870001D2000
000009700C2000870000
000000B45A0001D00000
0000002DD20007700000
00000009E8100B200000
0000000C36B70D000000
0000001D00054C000000
000000780001C3000000
000001D2000880000000
00000880001D10000000
00005C00006800000000
0000A40000A300000000
00004C1000D100000000
000006D867D000000000
00000016872000000000
ENDCHAR
STARTCHAR Thorn
ENCODING 222
SWIDTH 520 0
DWIDTH 19 0
BBX 18 26 1 -1
BITMAP
03ADCA300000000000
3D4115C40000000000
2C0046A40000000000
0D09C9F30000000000
0C6B004CB620000000
0DB4000038CD200000
0DC10000006AC81000
3BA30000009517CB95
8FDDA83001C000024C
770136FC433000000D
3A0002C3CA7400002C
2C0003A0047CD60097
1D0004A0004C48B8F3
1C0003A029B2004786
3B0001C6E5000006D4
6B8751CB9C1002B810
6B5575C207803C3000
490001D00082C20000
3B0003A0004C300000
3B0005901AB2000000
49000492C600000000
680003CC3000000000
A40000E30000000000
D20000D20000000000
4D878D800000000000
015762000000000000
ENDCHAR
STARTCHAR germandbls
ENCODING 223
SWIDTH 884 0
DWIDTH 32 0
BBX 32 27 0 -1
BITMAP
0000000110027C300000000110027C30
005646AEECDB63D1006546BEECDB64D0
05B78731D000008506A78632C00000A4
0A9CDD20A20000680C9DDD10C0000077
0DA10760920000870E910850A1000095
6A0002B04169A9D2790004A04269A9D1
790000BDCC732330980000CDCC632430
0A70003C100000000B50004B00000000
01C200089000000001D1000980000000
00590000A500000000680000B4000000
000D15B83A000000000D06C749000000
0008BA100C200000000AB9100D100000
0004E100069000000005D00007800000
0000790000B400000000980000C30000
00000A60002C400000000B40002D3000
000001D10013C000000002C00024B000
000000862AB3C100000000953BA2D000
0000003DC30077000000003DC3008600
0000000A60001D100000000B50002C10
00000166E30005B100000267E20006A0
1BBACCAC8C00006B2CBACCBB9A00008A
9523100D0B30002DB423101C0D10002C
D000000C167000A7D000000C086000B5
D100000B03B34B90E000000B04A34B80
A40013337CCCDA00B30013337CCCE900
3D5ACA9A610000004C5ACA9A61000000
02940000000000000393000000000000
ENDCHAR
STARTCHAR agrave
ENCODING 224
SWIDTH 507 0
DWIDTH 18 0
BBX 20 34 -1 0
BITMAP
0000002ACE2000000000
000002C4084000000000
00000680057000000000
000000C301C000000000
0000002C009400000000
00000008602B00000000
00000001C03C00000000
000000007CA200000000
00000001200000000000
000001BDCE9100000000
000003B0007C10000000
000003A0000B95100000
00000590003C5B500000
00000860009508500000
00000C2000D107600000
00003B0001D005900000
0000BC9512C001D00000
0000E447B2B000B30000
0000D00006C0245A0000
0000E0000CEC961D0000
0001C0002C96000D0000
00059000683B000D0000
00094000860D100A7C70
001E4100956CA8BD92B4
004DACB48E9E6530003A
00590014B40A3000000C
00680003C0066000000C
00950008500560036789
00D1000C10013ADA8E71
04B0000EACDDCA000B30
0B30001D41003A0005A0
1D00001C00002B0000D3
07B3004D00001D224AB1
005BDDA2000018CC9400
ENDCHAR
STARTCHAR aacute
ENCODING 225
SWIDTH 507 0
DWIDTH 18 0
BBX 20 34 -1 0
BITMAP
0000000000003C910000
000000000000B44C1000
000000000003A0066000
00000000000B202C3000
00000000009601C20000
0000000005A00B400000
00000000068068000000
00000000009CC1000000
00000001200000000000
000001BDCE9100000000
000003B0007C10000000
000003A0000B95100000
00000590003C5B500000
00000860009508500000
00000C2000D107600000
00003B0001D005900000
0000BC9512C001D00000
0000E447B2B000B30000
0000D00006C0245A0000
0000E0000CEC961D0000
0001C0002C96000D0000
00059000683B000D0000
00094000860D100A7C70
001E4100956CA8BD92B4
004DACB48E9E6530003A
00590014B40A3000000C
00680003C0066000000C
00950008500560036789
00D1000C10013ADA8E71
04B0000EACDDCA000B30
0B30001D41003A0005A0
1D00001C00002B0000D3
07B3004D00001D224AB1
005BDDA2000018CC9400
ENDCHAR
STARTCHAR acircumflex
ENCODING 226
SWIDTH 507 0
DWIDTH 18 0
BBX 20 35 -1 0
BITMAP
00000000ACDC40000000
00000002B01DC0000000
0000000A4009D4000000
0000004A006A2B000000
000001C103E007700000
00001C300CA500B40000
00001B00671C001C0000
00000B40C10940780000
000001AC6002CC800000
00000001200000000000
000001BDCE9100000000
000003B0007C10000000
000003A0000B95100000
00000590003C5B500000
00000860009508500000
00000C2000D107600000
00003B0001D005900000
0000BC9512C001D00000
0000E447B2B000B30000
0000D00006C0245A0000
0000E0000CEC961D0000
0001C0002C96000D0000
00059000683B000D0000
00094000860D100A7C70
001E4100956CA8BD92B4
004DACB48E9E6530003A
00590014B40A3000000C
00680003C0066000000C
00950008500560036789
00D1000C10013ADA8E71
04B0000EACDDCA000B30
0B30001D41003A0005A0
1D00001C00002B0000D3
07B3004D00001D224AB1
005BDDA2000018CC9400
ENDCHAR
STARTCHAR atilde
ENCODING 227
SWIDTH 507 0
DWIDTH 18 0
BBX 20 36 -1 0
BITMAP
00000000000000010000
0000002DCDA002DBC300
0000009405F507602C00
000002C001EB0C101C10
00000B300B48A700A400
000088009801D1059000
0006A004AC004A1C1000
0008300B185008B70000
0003B16701B01CD10000
00004BA1008CCD800000
00000001200000000000
000001BDCE9100000000
000003B0007C10000000
000003A0000B95100000
00000590003C5B500000
00000860009508500000
00000C2000D107600000
00003B0001D005900000
0000BC9512C001D00000
0000E447B2B000B30000
0000D00006C0245A0000
0000E0000CEC961D0000
0001C0002C96000D0000
00059000683B000D0000
00094000860D100A7C70
001E4100956CA8BD92B4
004DACB48E9E6530003A
00590014B40A3000000C
00680003C0066000000C
00950008500560036789
00D1000C10013ADA8E71
04B0000EACDDCA000B30
0B30001D41003A0005A0
1D00001C00002B0000D3
07B3004D00001D224AB1
005BDDA2000018CC9400
ENDCHAR
STARTCHAR adieresis
ENCODING 228
SWIDTH 507 0
DWIDTH 18 0
BBX 20 33 -1 0
BITMAP
00000378720057620000
00009A546D0C856B6000
000085002A0C00076000
00003900480B100C1000
00001B00580B300C0000
00001BCBB303BCC70000
00000000000000000000
00000001200000000000
000001BDCE9100000000
000003B0007C10000000
000003A0000B95100000
00000590003C5B500000
00000860009508500000
00000C2000D107600000
00003B0001D005900000
0000BC9512C001D00000
0000E447B2B000B30000
0000D00006C0245A0000
0000E0000CEC961D0000
0001C0002C96000D0000
00059000683B000D0000
00094000860D100A7C70
001E4100956CA8BD92B4
004DACB48E9E6530003A
00590014B40A3000000C
00680003C0066000000C
00950008500560036789
00D1000C10013ADA8E71
04B0000EACDDCA000B30
0B30001D41003A0005A0
1D00001C00002B0000D3
07B3004D00001D224AB1
005BDDA2000018CC9400
ENDCHAR
STARTCHAR aring
ENCODING 229
SWIDTH 507 0
DWIDTH 18 0
BBX 20 37 -1 0
BITMAP
00000000430131000000
00000004BACC9B000000
0000000C20690B200000
00000068004B05800000
000004B003D700B30000
00001D101C1B202B0000
00000C30AC9C901B0000
000004EC9332C8D40000
00000480000034B20000
000002C4677754C00000
00000058655579200000
00000001200000000000
000001BDCE9100000000
000003B0007C10000000
000003A0000B95100000
00000590003C5B500000
00000860009508500000
00000C2000D107600000
00003B0001D005900000
0000BC9512C001D00000
0000E447B2B000B30000
0000D00006C0245A0000
0000E0000CEC961D0000
0001C0002C96000D0000
00059000683B000D0000
00094000860D100A7C70
001E4100956CA8BD92B4
004DACB48E9E6530003A
00590014B40A3000000C
00680003C0066000000C
00950008500560036789
00D1000C10013ADA8E71
04B0000EACDDCA000B30
0B30001D41003A0005A0
1D00001C00002B0000D3
07B3004D00001D224AB1
005BDDA2000018CC9400
ENDCHAR
STARTCHAR ae
ENCODING 230
SWIDTH 797 0
DWIDTH 29 0
BBX 30 27 -1 -1
BITMAP
000000000000000134100000000000
000000000001108DAADA8CD977ADA0
0000000000BCDDD1000991D46630A4
0000000000D003C5000A40A3000058
0000000004A0001C100D1093000049
000000000B40001D300D0081000077
000000004B0000B5000E9869DDDAD1
00000002D30006E0000D4574100330
0000001D91000DC5651C1000000000
0000004C8C704FD7674B3000000000
0000007600768990000D4124820000
000000D20001D3C0001D9BB97C0000
000004B0000B50D0002B00000B2000
00000C30005A00D0002B0000094000
0000890000D201D0001C00000B2000
0003F81004EB99B0000C89843C0000
000786C7085237EDCA5A7459C30000
000C20074C200490012C1000000000
004B00007A0002B0001D0100000000
00C30003C34444C0002EDED8546920
0880000CDA8889B0003A04A58977A0
7B00004A000003A0003B02B00000D0
A40000A400000670001D02A00000C1
4D1000D100000A30000C23400000D0
06C646C000000A70003DC99BC95790
001698300000019DCDC41441138A10
000000000000000021000000000000
ENDCHAR
STARTCHAR ccedilla
ENCODING 231
SWIDTH 515 0
DWIDTH 19 0
BBX 19 34 0 -8
BITMAP
00018710000000000000
000A87CDCCDB62013200
001C0000115B7BDDBC00
00490000002A00000A40
00490000003900000760
001C0000005400000840
000BCCCCD95677510C10
001D3000D587568CD700
006B4300D00000002000
00BB89B2D00000000000
00940002C00000000000
00850007700000000000
0094000B300000000000
00B2000D100000000000
01D0000D000000000000
05D7520C200000000000
06A57A6A400000000000
0580001D000000000000
06700067000000037100
095000A438A88ACB8B00
1D1000BDB6E554100B40
780000B3009400000670
88000095006500000670
0AC769D2006400121A40
00E875013335ADCBCA00
008A27CDBDB9A4000000
0008C720093084000000
000000000A2075000000
000000001C1056000000
0000038BCE3169000000
00000C4103ACD1000000
00000C00026A90000000
00000862AB6200000000
000001AB300000000000
ENDCHAR
STARTCHAR egrave
ENCODING 232
SWIDTH 490 0
DWIDTH 18 0
BBX 17 36 1 -1
BITMAP
000006CD9000000000
00008811B000000000
0000D100C000000000
000059008400000000
00000A502B00000000
000001C00A40000000
000000850A40000000
0000001CC600000000
000000000000000000
001341000000000000
09DAAD99CD977AD900
4C0000A82D46530B30
1D0000B30B20000670
0D0000D00A20000580
0C1001D00800000850
0D0002E986ADDCAD10
1D0001D45740013200
5B6640D00000000000
8C7673B20000000000
680000E31248100000
3B0002D9BB98A00000
1D0003A00000C10000
1D0003A00000A30000
2C0002B00000C10000
4A0000D99744B00000
7EDCA4B6469C200000
680011D10000000000
3A0002B01000000000
2B0004EDED75469100
3A0005905958977900
490004A03A00000C00
760002C04900000D00
C20000D14300001C00
C60003DC99BB958700
1ADCDC31441148A000
001210000000000000
ENDCHAR
STARTCHAR eacute
ENCODING 233
SWIDTH 490 0
DWIDTH 18 0
BBX 17 36 1 -1
BITMAP
0000000004B8100000
000000000C25B00000
000000006800840000
00000001C103C20000
0000000B402C100000
0000008800C2000000
000000960860000000
0000001ACB00000000
000000000000000000
001341000000000000
09DAAD99CD977AD900
4C0000A82D46530B30
1D0000B30B20000670
0D0000D00A20000580
0C1001D00800000850
0D0002E986ADDCAD10
1D0001D45740013200
5B6640D00000000000
8C7673B20000000000
680000E31248100000
3B0002D9BB98A00000
1D0003A00000C10000
1D0003A00000A30000
2C0002B00000C10000
4A0000D99744B00000
7EDCA4B6469C200000
680011D10000000000
3A0002B01000000000
2B0004EDED75469100
3A0005905958977900
490004A03A00000C00
760002C04900000D00
C20000D14300001C00
C60003DC99BB958700
1ADCDC31441148A000
001210000000000000
ENDCHAR
STARTCHAR ecircumflex
ENCODING 234
SWIDTH 490 0
DWIDTH 18 0
BBX 17 36 1 -1
BITMAP
000000ACDB30000000
000003A02DB0000000
00000B300AD3000000
00005900792B000000
0002C104D008600000
001C300CB400B40000
002A00762B002C0000
000B31C00A30870000
0002AC5003CC800000
001341000000000000
09DAAD99CD977AD900
4C0000A82D46530B30
1D0000B30B20000670
0D0000D00A20000580
0C1001D00800000850
0D0002E986ADDCAD10
1D0001D45740013200
5B6640D00000000000
8C7673B20000000000
680000E31248100000
3B0002D9BB98A00000
1D0003A00000C10000
1D0003A00000A30000
2C0002B00000C10000
4A0000D99744B00000
7EDCA4B6469C200000
680011D10000000000
3A0002B01000000000
2B0004EDED75469100
3A0005905958977900
490004A03A00000C00
760002C04900000D00
C20000D14300001C00
C60003DC99BB958700
1ADCDC31441148A000
001210000000000000
ENDCHAR
STARTCHAR edieresis
ENCODING 235
SWIDTH 490 0
DWIDTH 18 0
BBX 17 34 1 -1
BITMAP
000478610057610000
00B9546C1C756C5000
00A300490C00094000
005800660C000C0000
003900760C201C0000
002BCCA204BCC60000
000000000000000000
001341000000000000
09DAAD99CD977AD900
4C0000A82D46530B30
1D0000B30B20000670
0D0000D00A20000580
0C1001D00800000850
0D0002E986ADDCAD10
1D0001D45740013200
5B6640D00000000000
8C7673B20000000000
680000E31248100000
3B0002D9BB98A00000
1D0003A00000C10000
1D0003A00000A30000
2C0002B00000C10000
4A0000D99744B00000
7EDCA4B6469C200000
680011D10000000000
3A0002B01000000000
2B0004EDED75469100
3A0005905958977900
490004A03A00000C00
760002C04900000D00
C20000D14300001C00
C60003DC99BB958700
1ADCDC31441148A000
001210000000000000
ENDCHAR
STARTCHAR igrave
ENCODING 236
SWIDTH 266 0
DWIDTH 10 0
BBX 10 36 -1 -1
BITMAP
007CD80000
09712A0000
1D000C0000
0680093000
00B403A000
002B00B300
000941B300
0002DC5000
0000000000
0000144100
0009DAAD80
004C0000A6
001D0000B3
000D0000D0
000C1001D0
000D0002C0
001D0001D0
005B7751D1
008C7573B2
00680000D0
003B0002B0
001D0003A0
001D0003A0
002C0002B0
00490000D0
007EDCB4B3
00580011D1
003A0002B0
002B0004A0
003A000590
00490004A0
00860002C0
00C20000D1
00B60004D1
0019DCDB30
0000010000
ENDCHAR
STARTCHAR iacute
ENCODING 237
SWIDTH 266 0
DWIDTH 10 0
BBX 10 36 1 -1
BITMAP
000001BA30
00000773C3
00001C002A
00009501A6
0005A00A50
002C107700
003B02B000
0006CD3000
0000000000
0014410000
09DAAD8000
4C0000A600
1D0000B300
0D0000D000
0C1001D000
0D0002C000
1D0001D000
5B7751D100
8C7573B200
680000D000
3B0002B000
1D0003A000
1D0003A000
2C0002B000
490000D000
7EDCB4B300
580011D100
3A0002B000
2B0004A000
3A00059000
490004A000
860002C000
C20000D100
B60004D100
19DCDB3000
0001000000
ENDCHAR
STARTCHAR icircumflex
ENCODING 238
SWIDTH 266 0
DWIDTH 10 0
BBX 12 36 -1 -1
BITMAP
00009CDC4000
0002B01CC000
00094009D400
004A006A2B00
01C103E10770
0B400CA500A5
1B00681C001D
0B40C1084068
019C6002CC90
000014410000
0009DAAD8000
004C0000A600
001D0000B300
000D0000D000
000C1001D000
000D0002C000
001D0001D000
005B7751D100
008C7573B200
00680000D000
003B0002B000
001D0003A000
001D0003A000
002C0002B000
00490000D000
007EDCB4B300
00580011D100
003A0002B000
002B0004A000
003A00059000
00490004A000
00860002C000
00C20000D100
00B60004D100
0019DCDB3000
000001000000
ENDCHAR
STARTCHAR idieresis
ENCODING 239
SWIDTH 266 0
DWIDTH 10 0
BBX 14 34 -2 -1
BITMAP
00588510167510
1C844993C657C2
0C0007539000C1
09400931A002A0
07600B31C10480
04CBC9106CCB30
00000000000000
00000144100000
00009DAAD80000
0004C0000A6000
0001D0000B3000
0000D0000D0000
0000C1001D0000
0000D0002C0000
0001D0001D0000
0005B7751D1000
0008C7573B2000
000680000D0000
0003B0002B0000
0001D0003A0000
0001D0003A0000
0002C0002B0000
000490000D0000
0007EDCB4B3000
000580011D1000
0003A0002B0000
0002B0004A0000
0003A000590000
000490004A0000
000860002C0000
000C20000D1000
000B60004D1000
00019DCDB30000
00000010000000
ENDCHAR
STARTCHAR eth
ENCODING 240
SWIDTH 669 0
DWIDTH 24 0
BBX 26 28 -1 -1
BITMAP
00000000000001100000000000
000000000024BDD40000000000
000000004DCE502C1000000000
00000000D3960006B000000000
0000000094D000008A10000000
0000000076D2000007C2000000
00000000674C7000004D400000
0000000086009A10001DD00000
00000000A4000BB00095790000
00000000E56527E90A600A7000
00000002E866758B610000AA10
06C96421E3610851BA100006D4
3C12589998990B2006C2000086
86000000000D0C10005C1000D2
85000000000C2C10000BA01AD0
58000000000D0B200099ABD6A5
0B8ACCCBA79808502B901410A7
01520001FFFB7595E500002C80
00000000D101279D9C2002C300
00000000C1000BE403B01C3000
00000000B2000D600053A50000
00000000C1000D000008B00000
00000000D0000D0001B8000000
00000001C0000B201C60000000
0000000680000760B600000000
00000006B1001A788000000000
000000006DCCEB4D0000000000
00000000002139A40000000000
ENDCHAR
STARTCHAR ntilde
ENCODING 241
SWIDTH 598 0
DWIDTH 22 0
BBX 20 37 1 -1
BITMAP
00000000000000020000
0000000BCDB300BBC500
0000004902EA02A00B20
000000C200BD29400A40
000007800783BB006900
00004B005C00A602C000
0002C101CB301B294000
0004800843A004BB0000
0000C32B00B109D50000
00002AC3005CCDB00000
00133100000000133000
08DBBDA8200008DBBD70
4C0000AC90003C0000B6
1D0000B5C0001D0000B3
0D0000D0D1000D0000E0
0C1001D086000D1001D0
0D0002C02D100E0002C0
1D0001D008901D0001D0
5B5640D122C35B5640D1
8C8684BDA4878C8684B2
680000D2004B680000D0
3B0002B0000D4B0002C0
1C0003E20007AC0003A0
1D0003EA0000DD0003A0
2C0002BD20003D1002C0
4A0000D76003586000D0
7DCC94B5B6C945EC93B3
680122D1EA1001C022D1
3A0002C06B0000B302C0
2B0004A00B50004A03A0
3A00059003C0000B5490
490004A000C20001D790
770002B00077000097B0
C20000D100490005D0D0
C50003D2002D66AB23D1
1ADBCC3000037AEBCC30
00121000000000021000
ENDCHAR
STARTCHAR ograve
ENCODING 242
SWIDTH 612 0
DWIDTH 22 0
BBX 22 35 0 -1
BITMAP
000000003BCD0000000000
00000003B20B1000000000
0000000950085000000000
00000001C1039000000000
000000005A00C100000000
000000000B305900000000
0000000003A06900000000
0000000000AC9100000000
0001871000000000000000
000A87CDCCDB6215762000
001C0000115B7BDDBFD700
00490000002A00000A7B00
004900000039000007B800
001C00000054000008B600
000BCCCCD95677510C7700
001D3000D58756DCD74900
006B4300D00003A0201D00
00BB89B2D00007DDDC4C20
00940002C00007A0000D00
00850007700002B0000E00
0094000B300000D1000E00
00B2000D100000B2000D10
01D0000D000000A4000A40
05D7520C200000A3000590
06A57A6A400000CABBA3D0
0580001D000000A72013A0
0670006800000067164580
095000A414A988AED8D880
1D1000BDC98C5542005EA0
780000B3000D0000001FD0
88000095000B1000000DB4
0AC769D2000A0000214AB5
00E8750023336ACEFFFE70
008A17BDBAAB8201465100
0008C72000000000000000
ENDCHAR
STARTCHAR oacute
ENCODING 243
SWIDTH 612 0
DWIDTH 22 0
BBX 22 35 0 -1
BITMAP
00000000000006B7000000
0000000000001C17A00000
0000000000008500B20000
000000000002B005B10000
00000000001C204B000000
0000000000A501C1000000
0000000000B30A40000000
00000000002BC900000000
0001871000000000000000
000A87CDCCDB6215762000
001C0000115B7BDDBFD700
00490000002A00000A7B00
004900000039000007B800
001C00000054000008B600
000BCCCCD95677510C7700
001D3000D58756DCD74900
006B4300D00003A0201D00
00BB89B2D00007DDDC4C20
00940002C00007A0000D00
00850007700002B0000E00
0094000B300000D1000E00
00B2000D100000B2000D10
01D0000D000000A4000A40
05D7520C200000A3000590
06A57A6A400000CABBA3D0
0580001D000000A72013A0
0670006800000067164580
095000A414A988AED8D880
1D1000BDC98C5542005EA0
780000B3000D0000001FD0
88000095000B1000000DB4
0AC769D2000A0000214AB5
00E8750023336ACEFFFE70
008A17BDBAAB8201465100
0008C72000000000000000
ENDCHAR
STARTCHAR ocircumflex
ENCODING 244
SWIDTH 612 0
DWIDTH 22 0
BBX 22 36 0 -1
BITMAP
0000000006DCC700000000
000000000C10AF10000000
0000000068005D80000000
00000001C103C1B2000000
0000000B401D403B000000
00000097009A9007800000
000000C003B0B200C20000
000000780A305803B00000
00000008C9000BCA200000
0001871000000000000000
000A87CDCCDB6215762000
001C0000115B7BDDBFD700
00490000002A00000A7B00
004900000039000007B800
001C00000054000008B600
000BCCCCD95677510C7700
001D3000D58756DCD74900
006B4300D00003A0201D00
00BB89B2D00007DDDC4C20
00940002C00007A0000D00
00850007700002B0000E00
0094000B300000D1000E00
00B2000D100000B2000D10
01D0000D000000A4000A40
05D7520C200000A3000590
06A57A6A400000CABBA3D0
0580001D000000A72013A0
0670006800000067164580
095000A414A988AED8D880
1D1000BDC98C5542005EA0
780000B3000D0000001FD0
88000095000B1000000DB4
0AC769D2000A0000214AB5
00E8750023336ACEFFFE70
008A17BDBAAB8201465100
0008C72000000000000000
ENDCHAR
STARTCHAR otilde
ENCODING 245
SWIDTH 612 0
DWIDTH 22 0
BBX 22 37 0 -1
BITMAP
0000000000000000110000
000000006CCC7006CBA000
00000000C10AF10B106800
000000077006D73A004A00
0000002C002C1BB202C100
000001C301D304B00A4000
00000A50099800854A0000
00000C003A0C100DB20000
00000870B206704DB00000
0000007C7001CCDC400000
0001871000000000000000
000A87CDCCDB6215762000
001C0000115B7BDDBFD700
00490000002A00000A7B00
004900000039000007B800
001C00000054000008B600
000BCCCCD95677510C7700
001D3000D58756DCD74900
006B4300D00003A0201D00
00BB89B2D00007DDDC4C20
00940002C00007A0000D00
00850007700002B0000E00
0094000B300000D1000E00
00B2000D100000B2000D10
01D0000D000000A4000A40
05D7520C200000A3000590
06A57A6A400000CABBA3D0
0580001D000000A72013A0
0670006800000067164580
095000A414A988AED8D880
1D1000BDC98C5542005EA0
780000B3000D0000001FD0
88000095000B1000000DB4
0AC769D2000A0000214AB5
00E8750023336ACEFFFE70
008A17BDBAAB8201465100
0008C72000000000000000
ENDCHAR
STARTCHAR odieresis
ENCODING 246
SWIDTH 612 0
DWIDTH 22 0
BBX 22 34 0 -1
BITMAP
0000016885002675000000
00003C744A75B658C10000
00001C0009357000C00000
00000B200C148004800000
000009400C14A007600000
000005CCC8017CCB200000
0000000000000000000000
0001871000000000000000
000A87CDCCDB6215762000
001C0000115B7BDDBFD700
00490000002A00000A7B00
004900000039000007B800
001C00000054000008B600
000BCCCCD95677510C7700
001D3000D58756DCD74900
006B4300D00003A0201D00
00BB89B2D00007DDDC4C20
00940002C00007A0000D00
00850007700002B0000E00
0094000B300000D1000E00
00B2000D100000B2000D10
01D0000D000000A4000A40
05D7520C200000A3000590
06A57A6A400000CABBA3D0
0580001D000000A72013A0
0670006800000067164580
095000A414A988AED8D880
1D1000BDC98C5542005EA0
780000B3000D0000001FD0
88000095000B1000000DB4
0AC769D2000A0000214AB5
00E8750023336ACEFFFE70
008A17BDBAAB8201465100
0008C72000000000000000
ENDCHAR
STARTCHAR divide
ENCODING 247
SWIDTH 457 0
DWIDTH 16 0
BBX 16 22 0 1
BITMAP
0000000010000000
000002ABBC700000
0000077000D10000
0000039000C00000
0000039001C00000
000004B326C00000
00000049A7100000
0042000130000110
07BBDCCCEDBACCC1
1D00000084232086
3A00000066000049
3B00000065000049
1D00000051000086
08A8CCCCABCCDAC1
0065100032000320
00000049A7100000
000007A325D10000
0000048000C00000
0000039001B00000
0000059001D00000
000001ACBC500000
0000000120000000
ENDCHAR
STARTCHAR oslash
ENCODING 248
SWIDTH 612 0
DWIDTH 22 0
BBX 22 28 0 -2
BITMAP
0001871000000000000000
000A87CDCCDB5208B94000
001C0000115B8BEA36E600
00490000002A0094002E10
00490000003901C0000A40
001C000000540950005B00
000BCCCCD9568B0002E800
001D3000D589D1000B7900
006B4300D02D6000571D00
00BB89B2D08ACC10CC4C20
00940002C0C005A4900D00
008500077490001B300E00
0094000A3C200087000E00
00B2000C780004F3000D10
01D0000DC1001CA4000A40
05D7520D300077A3000590
06A57ACF9100C0CABBA3D0
058000C29E3580A72013A0
06700580046A3067174580
09500C10007E88AED8D880
1D10870004DC5542005DA0
7804B0001C2D0000001FD0
883C1000850B1000000DB4
0AE20001C00A0000214AB5
00D1000773336ACEFFFE70
007A000CBAAB8201465100
000AD9BA00000000000000
0000353000000000000000
ENDCHAR
STARTCHAR ugrave
ENCODING 249
SWIDTH 583 0
DWIDTH 21 0
BBX 21 35 0 -1
BITMAP
00000005CCB00000000000
0000006A10C00000000000
000000C200B20000000000
0000003B00660000000000
00000008701C0000000000
00000000C1086000000000
0000000067086000000000
000000000CC70000000000
0000121000000013200000
002BDBDC300019DBBD6000
00690003D300980001E000
003A0000D100670001C000
002B0003A0003B0003A000
003A000670001C00049000
0058000860000D0003B000
0094000850001C0001D000
00E6751870003B4651C200
03E7677680006EA774B300
00D0000A40004A0000D100
00D0000D10001D0000E000
00D0001D00000C1000E000
01D0002B00000B3000C100
04A0002B00000A4000A400
08B6410D00000B30006800
09967A4D00000DBCCA3C00
0750003A00000B51014A00
0760008600000879C26700
094000A338889DC55B7600
0C1000BDBAB541000B9700
3B0000A400D0000008A900
8700007600A20000086D00
2D8436D4009201466D1B30
01DBB8200125CEC7753D20
006904ADDCB922BCBDB300
0008EA4000000000210000
ENDCHAR
STARTCHAR uacute
ENCODING 250
SWIDTH 583 0
DWIDTH 21 0
BBX 21 35 0 -1
BITMAP
000000000001C920000000
00000000000863C2000000
00000000001C0039000000
0000000000A401B5000000
0000000006900B40000000
000000003B008600000000
000000004A03B000000000
0000000007CD2000000000
0000121000000013200000
002BDBDC300019DBBD6000
00690003D300980001E000
003A0000D100670001C000
002B0003A0003B0003A000
003A000670001C00049000
0058000860000D0003B000
0094000850001C0001D000
00E6751870003B4651C200
03E7677680006EA774B300
00D0000A40004A0000D100
00D0000D10001D0000E000
00D0001D00000C1000E000
01D0002B00000B3000C100
04A0002B00000A4000A400
08B6410D00000B30006800
09967A4D00000DBCCA3C00
0750003A00000B51014A00
0760008600000879C26700
094000A338889DC55B7600
0C1000BDBAB541000B9700
3B0000A400D0000008A900
8700007600A20000086D00
2D8436D4009201466D1B30
01DBB8200125CEC7753D20
006904ADDCB922BCBDB300
0008EA4000000000210000
ENDCHAR
STARTCHAR ucircumflex
ENCODING 251
SWIDTH 583 0
DWIDTH 21 0
BBX 21 36 0 -1
BITMAP
00000000ACDC4000000000
00000002B01DC000000000
0000000A4009D400000000
0000004A006A2B00000000
000001C103E00770000000
00001C300CA500B4000000
00001B00671C001C000000
00000B40C1094078000000
000001AC6002CC80000000
0000121000000013200000
002BDBDC300019DBBD6000
00690003D300980001E000
003A0000D100670001C000
002B0003A0003B0003A000
003A000670001C00049000
0058000860000D0003B000
0094000850001C0001D000
00E6751870003B4651C200
03E7677680006EA774B300
00D0000A40004A0000D100
00D0000D10001D0000E000
00D0001D00000C1000E000
01D0002B00000B3000C100
04A0002B00000A4000A400
08B6410D00000B30006800
09967A4D00000DBCCA3C00
0750003A00000B51014A00
0760008600000879C26700
094000A338889DC55B7600
0C1000BDBAB541000B9700
3B0000A400D0000008A900
8700007600A20000086D00
2D8436D4009201466D1B30
01DBB8200125CEC7753D20
006904ADDCB922BCBDB300
0008EA4000000000210000
ENDCHAR
STARTCHAR udieresis
ENCODING 252
SWIDTH 583 0
DWIDTH 21 0
BBX 21 34 0 -1
BITMAP
0000037862005762000000
0000AA546D0C856B600000
000094003A0C0008500000
00004900580C000C000000
00002A00670C200C000000
00001BCBB204BCC7000000
0000000000000000000000
0000121000000013200000
002BDBDC300019DBBD6000
00690003D300980001E000
003A0000D100670001C000
002B0003A0003B0003A000
003A000670001C00049000
0058000860000D0003B000
0094000850001C0001D000
00E6751870003B4651C200
03E7677680006EA774B300
00D0000A40004A0000D100
00D0000D10001D0000E000
00D0001D00000C1000E000
01D0002B00000B3000C100
04A0002B00000A4000A400
08B6410D00000B30006800
09967A4D00000DBCCA3C00
0750003A00000B51014A00
0760008600000879C26700
094000A338889DC55B7600
0C1000BDBAB541000B9700
3B0000A400D0000008A900
8700007600A20000086D00
2D8436D4009201466D1B30
01DBB8200125CEC7753D20
006904ADDCB922BCBDB300
0008EA4000000000210000
ENDCHAR
STARTCHAR yacute
ENCODING 253
SWIDTH 484 0
DWIDTH 17 0
BBX 20 33 -1 0
BITMAP
000000000007B6000000
00000000002C18900000
00000000009400B10000
0000000003B006B10000
000000001C205A000000
00000000B402C1000000
00000000C30B30000000
000000002BC800000000
00045200000004885000
03CB9C0000000D55AC20
1C300B3000001C0005C1
850004B00000680000B5
B50000970000C30005B0
1C60001C6005A0001D10
01C40001B62D20007800
002D10272CCD7100C200
000875B407E47C61C000
0001EC0003B000559000
000099000870001D2000
000009700C2000870000
000000B45A0001D00000
0000002DD20007700000
00000009E8100B200000
0000000C36B70D000000
0000001D00054C000000
000000780001C3000000
000001D2000880000000
00000880001D10000000
00005C00006800000000
0000A40000A300000000
00004C1000D100000000
000006D867D000000000
00000016872000000000
ENDCHAR
STARTCHAR thorn
ENCODING 254
SWIDTH 520 0
DWIDTH 19 0
BBX 18 26 1 -1
BITMAP
03ADCA300000000000
3D4115C40000000000
2C0046A40000000000
0D09C9F30000000000
0C6B004CB620000000
0DB4000038CD200000
0DC10000006AC81000
3BA30000009517CB95
8FDDA83001C000024C
770136FC433000000D
3A0002C3CA7400002C
2C0003A0047CD60097
1D0004A0004C48B8F3
1C0003A029B2004786
3B0001C6E5000006D4
6B8751CB9C1002B810
6B5575C207803C3000
490001D00082C20000
3B0003A0004C300000
3B0005901AB2000000
49000492C600000000
680003CC3000000000
A40000E30000000000
D20000D20000000000
4D878D800000000000
015762000000000000
ENDCHAR
STARTCHAR ydieresis
ENCODING 255
SWIDTH 484 0
DWIDTH 17 0
BBX 20 32 -1 0
BITMAP
00001687400377400000
0004C644C47A559B0000
0003A000B175002B0000
0000C000C06600660000
0000B101D06800940000
00007CCC6018CCA10000
00000000000000000000
00045200000004885000
03CB9C0000000D55AC20
1C300B3000001C0005C1
850004B00000680000B5
B50000970000C30005B0
1C60001C6005A0001D10
01C40001B62D20007800
002D10272CCD7100C200
000875B407E47C61C000
0001EC0003B000559000
000099000870001D2000
000009700C2000870000
000000B45A0001D00000
0000002DD20007700000
00000009E8100B200000
0000000C36B70D000000
0000001D00054C000000
000000780001C3000000
000001D2000880000000
00000880001D10000000
00005C00006800000000
0000A40000A300000000
00004C1000D100000000
000006D867D000000000
00000016872000000000
ENDCHAR
STARTCHAR Amacron
ENCODING 256
SWIDTH 507 0
DWIDTH 18 0
BBX 20 31 -1 0
BITMAP
0000007A876689100000
000004A2456546900000
00000940000000C00000
00000773454303B00000
00000099878ACC200000
00000001200000000000
000001BDCE9100000000
000003B0007C10000000
000003A0000B95100000
00000590003C5B500000
00000860009508500000
00000C2000D107600000
00003B0001D005900000
0000BC9512C001D00000
0000E447B2B000B30000
0000D00006C0245A0000
0000E0000CEC961D0000
0001C0002C96000D0000
00059000683B000D0000
00094000860D100A7C70
001E4100956CA8BD92B4
004DACB48E9E6530003A
00590014B40A3000000C
00680003C0066000000C
00950008500560036789
00D1000C10013ADA8E71
04B0000EACDDCA000B30
0B30001D41003A0005A0
1D00001C00002B0000D3
07B3004D00001D224AB1
005BDDA2000018CC9400
ENDCHAR
STARTCHAR amacron
ENCODING 257
SWIDTH 507 0
DWIDTH 18 0
BBX 20 31 -1 0
BITMAP
0000007A876689100000
000004A2456546900000
00000940000000C00000
00000773454303B00000
00000099878ACC200000
00000001200000000000
000001BDCE9100000000
000003B0007C10000000
000003A0000B95100000
00000590003C5B500000
00000860009508500000
00000C2000D107600000
00003B0001D005900000
0000BC9512C001D00000
0000E447B2B000B30000
0000D00006C0245A0000
0000E0000CEC961D0000
0001C0002C96000D0000
00059000683B000D0000
00094000860D100A7C70
001E4100956CA8BD92B4
004DACB48E9E6530003A
00590014B40A3000000C
00680003C0066000000C
00950008500560036789
00D1000C10013ADA8E71
04B0000EACDDCA000B30
0B30001D41003A0005A0
1D00001C00002B0000D3
07B3004D00001D224AB1
005BDDA2000018CC9400
ENDCHAR
STARTCHAR Abreve
ENCODING 258
SWIDTH 507 0
DWIDTH 18 0
BBX 20 35 -1 0
BITMAP
00000487200056300000
00009A56B006A6A80000
0000A301B007500D1000
00004800B00A20580000
00001C00B44D72B20000
00000D009A876AC00000
00000C1095000EA00000
000009CCC3201E400000
0000001999ACD5000000
00000001200000000000
000001BDCE9100000000
000003B0007C10000000
000003A0000B95100000
00000590003C5B500000
00000860009508500000
00000C2000D107600000
00003B0001D005900000
0000BC9512C001D00000
0000E447B2B000B30000
0000D00006C0245A0000
0000E0000CEC961D0000
0001C0002C96000D0000
00059000683B000D0000
00094000860D100A7C70
001E4100956CA8BD92B4
004DACB48E9E6530003A
00590014B40A3000000C
00680003C0066000000C
00950008500560036789
00D1000C10013ADA8E71
04B0000EACDDCA000B30
0B30001D41003A0005A0
1D00001C00002B0000D3
07B3004D00001D224AB1
005BDDA2000018CC9400
ENDCHAR
STARTCHAR abreve
ENCODING 259
SWIDTH 507 0
DWIDTH 18 0
BBX 20 35 -1 0
BITMAP
00000487200056300000
00009A56B006A6A80000
0000A301B007500D1000
00004800B00A20580000
00001C00B44D72B20000
00000D009A876AC00000
00000C1095000EA00000
000009CCC3201E400000
0000001999ACD5000000
00000001200000000000
000001BDCE9100000000
000003B0007C10000000
000003A0000B95100000
00000590003C5B500000
00000860009508500000
00000C2000D107600000
00003B0001D005900000
0000BC9512C001D00000
0000E447B2B000B30000
0000D00006C0245A0000
0000E0000CEC961D0000
0001C0002C96000D0000
00059000683B000D0000
00094000860D100A7C70
001E4100956CA8BD92B4
004DACB48E9E6530003A
00590014B40A3000000C
00680003C0066000000C
00950008500560036789
00D1000C10013ADA8E71
04B0000EACDDCA000B30
0B30001D41003A0005A0
1D00001C00002B0000D3
07B3004D00001D224AB1
005BDDA2000018CC9400
ENDCHAR
STARTCHAR Aogonek
ENCODING 260
SWIDTH 507 0
DWIDTH 18 0
BBX 21 34 -1 -8
BITMAP
0000000120000000000000
000001BDCE910000000000
000003B0007C1000000000
000003A0000B9510000000
00000590003C5B50000000
0000086000950850000000
00000C2000D10760000000
00003B0001D00590000000
0000BC9512C001D0000000
0000E447B2B000B3000000
0000D00006C0245A000000
0000E0000CEC961D000000
0001C0002C96000D000000
00059000683B000D000000
00094000860D100A7C7000
001E4100956CA8BD92B400
004DACB48E9E6530003A00
00590014B40A3000000C00
00680003C0066000000C00
0095000850056003678900
00D1000C10013ADA8E7100
04B0000EACDDCA000B3000
0B30001D41003A0005A000
1D00001C00002B0000D300
07B3004D00001D224AB100
005BDDA200001BDCAD1000
0000000000000C10750000
0000000000007600D00000
000000000000A604DA1000
0000000000001EDB25C600
00000000000005D4001B30
000000000000002B600C10
0000000000000000B7A600
0000000000000000184000
ENDCHAR
STARTCHAR aogonek
ENCODING 261
SWIDTH 507 0
DWIDTH 18 0
BBX 21 34 -1 -8
BITMAP
0000000120000000000000
000001BDCE910000000000
000003B0007C1000000000
000003A0000B9510000000
00000590003C5B50000000
0000086000950850000000
00000C2000D10760000000
00003B0001D00590000000
0000BC9512C001D0000000
0000E447B2B000B3000000
0000D00006C0245A000000
0000E0000CEC961D000000
0001C0002C96000D000000
00059000683B000D000000
00094000860D100A7C7000
001E4100956CA8BD92B400
004DACB48E9E6530003A00
00590014B40A3000000C00
00680003C0066000000C00
0095000850056003678900
00D1000C10013ADA8E7100
04B0000EACDDCA000B3000
0B30001D41003A0005A000
1D00001C00002B0000D300
07B3004D00001D224AB100
005BDDA200001BDCAD1000
0000000000000C10750000
0000000000007600D00000
000000000000A604DA1000
0000000000001EDB25C600
00000000000005D4001B30
000000000000002B600C10
0000000000000000B7A600
0000000000000000184000
ENDCHAR
STARTCHAR Cacute
ENCODING 262
SWIDTH 515 0
DWIDTH 19 0
BBX 19 35 0 -1
BITMAP
0000000000007B600000
000000000001C1890000
000000000009500B1000
00000000003B005B1000
0000000001C205B00000
000000000B502C100000
000000000B30B3000000
0000000002BC80000000
00018710000000000000
000A87CDCCDB62013200
001C0000115B7BDDBC00
00490000002A00000A40
00490000003900000760
001C0000005400000840
000BCCCCD95677510C10
001D3000D587568CD700
006B4300D00000002000
00BB89B2D00000000000
00940002C00000000000
00850007700000000000
0094000B300000000000
00B2000D100000000000
01D0000D000000000000
05D7520C200000000000
06A57A6A400000000000
0580001D000000000000
06700067000000037100
095000A438A88ACB8B00
1D1000BDB6E554100B40
780000B3009400000670
88000095006500000670
0AC769D2006400121A40
00E875013335ADCBCA00
008A27CDBAA930000000
0008C720000000000000
ENDCHAR
STARTCHAR cacute
ENCODING 263
SWIDTH 515 0
DWIDTH 19 0
BBX 19 35 0 -1
BITMAP
0000000000007B600000
000000000001C1890000
000000000009500B1000
00000000003B005B1000
0000000001C205B00000
000000000B502C100000
000000000B30B3000000
0000000002BC80000000
00018710000000000000
000A87CDCCDB62013200
001C0000115B7BDDBC00
00490000002A00000A40
00490000003900000760
001C0000005400000840
000BCCCCD95677510C10
001D3000D587568CD700
006B4300D00000002000
00BB89B2D00000000000
00940002C00000000000
00850007700000000000
0094000B300000000000
00B2000D100000000000
01D0000D000000000000
05D7520C200000000000
06A57A6A400000000000
0580001D000000000000
06700067000000037100
095000A438A88ACB8B00
1D1000BDB6E554100B40
780000B3009400000670
88000095006500000670
0AC769D2006400121A40
00E875013335ADCBCA00
008A27CDBAA930000000
0008C720000000000000
ENDCHAR
STARTCHAR Ccircumflex
ENCODING 264
SWIDTH 515 0
DWIDTH 19 0
BBX 19 36 0 -1
BITMAP
000000000ACDC4000000
000000002B01DC000000
00000000A400AD400000
00000004A006A2B00000
0000002C103E00870000
000001C300CA400B4000
000002A00772B001C000
000000B40C0094078000
0000001AC6003CC80000
00018710000000000000
000A87CDCCDB62013200
001C0000115B7BDDBC00
00490000002A00000A40
00490000003900000760
001C0000005400000840
000BCCCCD95677510C10
001D3000D587568CD700
006B4300D00000002000
00BB89B2D00000000000
00940002C00000000000
00850007700000000000
0094000B300000000000
00B2000D100000000000
01D0000D000000000000
05D7520C200000000000
06A57A6A400000000000
0580001D000000000000
06700067000000037100
095000A438A88ACB8B00
1D1000BDB6E554100B40
780000B3009400000670
88000095006500000670
0AC769D2006400121A40
00E875013335ADCBCA00
008A27CDBAA930000000
0008C720000000000000
ENDCHAR
STARTCHAR ccircumflex
ENCODING 265
SWIDTH 515 0
DWIDTH 19 0
BBX 19 36 0 -1
BITMAP
000000000ACDC4000000
000000002B01DC000000
00000000A400AD400000
00000004A006A2B00000
0000002C103E00870000
000001C300CA400B4000
000002A00772B001C000
000000B40C0094078000
0000001AC6003CC80000
00018710000000000000
000A87CDCCDB62013200
001C0000115B7BDDBC00
00490000002A00000A40
00490000003900000760
001C0000005400000840
000BCCCCD95677510C10
001D3000D587568CD700
006B4300D00000002000
00BB89B2D00000000000
00940002C00000000000
00850007700000000000
0094000B300000000000
00B2000D100000000000
01D0000D000000000000
05D7520C200000000000
06A57A6A400000000000
0580001D000000000000
06700067000000037100
095000A438A88ACB8B00
1D1000BDB6E554100B40
780000B3009400000670
88000095006500000670
0AC769D2006400121A40
00E875013335ADCBCA00
008A27CDBAA930000000
0008C720000000000000
ENDCHAR
STARTCHAR Cdotaccent
ENCODING 266
SWIDTH 515 0
DWIDTH 19 0
BBX 19 33 0 -1
BITMAP
00000000047861000000
00000000B9546C000000
00000000A30049000000
00000000580067000000
00000000390076000000
000000002BCBB2000000
00018710000000000000
000A87CDCCDB62013200
001C0000115B7BDDBC00
00490000002A00000A40
00490000003900000760
001C0000005400000840
000BCCCCD95677510C10
001D3000D587568CD700
006B4300D00000002000
00BB89B2D00000000000
00940002C00000000000
00850007700000000000
0094000B300000000000
00B2000D100000000000
01D0000D000000000000
05D7520C200000000000
06A57A6A400000000000
0580001D000000000000
06700067000000037100
095000A438A88ACB8B00
1D1000BDB6E554100B40
780000B3009400000670
88000095006500000670
0AC769D2006400121A40
00E875013335ADCBCA00
008A27CDBAA930000000
0008C720000000000000
ENDCHAR
STARTCHAR cdotaccent
ENCODING 267
SWIDTH 515 0
DWIDTH 19 0
BBX 19 33 0 -1
BITMAP
00000000047861000000
00000000B9546C000000
00000000A30049000000
00000000580067000000
00000000390076000000
000000002BCBB2000000
00018710000000000000
000A87CDCCDB62013200
001C0000115B7BDDBC00
00490000002A00000A40
00490000003900000760
001C0000005400000840
000BCCCCD95677510C10
001D3000D587568CD700
006B4300D00000002000
00BB89B2D00000000000
00940002C00000000000
00850007700000000000
0094000B300000000000
00B2000D100000000000
01D0000D000000000000
05D7520C200000000000
06A57A6A400000000000
0580001D000000000000
06700067000000037100
095000A438A88ACB8B00
1D1000BDB6E554100B40
780000B3009400000670
88000095006500000670
0AC769D2006400121A40
00E875013335ADCBCA00
008A27CDBAA930000000
0008C720000000000000
ENDCHAR
STARTCHAR Ccaron
ENCODING 268
SWIDTH 515 0
DWIDTH 19 0
BBX 19 37 0 -1
BITMAP
00000002300003300000
000000AA9C007AAB1000
000004900930C1058000
000002C1029580059000
0000006900BC102B1000
0000000C202A01C20000
00000004900768600000
00000000C101DC000000
00000000873BD6000000
0000000019AA80000000
00018710000000000000
000A87CDCCDB62013200
001C0000115B7BDDBC00
00490000002A00000A40
00490000003900000760
001C0000005400000840
000BCCCCD95677510C10
001D3000D587568CD700
006B4300D00000002000
00BB89B2D00000000000
00940002C00000000000
00850007700000000000
0094000B300000000000
00B2000D100000000000
01D0000D000000000000
05D7520C200000000000
06A57A6A400000000000
0580001D000000000000
06700067000000037100
095000A438A88ACB8B00
1D1000BDB6E554100B40
780000B3009400000670
88000095006500000670
0AC769D2006400121A40
00E875013335ADCBCA00
008A27CDBAA930000000
0008C720000000000000
ENDCHAR
STARTCHAR ccaron
ENCODING 269
SWIDTH 515 0
DWIDTH 19 0
BBX 19 37 0 -1
BITMAP
00000002300003300000
000000AA9C007AAB1000
000004900930C1058000
000002C1029580059000
0000006900BC102B1000
0000000C202A01C20000
00000004900768600000
00000000C101DC000000
00000000873BD6000000
0000000019AA80000000
00018710000000000000
000A87CDCCDB62013200
001C0000115B7BDDBC00
00490000002A00000A40
00490000003900000760
001C0000005400000840
000BCCCCD95677510C10
001D3000D587568CD700
006B4300D00000002000
00BB89B2D00000000000
00940002C00000000000
00850007700000000000
0094000B300000000000
00B2000D100000000000
01D0000D000000000000
05D7520C200000000000
06A57A6A400000000000
0580001D000000000000
06700067000000037100
095000A438A88ACB8B00
1D1000BDB6E554100B40
780000B3009400000670
88000095006500000670
0AC769D2006400121A40
00E875013335ADCBCA00
008A27CDBAA930000000
0008C720000000000000
ENDCHAR
STARTCHAR Dcaron
ENCODING 270
SWIDTH 520 0
DWIDTH 19 0
BBX 19 38 1 -1
BITMAP
00002410002300000000
0008B9D104C9C2000000
002B00650A203B000000
001C201B3A003C000000
0003B008D201B2000000
00009501C00A40000000
00002B00595900000000
00000A300DC100000000
000005929D8000000000
0000008A991000000000
00000010000000000000
00136DCC000000000000
09DEC108700000000000
4C1D1000B50000000000
1D5900001C5000000000
0D6A000001C800000000
0C28C3000009C1000000
0D002D500006E8000000
1D0002F5002C1C300000
5B6640DD33B202D30000
8C7673B5C200003D5000
680000D04D600001AB00
3B0002B001A800000D00
1D0003A0000A80005A00
1D0003A00003F403E700
2C0002B0002D5DBC4D00
4A0000D005D403302E10
7EDCA4B3AC200006C400
680011C9AB80007B1000
3A0002FC007706B00000
2B0004D200082D100000
3A0005900002C5000000
490004A0004D40000000
760002C005C200000000
C20000D13D1000000000
C60003D2D30000000000
1ADCDF68800000000000
001215A9100000000000
ENDCHAR
STARTCHAR dcaron
ENCODING 271
SWIDTH 520 0
DWIDTH 19 0
BBX 19 38 1 -1
BITMAP
00002410002300000000
0008B9D104C9C2000000
002B00650A203B000000
001C201B3A003C000000
0003B008D201B2000000
00009501C00A40000000
00002B00595900000000
00000A300DC100000000
000005929D8000000000
0000008A991000000000
00000010000000000000
00136DCC000000000000
09DEC108700000000000
4C1D1000B50000000000
1D5900001C5000000000
0D6A000001C800000000
0C28C3000009C1000000
0D002D500006E8000000
1D0002F5002C1C300000
5B6640DD33B202D30000
8C7673B5C200003D5000
680000D04D600001AB00
3B0002B001A800000D00
1D0003A0000A80005A00
1D0003A00003F403E700
2C0002B0002D5DBC4D00
4A0000D005D403302E10
7EDCA4B3AC200006C400
680011C9AB80007B1000
3A0002FC007706B00000
2B0004D200082D100000
3A0005900002C5000000
490004A0004D40000000
760002C005C200000000
C20000D13D1000000000
C60003D2D30000000000
1ADCDF68800000000000
001215A9100000000000
ENDCHAR
STARTCHAR Dcroat
ENCODING 272
SWIDTH 669 0
DWIDTH 24 0
BBX 26 28 -1 -1
BITMAP
00000000000001100000000000
000000000024BDD40000000000
000000004DCE502C1000000000
00000000D3960006B000000000
0000000094D000008A10000000
0000000076D2000007C2000000
00000000674C7000004D400000
0000000086009A10001DD00000
00000000A4000BB00095790000
00000000E56527E90A600A7000
00000002E866758B610000AA10
06C96421E3610851BA100006D4
3C12589998990B2006C2000086
86000000000D0C10005C1000D2
85000000000C2C10000BA01AD0
58000000000D0B200099ABD6A5
0B8ACCCBA79808502B901410A7
01520001FFFB7595E500002C80
00000000D101279D9C2002C300
00000000C1000BE403B01C3000
00000000B2000D600053A50000
00000000C1000D000008B00000
00000000D0000D0001B8000000
00000001C0000B201C60000000
0000000680000760B600000000
00000006B1001A788000000000
000000006DCCEB4D0000000000
00000000002139A40000000000
ENDCHAR
STARTCHAR dcroat
ENCODING 273
SWIDTH 669 0
DWIDTH 24 0
BBX 26 28 -1 -1
BITMAP
00000000000001100000000000
000000000024BDD40000000000
000000004DCE502C1000000000
00000000D3960006B000000000
0000000094D000008A10000000
0000000076D2000007C2000000
00000000674C7000004D400000
0000000086009A10001DD00000
00000000A4000BB00095790000
00000000E56527E90A600A7000
00000002E866758B610000AA10
06C96421E3610851BA100006D4
3C12589998990B2006C2000086
86000000000D0C10005C1000D2
85000000000C2C10000BA01AD0
58000000000D0B200099ABD6A5
0B8ACCCBA79808502B901410A7
01520001FFFB7595E500002C80
00000000D101279D9C2002C300
00000000C1000BE403B01C3000
00000000B2000D600053A50000
00000000C1000D000008B00000
00000000D0000D0001B8000000
00000001C0000B201C60000000
0000000680000760B600000000
00000006B1001A788000000000
000000006DCCEB4D0000000000
00000000002139A40000000000
ENDCHAR
STARTCHAR Emacron
ENCODING 274
SWIDTH 490 0
DWIDTH 18 0
BBX 17 33 1 -1
BITMAP
00009A876788000000
000782456538600000
000B10000002A00000
000953454205800000
0001A9888ACB100000
000000000000000000
001341000000000000
09DAAD99CD977AD900
4C0000A82D46530B30
1D0000B30B20000670
0D0000D00A20000580
0C1001D00800000850
0D0002E986ADDCAD10
1D0001D45740013200
5B6640D00000000000
8C7673B20000000000
680000E31248100000
3B0002D9BB98A00000
1D0003A00000C10000
1D0003A00000A30000
2C0002B00000C10000
4A0000D99744B00000
7EDCA4B6469C200000
680011D10000000000
3A0002B01000000000
2B0004EDED75469100
3A0005905958977900
490004A03A00000C00
760002C04900000D00
C20000D14300001C00
C60003DC99BB958700
1ADCDC31441148A000
001210000000000000
ENDCHAR
STARTCHAR emacron
ENCODING 275
SWIDTH 490 0
DWIDTH 18 0
BBX 17 33 1 -1
BITMAP
00009A876788000000
000782456538600000
000B10000002A00000
000953454205800000
0001A9888ACB100000
000000000000000000
001341000000000000
09DAAD99CD977AD900
4C0000A82D46530B30
1D0000B30B20000670
0D0000D00A20000580
0C1001D00800000850
0D0002E986ADDCAD10
1D0001D45740013200
5B6640D00000000000
8C7673B20000000000
680000E31248100000
3B0002D9BB98A00000
1D0003A00000C10000
1D0003A00000A30000
2C0002B00000C10000
4A0000D99744B00000
7EDCA4B6469C200000
680011D10000000000
3A0002B01000000000
2B0004EDED75469100
3A0005905958977900
490004A03A00000C00
760002C04900000D00
C20000D14300001C00
C60003DC99BB958700
1ADCDC31441148A000
001210000000000000
ENDCHAR
STARTCHAR Ebreve
ENCODING 276
SWIDTH 490 0
DWIDTH 18 0
BBX 17 36 1 -1
BITMAP
000168500026510000
002D74B300C57C2000
002B008400C0067000
000B107402A00B1000
0008505948A63A0000
0006701D875B960000
0004802C0007F20000
0002DBD73209B00000
000005A99ACC000000
001341000000000000
09DAAD99CD977AD900
4C0000A82D46530B30
1D0000B30B20000670
0D0000D00A20000580
0C1001D00800000850
0D0002E986ADDCAD10
1D0001D45740013200
5B6640D00000000000
8C7673B20000000000
680000E31248100000
3B0002D9BB98A00000
1D0003A00000C10000
1D0003A00000A30000
2C0002B00000C10000
4A0000D99744B00000
7EDCA4B6469C200000
680011D10000000000
3A0002B01000000000
2B0004EDED75469100
3A0005905958977900
490004A03A00000C00
760002C04900000D00
C20000D14300001C00
C60003DC99BB958700
1ADCDC31441148A000
001210000000000000
ENDCHAR
STARTCHAR ebreve
ENCODING 277
SWIDTH 490 0
DWIDTH 18 0
BBX 17 36 1 -1
BITMAP
000168500026510000
002D74B300C57C2000
002B008400C0067000
000B107402A00B1000
0008505948A63A0000
0006701D875B960000
0004802C0007F20000
0002DBD73209B00000
000005A99ACC000000
001341000000000000
09DAAD99CD977AD900
4C0000A82D46530B30
1D0000B30B20000670
0D0000D00A20000580
0C1001D00800000850
0D0002E986ADDCAD10
1D0001D45740013200
5B6640D00000000000
8C7673B20000000000
680000E31248100000
3B0002D9BB98A00000
1D0003A00000C10000
1D0003A00000A30000
2C0002B00000C10000
4A0000D99744B00000
7EDCA4B6469C200000
680011D10000000000
3A0002B01000000000
2B0004EDED75469100
3A0005905958977900
490004A03A00000C00
760002C04900000D00
C20000D14300001C00
C60003DC99BB958700
1ADCDC31441148A000
001210000000000000
ENDCHAR
STARTCHAR Edotaccent
ENCODING 278
SWIDTH 490 0
DWIDTH 18 0
BBX 17 34 1 -1
BITMAP
000000588610000000
00001C8548A0000000
00000C100660000000
000007500840000000
000005700940000000
000003CBC910000000
000000000000000000
001341000000000000
09DAAD99CD977AD900
4C0000A82D46530B30
1D0000B30B20000670
0D0000D00A20000580
0C1001D00800000850
0D0002E986ADDCAD10
1D0001D45740013200
5B6640D00000000000
8C7673B20000000000
680000E31248100000
3B0002D9BB98A00000
1D0003A00000C10000
1D0003A00000A30000
2C0002B00000C10000
4A0000D99744B00000
7EDCA4B6469C200000
680011D10000000000
3A0002B01000000000
2B0004EDED75469100
3A0005905958977900
490004A03A00000C00
760002C04900000D00
C20000D14300001C00
C60003DC99BB958700
1ADCDC31441148A000
001210000000000000
ENDCHAR
STARTCHAR edotaccent
ENCODING 279
SWIDTH 490 0
DWIDTH 18 0
BBX 17 34 1 -1
BITMAP
000000588610000000
00001C8548A0000000
00000C100660000000
000007500840000000
000005700940000000
000003CBC910000000
000000000000000000
001341000000000000
09DAAD99CD977AD900
4C0000A82D46530B30
1D0000B30B20000670
0D0000D00A20000580
0C1001D00800000850
0D0002E986ADDCAD10
1D0001D45740013200
5B6640D00000000000
8C7673B20000000000
680000E31248100000
3B0002D9BB98A00000
1D0003A00000C10000
1D0003A00000A30000
2C0002B00000C10000
4A0000D99744B00000
7EDCA4B6469C200000
680011D10000000000
3A0002B01000000000
2B0004EDED75469100
3A0005905958977900
490004A03A00000C00
760002C04900000D00
C20000D14300001C00
C60003DC99BB958700
1ADCDC31441148A000
001210000000000000
ENDCHAR
STARTCHAR Eogonek
ENCODING 280
SWIDTH 490 0
DWIDTH 18 0
BBX 17 34 1 -8
BITMAP
001341000000000000
09DAAD99CD977AD900
4C0000A82D46530B30
1D0000B30B20000670
0D0000D00A20000580
0C1001D00800000850
0D0002E986ADDCAD10
1D0001D45740013200
5B6640D00000000000
8C7673B20000000000
680000E31248100000
3B0002D9BB98A00000
1D0003A00000C10000
1D0003A00000A30000
2C0002B00000C10000
4A0000D99744B00000
7EDCA4B6469C200000
680011D10000000000
3A0002B01000000000
2B0004EDED75469100
3A0005905958977900
490004A03A00000C00
760002C04900000D00
C20000D14300001C00
C60003DC99BB958700
1ADCDC314C416DA000
001210001C00A30000
00000000A401C00000
00000000A506CA1000
000000001FDA15C600
0000000005D4001C10
00000000002B501C00
000000000000B7B400
000000000000172000
ENDCHAR
STARTCHAR eogonek
ENCODING 281
SWIDTH 490 0
DWIDTH 18 0
BBX 17 34 1 -8
BITMAP
001341000000000000
09DAAD99CD977AD900
4C0000A82D46530B30
1D0000B30B20000670
0D0000D00A20000580
0C1001D00800000850
0D0002E986ADDCAD10
1D0001D45740013200
5B6640D00000000000
8C7673B20000000000
680000E31248100000
3B0002D9BB98A00000
1D0003A00000C10000
1D0003A00000A30000
2C0002B00000C10000
4A0000D99744B00000
7EDCA4B6469C200000
680011D10000000000
3A0002B01000000000
2B0004EDED75469100
3A0005905958977900
490004A03A00000C00
760002C04900000D00
C20000D14300001C00
C60003DC99BB958700
1ADCDC314C416DA000
001210001C00A30000
00000000A401C00000
00000000A506CA1000
000000001FDA15C600
0000000005D4001C10
00000000002B501C00
000000000000B7B400
000000000000172000
ENDCHAR
STARTCHAR Ecaron
ENCODING 282
SWIDTH 490 0
DWIDTH 18 0
BBX 17 37 1 -1
BITMAP
000013200013100000
0003C9B600C9C60000
000B201B04800B2000
000770093B200B3000
0000C202D800870000
00003B008504A00000
00000B301B2C100000
0000049007D6000000
000000C35DD0000000
0000005A9A50000000
001341000000000000
09DAAD99CD977AD900
4C0000A82D46530B30
1D0000B30B20000670
0D0000D00A20000580
0C1001D00800000850
0D0002E986ADDCAD10
1D0001D45740013200
5B6640D00000000000
8C7673B20000000000
680000E31248100000
3B0002D9BB98A00000
1D0003A00000C10000
1D0003A00000A30000
2C0002B00000C10000
4A0000D99744B00000
7EDCA4B6469C200000
680011D10000000000
3A0002B01000000000
2B0004EDED75469100
3A0005905958977900
490004A03A00000C00
760002C04900000D00
C20000D14300001C00
C60003DC99BB958700
1ADCDC31441148A000
001210000000000000
ENDCHAR
STARTCHAR ecaron
ENCODING 283
SWIDTH 490 0
DWIDTH 18 0
BBX 17 37 1 -1
BITMAP
000013200013100000
0003C9B600C9C60000
000B201B04800B2000
000770093B200B3000
0000C202D800870000
00003B008504A00000
00000B301B2C100000
0000049007D6000000
000000C35DD0000000
0000005A9A50000000
001341000000000000
09DAAD99CD977AD900
4C0000A82D46530B30
1D0000B30B20000670
0D0000D00A20000580
0C1001D00800000850
0D0002E986ADDCAD10
1D0001D45740013200
5B6640D00000000000
8C7673B20000000000
680000E31248100000
3B0002D9BB98A00000
1D0003A00000C10000
1D0003A00000A30000
2C0002B00000C10000
4A0000D99744B00000
7EDCA4B6469C200000
680011D10000000000
3A0002B01000000000
2B0004EDED75469100
3A0005905958977900
490004A03A00000C00
760002C04900000D00
C20000D14300001C00
C60003DC99BB958700
1ADCDC31441148A000
001210000000000000
ENDCHAR
STARTCHAR Gcircumflex
ENCODING 284
SWIDTH 557 0
DWIDTH 20 0
BBX 20 36 0 -1
BITMAP
000000002DCDA0000000
000000008505F5000000
00000002C001EC000000
0000000A400B47600000
00000068009801C20000
000004B004BC003C1000
000008400C2760076000
000003B15801C01C2000
0000005CB1007CC40000
00018710000000000000
000A87CDCCDB62013200
001C0000115B7BDDBC00
00490000002A00000A40
00490000003900000760
001C0000005400000840
000BCCCCD95677510C10
001D3000D587568CD700
006B4300D00000002000
00BB89B2D00000000000
00940002C00000000000
008500077000039CC920
0094000B30005C4005D0
00B2000D1000590001B0
01D0000D00000D000390
05D7520C20000C000390
06A57A6A40000C0001C0
0580001D00000C4662C2
0670006700003E9653B2
095000A438A88C0000D0
1D1000BDB6E56D0000D0
780000B300940B2000C1
8800009500650B200095
0AC769D200640D00004A
00E875013335AE3002B6
008A27CDBAA934BCDC50
0008C720000000000000
ENDCHAR
STARTCHAR gcircumflex
ENCODING 285
SWIDTH 557 0
DWIDTH 20 0
BBX 20 36 0 -1
BITMAP
000000002DCDA0000000
000000008505F5000000
00000002C001EC000000
0000000A400B47600000
00000068009801C20000
000004B004BC003C1000
000008400C2760076000
000003B15801C01C2000
0000005CB1007CC40000
00018710000000000000
000A87CDCCDB62013200
001C0000115B7BDDBC00
00490000002A00000A40
00490000003900000760
001C0000005400000840
000BCCCCD95677510C10
001D3000D587568CD700
006B4300D00000002000
00BB89B2D00000000000
00940002C00000000000
008500077000039CC920
0094000B30005C4005D0
00B2000D1000590001B0
01D0000D00000D000390
05D7520C20000C000390
06A57A6A40000C0001C0
0580001D00000C4662C2
0670006700003E9653B2
095000A438A88C0000D0
1D1000BDB6E56D0000D0
780000B300940B2000C1
8800009500650B200095
0AC769D200640D00004A
00E875013335AE3002B6
008A27CDBAA934BCDC50
0008C720000000000000
ENDCHAR
STARTCHAR Gbreve
ENCODING 286
SWIDTH 557 0
DWIDTH 20 0
BBX 20 36 0 -1
BITMAP
00000168500026510000
00001C74A500B67C3000
00001C006500C0049000
00000A305601B00A2000
000006603A47B71B0000
000004900D876A970000
000003A01D0005F40000
000001DBD83207C10000
00000004A99ACD100000
00018710000000000000
000A87CDCCDB62013200
001C0000115B7BDDBC00
00490000002A00000A40
00490000003900000760
001C0000005400000840
000BCCCCD95677510C10
001D3000D587568CD700
006B4300D00000002000
00BB89B2D00000000000
00940002C00000000000
008500077000039CC920
0094000B30005C4005D0
00B2000D1000590001B0
01D0000D00000D000390
05D7520C20000C000390
06A57A6A40000C0001C0
0580001D00000C4662C2
0670006700003E9653B2
095000A438A88C0000D0
1D1000BDB6E56D0000D0
780000B300940B2000C1
8800009500650B200095
0AC769D200640D00004A
00E875013335AE3002B6
008A27CDBAA934BCDC50
0008C720000000000000
ENDCHAR
STARTCHAR gbreve
ENCODING 287
SWIDTH 557 0
DWIDTH 20 0
BBX 20 36 0 -1
BITMAP
00000168500026510000
00001C74A500B67C3000
00001C006500C0049000
00000A305601B00A2000
000006603A47B71B0000
000004900D876A970000
000003A01D0005F40000
000001DBD83207C10000
00000004A99ACD100000
00018710000000000000
000A87CDCCDB62013200
001C0000115B7BDDBC00
00490000002A00000A40
00490000003900000760
001C0000005400000840
000BCCCCD95677510C10
001D3000D587568CD700
006B4300D00000002000
00BB89B2D00000000000
00940002C00000000000
008500077000039CC920
0094000B30005C4005D0
00B2000D1000590001B0
01D0000D00000D000390
05D7520C20000C000390
06A57A6A40000C0001C0
0580001D00000C4662C2
0670006700003E9653B2
095000A438A88C0000D0
1D1000BDB6E56D0000D0
780000B300940B2000C1
8800009500650B200095
0AC769D200640D00004A
00E875013335AE3002B6
008A27CDBAA934BCDC50
0008C720000000000000
ENDCHAR
STARTCHAR Gdotaccent
ENCODING 288
SWIDTH 557 0
DWIDTH 20 0
BBX 20 33 0 -1
BITMAP
00000000037872000000
000000009A546D000000
0000000085002A000000
00000000390048000000
000000001B0058000000
000000001BCBB3000000
00018710000000000000
000A87CDCCDB62013200
001C0000115B7BDDBC00
00490000002A00000A40
00490000003900000760
001C0000005400000840
000BCCCCD95677510C10
001D3000D587568CD700
006B4300D00000002000
00BB89B2D00000000000
00940002C00000000000
008500077000039CC920
0094000B30005C4005D0
00B2000D1000590001B0
01D0000D00000D000390
05D7520C20000C000390
06A57A6A40000C0001C0
0580001D00000C4662C2
0670006700003E9653B2
095000A438A88C0000D0
1D1000BDB6E56D0000D0
780000B300940B2000C1
8800009500650B200095
0AC769D200640D00004A
00E875013335AE3002B6
008A27CDBAA934BCDC50
0008C720000000000000
ENDCHAR
STARTCHAR gdotaccent
ENCODING 289
SWIDTH 557 0
DWIDTH 20 0
BBX 20 33 0 -1
BITMAP
00000000037872000000
000000009A546D000000
0000000085002A000000
00000000390048000000
000000001B0058000000
000000001BCBB3000000
00018710000000000000
000A87CDCCDB62013200
001C0000115B7BDDBC00
00490000002A00000A40
00490000003900000760
001C0000005400000840
000BCCCCD95677510C10
001D3000D587568CD700
006B4300D00000002000
00BB89B2D00000000000
00940002C00000000000
008500077000039CC920
0094000B30005C4005D0
00B2000D1000590001B0
01D0000D00000D000390
05D7520C20000C000390
06A57A6A40000C0001C0
0580001D00000C4662C2
0670006700003E9653B2
095000A438A88C0000D0
1D1000BDB6E56D0000D0
780000B300940B2000C1
8800009500650B200095
0AC769D200640D00004A
00E875013335AE3002B6
008A27CDBAA934BCDC50
0008C720000000000000
ENDCHAR
STARTCHAR Gcommaaccent
ENCODING 290
SWIDTH 557 0
DWIDTH 20 0
BBX 20 36 0 -10
BITMAP
00018710000000000000
000A87CDCCDB62013200
001C0000115B7BDDBC00
00490000002A00000A40
00490000003900000760
001C0000005400000840
000BCCCCD95677510C10
001D3000D587568CD700
006B4300D00000002000
00BB89B2D00000000000
00940002C00000000000
008500077000039CC920
0094000B30005C4005D0
00B2000D1000590001B0
01D0000D00000D000390
05D7520C20000C000390
06A57A6A40000C0001C0
0580001D00000C4662C2
0670006700003E9653B2
095000A438A88C0000D0
1D1000BDB6E56D0000D0
780000B300940B2000C1
8800009500650B200095
0AC769D200640D00004A
00E875013335AE3002B6
008A27CDBAA934BCDC50
0008C720000000000000
000000001B9200000000
00000000864C20000000
00000002C00480000000
0000000A401B50000000
0000007800B400000000
000004C0086000000000
000005904B0000000000
0000008CD20000000000
00000000100000000000
ENDCHAR
STARTCHAR gcommaaccent
ENCODING 291
SWIDTH 557 0
DWIDTH 20 0
BBX 20 36 0 -10
BITMAP
00018710000000000000
000A87CDCCDB62013200
001C0000115B7BDDBC00
00490000002A00000A40
00490000003900000760
001C0000005400000840
000BCCCCD95677510C10
001D3000D587568CD700
006B4300D00000002000
00BB89B2D00000000000
00940002C00000000000
008500077000039CC920
0094000B30005C4005D0
00B2000D1000590001B0
01D0000D00000D000390
05D7520C20000C000390
06A57A6A40000C0001C0
0580001D00000C4662C2
0670006700003E9653B2
095000A438A88C0000D0
1D1000BDB6E56D0000D0
780000B300940B2000C1
8800009500650B200095
0AC769D200640D00004A
00E875013335AE3002B6
008A27CDBAA934BCDC50
0008C720000000000000
000000001B9200000000
00000000864C20000000
00000002C00480000000
0000000A401B50000000
0000007800B400000000
000004C0086000000000
000005904B0000000000
0000008CD20000000000
00000000100000000000
ENDCHAR
STARTCHAR Hcircumflex
ENCODING 292
SWIDTH 611 0
DWIDTH 22 0
BBX 21 36 1 -1
BITMAP
00000001DCDA1000000000
00000007604F7000000000
0000001C001EC000000000
0000009500B56700000000
000005A008900C20000000
00003C103BC102C1000000
00007500B2670067000000
00002C14900C01B3000000
000004BC2006CC50000000
0014410000000157410000
09DAAD8000006D879D6000
4C0000A60001E10001D200
1D0000B30000C20000D000
0D0000D00000860003A000
0C1001D000006700059000
0D0002C000006800068000
1D0001D000007700068000
5B7751D10000A64304A000
8C7573B20000DB89B2C000
680000D00000B300059000
3B0002C000008500086000
1D0003B00000760009C600
1D0003B0000067249D5B50
2C0002D000009FC95002C0
490000E677AC76800000D0
7EDCB4BCC52002A00000D0
580011D1C0000290024790
3A0002C0B0000049DDB830
2B0004A0915ADDC5075000
3A0005C68D94A300086000
490004D76100C200077000
860002C00000D000059000
C20000D10003A00002B000
B60004D10003D4002A8000
19DCDB3000003AEED60000
0001000000000000000000
ENDCHAR
STARTCHAR hcircumflex
ENCODING 293
SWIDTH 611 0
DWIDTH 22 0
BBX 21 36 1 -1
BITMAP
00000001DCDA1000000000
00000007604F7000000000
0000001C001EC000000000
0000009500B56700000000
000005A008900C20000000
00003C103BC102C1000000
00007500B2670067000000
00002C14900C01B3000000
000004BC2006CC50000000
0014410000000157410000
09DAAD8000006D879D6000
4C0000A60001E10001D200
1D0000B30000C20000D000
0D0000D00000860003A000
0C1001D000006700059000
0D0002C000006800068000
1D0001D000007700068000
5B7751D10000A64304A000
8C7573B20000DB89B2C000
680000D00000B300059000
3B0002C000008500086000
1D0003B00000760009C600
1D0003B0000067249D5B50
2C0002D000009FC95002C0
490000E677AC76800000D0
7EDCB4BCC52002A00000D0
580011D1C0000290024790
3A0002C0B0000049DDB830
2B0004A0915ADDC5075000
3A0005C68D94A300086000
490004D76100C200077000
860002C00000D000059000
C20000D10003A00002B000
B60004D10003D4002A8000
19DCDB3000003AEED60000
0001000000000000000000
ENDCHAR
STARTCHAR Hbar
ENCODING 294
SWIDTH 706 0
DWIDTH 25 0
BBX 25 27 1 -1
BITMAP
00001341000000016751000000
0008DA9CA100005D978D800000
001E1000880000D30000B50000
000D1000950000950000D10000
011B3000C10000680001C00000
3CCE3000EB8766AEC745B58300
B30B3000EA466544C689975C00
D00D1000D8000000C000000A30
D03D6761B6000000C000000850
B26D7564940000016000000B20
3CBB0000C9CCCCCA9CCCC97B00
023D0000D300005A3105837200
000D0000D00000490007D80000
000D0000E000004A248D698000
000E0000E000007FDA6101D000
002C0000C7779C84A00000C100
004EDCB68CD53000C00000D000
003A0011B3C10000B00245C000
001C0000E0A2000038DCC84000
000D0001D09159DDC605800000
001D0002D67DA4850005800000
002B0001E77200940004900000
00590000E00000C20002B00000
00A50000B30001D00000D00000
00981002C30001D50019A00000
0008DCDC40000029DED8000000
00000100000000000000000000
ENDCHAR
STARTCHAR hbar
ENCODING 295
SWIDTH 706 0
DWIDTH 25 0
BBX 25 27 1 -1
BITMAP
00001341000000016751000000
0008DA9CA100005D978D800000
001E1000880000D30000B50000
000D1000950000950000D10000
011B3000C10000680001C00000
3CCE3000EB8766AEC745B58300
B30B3000EA466544C689975C00
D00D1000D8000000C000000A30
D03D6761B6000000C000000850
B26D7564940000016000000B20
3CBB0000C9CCCCCA9CCCC97B00
023D0000D300005A3105837200
000D0000D00000490007D80000
000D0000E000004A248D698000
000E0000E000007FDA6101D000
002C0000C7779C84A00000C100
004EDCB68CD53000C00000D000
003A0011B3C10000B00245C000
001C0000E0A2000038DCC84000
000D0001D09159DDC605800000
001D0002D67DA4850005800000
002B0001E77200940004900000
00590000E00000C20002B00000
00A50000B30001D00000D00000
00981002C30001D50019A00000
0008DCDC40000029DED8000000
00000100000000000000000000
ENDCHAR
STARTCHAR Itilde
ENCODING 296
SWIDTH 266 0
DWIDTH 10 0
BBX 15 37 -2 -1
BITMAP
0000000000011000
0004DCD9004CBB10
000B207F309303A0
004A003DA1C002C0
01C201C2AA500C20
0A500B602D008600
880079B00682C000
B101B0A300BB5000
5A19403902CD0000
06B9000ACCD60000
0000014410000000
00009DAAD8000000
0004C0000A600000
0001D0000B300000
0000D0000D000000
0000C1001D000000
0000D0002C000000
0001D0001D000000
0005B7751D100000
0008C7573B200000
000680000D000000
0003B0002B000000
0001D0003A000000
0001D0003A000000
0002C0002B000000
000490000D000000
0007EDCB4B300000
000580011D100000
0003A0002B000000
0002B0004A000000
0003A00059000000
000490004A000000
000860002C000000
000C20000D100000
000B60004D100000
00019DCDB3000000
0000001000000000
ENDCHAR
STARTCHAR itilde
ENCODING 297
SWIDTH 266 0
DWIDTH 10 0
BBX 15 37 -2 -1
BITMAP
0000000000011000
0004DCD9004CBB10
000B207F309303A0
004A003DA1C002C0
01C201C2AA500C20
0A500B602D008600
880079B00682C000
B101B0A300BB5000
5A19403902CD0000
06B9000ACCD60000
0000014410000000
00009DAAD8000000
0004C0000A600000
0001D0000B300000
0000D0000D000000
0000C1001D000000
0000D0002C000000
0001D0001D000000
0005B7751D100000
0008C7573B200000
000680000D000000
0003B0002B000000
0001D0003A000000
0001D0003A000000
0002C0002B000000
000490000D000000
0007EDCB4B300000
000580011D100000
0003A0002B000000
0002B0004A000000
0003A00059000000
000490004A000000
000860002C000000
000C20000D100000
000B60004D100000
00019DCDB3000000
0000001000000000
ENDCHAR
STARTCHAR Imacron
ENCODING 298
SWIDTH 266 0
DWIDTH 10 0
BBX 10 32 0 -1
BITMAP
08A8767890
6824565477
A20000001B
8634543049
199888ACB1
0001441000
009DAAD800
04C0000A60
01D0000B30
00D0000D00
00C1001D00
00D0002C00
01D0001D00
05B7751D10
08C7573B20
0680000D00
03B0002B00
01D0003A00
01D0003A00
02C0002B00
0490000D00
07EDCB4B30
0580011D10
03A0002B00
02B0004A00
03A0005900
0490004A00
0860002C00
0C20000D10
0B60004D10
019DCDB300
0000100000
ENDCHAR
STARTCHAR imacron
ENCODING 299
SWIDTH 266 0
DWIDTH 10 0
BBX 10 32 0 -1
BITMAP
08A8767890
6824565477
A20000001B
8634543049
199888ACB1
0001441000
009DAAD800
04C0000A60
01D0000B30
00D0000D00
00C1001D00
00D0002C00
01D0001D00
05B7751D10
08C7573B20
0680000D00
03B0002B00
01D0003A00
01D0003A00
02C0002B00
0490000D00
07EDCB4B30
0580011D10
03A0002B00
02B0004A00
03A0005900
0490004A00
0860002C00
0C20000D10
0B60004D10
019DCDB300
0000100000
ENDCHAR
STARTCHAR Ibreve
ENCODING 300
SWIDTH 266 0
DWIDTH 10 0
BBX 13 36 -1 -1
BITMAP
03783000463000
6B55C003B59A00
7600B005700B20
2B00B008502A00
0C00A54C838500
0B206B875BC100
093067000CC000
06DBD4210D6000
0018A9ABD70000
00001441000000
0009DAAD800000
004C0000A60000
001D0000B30000
000D0000D00000
000C1001D00000
000D0002C00000
001D0001D00000
005B7751D10000
008C7573B20000
00680000D00000
003B0002B00000
001D0003A00000
001D0003A00000
002C0002B00000
00490000D00000
007EDCB4B30000
00580011D10000
003A0002B00000
002B0004A00000
003A0005900000
00490004A00000
00860002C00000
00C20000D10000
00B60004D10000
0019DCDB300000
00000100000000
ENDCHAR
STARTCHAR ibreve
ENCODING 301
SWIDTH 266 0
DWIDTH 10 0
BBX 13 36 -1 -1
BITMAP
03783000463000
6B55C003B59A00
7600B005700B20
2B00B008502A00
0C00A54C838500
0B206B875BC100
093067000CC000
06DBD4210D6000
0018A9ABD70000
00001441000000
0009DAAD800000
004C0000A60000
001D0000B30000
000D0000D00000
000C1001D00000
000D0002C00000
001D0001D00000
005B7751D10000
008C7573B20000
00680000D00000
003B0002B00000
001D0003A00000
001D0003A00000
002C0002B00000
00490000D00000
007EDCB4B30000
00580011D10000
003A0002B00000
002B0004A00000
003A0005900000
00490004A00000
00860002C00000
00C20000D10000
00B60004D10000
0019DCDB300000
00000100000000
ENDCHAR
STARTCHAR Iogonek
ENCODING 302
SWIDTH 266 0
DWIDTH 10 0
BBX 9 35 0 -9
BITMAP
0001441000
009DAAD800
04C0000A60
01D0000B30
00D0000D00
00C1001D00
00D0002C00
01D0001D00
05B7751D10
08C7573B20
0680000D00
03B0002B00
01D0003A00
01D0003A00
02C0002B00
0490000D00
07EDCB4B30
0580011D10
03A0002B00
02B0004A00
03A0005900
0490004A00
0860002C00
0C20000D10
0B60004D10
01EDCED300
04A01B3000
0A40490000
3A00A40000
4B11DC3000
0AEC52B910
02B8000770
0007A00940
00006A8900
0000065000
ENDCHAR
STARTCHAR iogonek
ENCODING 303
SWIDTH 266 0
DWIDTH 10 0
BBX 9 35 0 -9
BITMAP
0001441000
009DAAD800
04C0000A60
01D0000B30
00D0000D00
00C1001D00
00D0002C00
01D0001D00
05B7751D10
08C7573B20
0680000D00
03B0002B00
01D0003A00
01D0003A00
02C0002B00
0490000D00
07EDCB4B30
0580011D10
03A0002B00
02B0004A00
03A0005900
0490004A00
0860002C00
0C20000D10
0B60004D10
01EDCED300
04A01B3000
0A40490000
3A00A40000
4B11DC3000
0AEC52B910
02B8000770
0007A00940
00006A8900
0000065000
ENDCHAR
STARTCHAR Idotaccent
ENCODING 304
SWIDTH 266 0
DWIDTH 10 0
BBX 8 34 1 -1
BITMAP
00588610
1C854890
0C100760
08500940
06600A30
03CBC910
00000000
00144100
09DAAD80
4C0000A6
1D0000B3
0D0000D0
0C1001D0
0D0002C0
1D0001D0
5B7751D1
8C7573B2
680000D0
3B0002B0
1D0003A0
1D0003A0
2C0002B0
490000D0
7EDCB4B3
580011D1
3A0002B0
2B0004A0
3A000590
490004A0
860002C0
C20000D1
B60004D1
19DCDB30
00010000
ENDCHAR
STARTCHAR dotlessi
ENCODING 305
SWIDTH 266 0
DWIDTH 10 0
BBX 8 27 1 -1
BITMAP
00144100
09DAAD80
4C0000A6
1D0000B3
0D0000D0
0C1001D0
0D0002C0
1D0001D0
5B7751D1
8C7573B2
680000D0
3B0002B0
1D0003A0
1D0003A0
2C0002B0
490000D0
7EDCB4B3
580011D1
3A0002B0
2B0004A0
3A000590
490004A0
860002C0
C20000D1
B60004D1
19DCDB30
00010000
ENDCHAR
STARTCHAR IJ
ENCODING 306
SWIDTH 750 0
DWIDTH 27 0
BBX 25 28 1 -2
BITMAP
00144100000000000000242000
09DAAD8000000000003CCACC30
4C0000A60000000000B50003E0
1D0000B30000000000760003B0
0D0000D0000000000058000670
0C1001D0000000000049000860
0D0002C0000000000068000850
1D0001D0000000000086000760
5B7751D10000000000C6662580
8C7573B20000000000F96683A0
680000D00000000000D1000670
3B0002B00000000000A4000940
1D0003A0000120000085000A30
1D0003A002ADD4000086000A30
2C0002B02D503C000095000940
490000D0A500097000B3000670
7EDCB4B3D00001C600EDCB84B0
580011D19B10001AA0D2002590
3A0002B005D1001396B3000950
2B0004A0005B04C41DB4000B30
3A000590000A7C1006F4000C20
490004A00003F400008B100B30
860002C000006C200006D10950
C20000D1000004C10000B20690
B60004D1000000690003D00880
19DCDB300000000C202DECD800
0001000000000006CAD4120000
00000000000000003300000000
ENDCHAR
STARTCHAR ij
ENCODING 307
SWIDTH 749 0
DWIDTH 27 0
BBX 25 28 1 -2
BITMAP
00144100000000000000242000
09DAAD8000000000003CCACC30
4C0000A60000000000B50003E0
1D0000B30000000000760003B0
0D0000D0000000000058000670
0C1001D0000000000049000860
0D0002C0000000000068000850
1D0001D0000000000086000760
5B7751D10000000000C6662580
8C7573B20000000000F96683A0
680000D00000000000D1000670
3B0002B00000000000A4000940
1D0003A0000120000085000A30
1D0003A002ADD4000086000A30
2C0002B02D503C000095000940
490000D0A500097000B3000670
7EDCB4B3D00001C600EDCB84B0
580011D19B10001AA0D2002590
3A0002B005D1001396B3000950
2B0004A0005B04C41DB4000B30
3A000590000A7C1006F4000C20
490004A00003F400008B100B30
860002C000006C200006D10950
C20000D1000004C10000B20690
B60004D1000000690003D00880
19DCDB300000000C202DECD800
0001000000000006CAD4120000
00000000000000003300000000
ENDCHAR
STARTCHAR Jcircumflex
ENCODING 308
SWIDTH 484 0
DWIDTH 17 0
BBX 20 37 -1 -2
BITMAP
000000000003DCD90000
00000000000A407F4000
00000000003B002EB000
0000000000B301C38400
0000000008700A701C10
000000005A005AC004B0
000000009300C1850095
000000004B16702B01C1
0000000005CB1009CB30
00000000000013310000
000000000019DABD8000
00000000004B0000B500
00000000001C0000B200
00000000000D0000D000
00000000000D0001C000
00000000000D0002B000
00000000001C0001C000
00000000005B6640D000
00000000009C7673C100
0000000000680000D000
00000000003A0003B000
00002100002C0004A000
007DCA00001C00049000
09A10B30002B0003B000
4B0003C100590001D000
8500006B107EDCA3C200
4D500005D3680021D000
01C600033C590003B000
001C21B809AA00049000
0004BB5001EA00068000
0000BB00003D40059000
00002C600002B603B000
000001C500004800D000
0000001D1000B504D100
000000068009FCDB3000
00000001D9C912100000
00000000141000000000
ENDCHAR
STARTCHAR jcircumflex
ENCODING 309
SWIDTH 482 0
DWIDTH 17 0
BBX 20 37 -1 -2
BITMAP
000000000003DCD90000
00000000000A407F4000
00000000003B002EB000
0000000000B301C38400
0000000008700A701C10
000000005A005AC004B0
000000009300C1850095
000000004B16702B01C1
0000000005CB1009CB30
00000000000013310000
000000000019DABD8000
00000000004B0000B500
00000000001C0000B200
00000000000D0000D000
00000000000D0001C000
00000000000D0002B000
00000000001C0001C000
00000000005B6640D000
00000000009C7673C100
0000000000680000D000
00000000003A0003B000
00002100002C0004A000
007DCA00001C00049000
09A10B30002B0003B000
4B0003C100590001D000
8500006B107EDCA3C200
4D500005D3680021D000
01C600033C590003B000
001C21B809AA00049000
0004BB5001EA00068000
0000BB00003D40059000
00002C600002B603B000
000001C500004800D000
0000001D1000B504D100
000000068009FCDB3000
00000001D9C912100000
00000000141000000000
ENDCHAR
STARTCHAR Kcommaaccent
ENCODING 310
SWIDTH 541 0
DWIDTH 20 0
BBX 19 36 1 -10
BITMAP
00133100000000000000
09DAAD80000002740000
4C0000A600000A9AD300
1D0000B300003C003D20
0D0000D00001C30005A0
0C1001D0001C600001E0
0D0002C003C600003D60
1D0001D03FA10003D300
5B6640D1A67D201D2000
8C7673B6B003C0A50000
680000ED300023C00000
3B0002F500004C300000
1D0003A00005F2000000
1D0003A0003DB4000000
2C0002F501C349000000
4A0000DB46900C300000
7EDCA4B34D2003C00000
680011D5DC0385A40000
3A0002ED2DAB41670000
2B0004E20C80002C0000
3A00059004B0000C3000
490004A000A40004C000
760002C0003A00008900
C20000D1000D00006900
C60003D2000C2004D200
1ADCDC300007CACB2000
00121000000013200000
00000007A60000000000
0000001C298000000000
0000009500C100000000
000003B005B100000000
00001C205B0000000000
0000B502C10000000000
0000C20B300000000000
00002CC8000000000000
00000010000000000000
ENDCHAR
STARTCHAR kcommaaccent
ENCODING 311
SWIDTH 541 0
DWIDTH 20 0
BBX 19 36 1 -10
BITMAP
00133100000000000000
09DAAD80000002740000
4C0000A600000A9AD300
1D0000B300003C003D20
0D0000D00001C30005A0
0C1001D0001C600001E0
0D0002C003C600003D60
1D0001D03FA10003D300
5B6640D1A67D201D2000
8C7673B6B003C0A50000
680000ED300023C00000
3B0002F500004C300000
1D0003A00005F2000000
1D0003A0003DB4000000
2C0002F501C349000000
4A0000DB46900C300000
7EDCA4B34D2003C00000
680011D5DC0385A40000
3A0002ED2DAB41670000
2B0004E20C80002C0000
3A00059004B0000C3000
490004A000A40004C000
760002C0003A00008900
C20000D1000D00006900
C60003D2000C2004D200
1ADCDC300007CACB2000
00121000000013200000
00000007A60000000000
0000001C298000000000
0000009500C100000000
000003B005B100000000
00001C205B0000000000
0000B502C10000000000
0000C20B300000000000
00002CC8000000000000
00000010000000000000
ENDCHAR
STARTCHAR kgreenlandic
ENCODING 312
SWIDTH 541 0
DWIDTH 20 0
BBX 19 27 1 -1
BITMAP
00133100000000000000
09DAAD80000002740000
4C0000A600000A9AD300
1D0000B300003C003D20
0D0000D00001C30005A0
0C1001D0001C600001E0
0D0002C003C600003D60
1D0001D03FA10003D300
5B6640D1A67D201D2000
8C7673B6B003C0A50000
680000ED300023C00000
3B0002F500004C300000
1D0003A00005F2000000
1D0003A0003DB4000000
2C0002F501C349000000
4A0000DB46900C300000
7EDCA4B34D2003C00000
680011D5DC0385A40000
3A0002ED2DAB41670000
2B0004E20C80002C0000
3A00059004B0000C3000
490004A000A40004C000
760002C0003A00008900
C20000D1000D00006900
C60003D2000C2004D200
1ADCDC300007CACB2000
00121000000013200000
ENDCHAR
STARTCHAR Lacute
ENCODING 313
SWIDTH 467 0
DWIDTH 17 0
BBX 17 35 1 -1
BITMAP
0000001BA300000000
000000773C30000000
000001C003A0000000
000009501B60000000
00006900B500000000
0003C1077000000000
0003B03B0000000000
00006CD20000000000
001441000000000000
09DAAD800000000000
4C0000A60000000000
1D0000B30000000000
0D0000D00000000000
0C1001D00000000000
0D0002C00000000000
1D0001D00000000000
5B7751D10000000000
8C7573B20000000000
680000D00000000000
3B0002B00000000000
1D0003A00000000000
1D0003A00000000000
2C0002B00000000000
490000D00000000000
7EDCB4B30000000000
580011D00000000000
3A0002B00000000000
2B0004DCA642348500
3A0005A7B79AA85D10
490004A2B000000860
860002C2A000000580
C20000D47000000760
B60004E64788741D20
19DCDA69964469D600
000100000000000000
ENDCHAR
STARTCHAR lacute
ENCODING 314
SWIDTH 467 0
DWIDTH 17 0
BBX 17 35 1 -1
BITMAP
0000001BA300000000
000000773C30000000
000001C003A0000000
000009501B60000000
00006900B500000000
0003C1077000000000
0003B03B0000000000
00006CD20000000000
001441000000000000
09DAAD800000000000
4C0000A60000000000
1D0000B30000000000
0D0000D00000000000
0C1001D00000000000
0D0002C00000000000
1D0001D00000000000
5B7751D10000000000
8C7573B20000000000
680000D00000000000
3B0002B00000000000
1D0003A00000000000
1D0003A00000000000
2C0002B00000000000
490000D00000000000
7EDCB4B30000000000
580011D00000000000
3A0002B00000000000
2B0004DCA642348500
3A0005A7B79AA85D10
490004A2B000000860
860002C2A000000580
C20000D47000000760
B60004E64788741D20
19DCDA69964469D600
000100000000000000
ENDCHAR
STARTCHAR Lcommaaccent
ENCODING 315
SWIDTH 467 0
DWIDTH 17 0
BBX 17 36 1 -10
BITMAP
001441000000000000
09DAAD800000000000
4C0000A60000000000
1D0000B30000000000
0D0000D00000000000
0C1001D00000000000
0D0002C00000000000
1D0001D00000000000
5B7751D10000000000
8C7573B20000000000
680000D00000000000
3B0002B00000000000
1D0003A00000000000
1D0003A00000000000
2C0002B00000000000
490000D00000000000
7EDCB4B30000000000
580011D00000000000
3A0002B00000000000
2B0004DCA642348500
3A0005A7B79AA85D10
490004A2B000000860
860002C2A000000580
C20000D47000000760
B60004E64788741D20
19DCDA69964469D600
000100000000000000
000000A93000000000
00000683C400000000
00000C102B00000000
00007700A700000000
0004B0096000000000
002C10690000000000
002B02C00000000000
0006CD300000000000
000001000000000000
ENDCHAR
STARTCHAR lcommaaccent
ENCODING 316
SWIDTH 467 0
DWIDTH 17 0
BBX 17 36 1 -10
BITMAP
001441000000000000
09DAAD800000000000
4C0000A60000000000
1D0000B30000000000
0D0000D00000000000
0C1001D00000000000
0D0002C00000000000
1D0001D00000000000
5B7751D10000000000
8C7573B20000000000
680000D00000000000
3B0002B00000000000
1D0003A00000000000
1D0003A00000000000
2C0002B00000000000
490000D00000000000
7EDCB4B30000000000
580011D00000000000
3A0002B00000000000
2B0004DCA642348500
3A0005A7B79AA85D10
490004A2B000000860
860002C2A000000580
C20000D47000000760
B60004E64788741D20
19DCDA69964469D600
000100000000000000
000000A93000000000
00000683C400000000
00000C102B00000000
00007700A700000000
0004B0096000000000
002C10690000000000
002B02C00000000000
0006CD300000000000
000001000000000000
ENDCHAR
STARTCHAR Lcaron
ENCODING 317
SWIDTH 467 0
DWIDTH 17 0
BBX 17 30 1 -1
BITMAP
000000000001200000
000000000009AC3000
00000000002B02C100
0014410000A300A400
09DAAD800590097000
4C0000A63C10780000
1D0000B3C303B00000
0D0000D07A3C200000
0C1001D005A5000000
0D0002C00000000000
1D0001D00000000000
5B7751D10000000000
8C7573B20000000000
680000D00000000000
3B0002B00000000000
1D0003A00000000000
1D0003A00000000000
2C0002B00000000000
490000D00000000000
7EDCB4B30000000000
580011D00000000000
3A0002B00000000000
2B0004DCA642348500
3A0005A7B79AA85D10
490004A2B000000860
860002C2A000000580
C20000D47000000760
B60004E64788741D20
19DCDA69964469D600
000100000000000000
ENDCHAR
STARTCHAR lcaron
ENCODING 318
SWIDTH 467 0
DWIDTH 17 0
BBX 17 30 1 -1
BITMAP
000000000001200000
000000000009AC3000
00000000002B02C100
0014410000A300A400
09DAAD800590097000
4C0000A63C10780000
1D0000B3C303B00000
0D0000D07A3C200000
0C1001D005A5000000
0D0002C00000000000
1D0001D00000000000
5B7751D10000000000
8C7573B20000000000
680000D00000000000
3B0002B00000000000
1D0003A00000000000
1D0003A00000000000
2C0002B00000000000
490000D00000000000
7EDCB4B30000000000
580011D00000000000
3A0002B00000000000
2B0004DCA642348500
3A0005A7B79AA85D10
490004A2B000000860
860002C2A000000580
C20000D47000000760
B60004E64788741D20
19DCDA69964469D600
000100000000000000
ENDCHAR
STARTCHAR Ldot
ENCODING 319
SWIDTH 611 0
DWIDTH 22 0
BBX 20 27 1 -1
BITMAP
00144100000000000000
09DAAD80000000000000
4C0000A6000000000000
1D0000B3000000000000
0D0000D0000000000000
0C1001D0000000000000
0D0002C0000000000000
1D0001D0000000000000
5B7751D1000000000000
8C7573B2000000000000
680000D00000003BBBB5
3B0002B000000095001D
1D0003A000000066002A
1D0003A0000000670039
2C0002B00000006A227A
490000D0000000059A70
7EDCB4B3000000000000
580011D0000000000000
3A0002B0000000000000
2B0004DCA64234850000
3A0005A7B79AA85D1000
490004A2B00000086000
860002C2A00000058000
C20000D4700000076000
B60004E64788741D2000
19DCDA69964469D60000
00010000000000000000
ENDCHAR
STARTCHAR ldotaccent
ENCODING 320
SWIDTH 611 0
DWIDTH 22 0
BBX 20 27 1 -1
BITMAP
00144100000000000000
09DAAD80000000000000
4C0000A6000000000000
1D0000B3000000000000
0D0000D0000000000000
0C1001D0000000000000
0D0002C0000000000000
1D0001D0000000000000
5B7751D1000000000000
8C7573B2000000000000
680000D00000003BBBB5
3B0002B000000095001D
1D0003A000000066002A
1D0003A0000000670039
2C0002B00000006A227A
490000D0000000059A70
7EDCB4B3000000000000
580011D0000000000000
3A0002B0000000000000
2B0004DCA64234850000
3A0005A7B79AA85D1000
490004A2B00000086000
860002C2A00000058000
C20000D4700000076000
B60004E64788741D2000
19DCDA69964469D60000
00010000000000000000
ENDCHAR
STARTCHAR Lslash
ENCODING 321
SWIDTH 505 0
DWIDTH 18 0
BBX 20 27 -1 -1
BITMAP
00000024200000000000
00004DBACB2000000000
0000D30004C000000000
00009400059000000000
00007600085000000000
000067000A4000000000
000086000A3000000000
0000A400094000000000
0000E565276000000000
0002E866758560000000
0000D00008D8A8000000
06CBE2000B201E100000
3C11A4000C100B500000
8700A4000C100C300000
7700B3000B778B000000
3D00D100089541000000
08C9FDCB759000000000
0034D101276000000000
0000C1000B2000000000
0000B2000D9C96569D60
0000C1000E4B778741D1
0000D0000D1770000085
0001C0000B3570000076
000680000766400000A4
0006B1001AB56ACCA8C0
00006DCCD86873112520
00000022000000000000
ENDCHAR
STARTCHAR lslash
ENCODING 322
SWIDTH 505 0
DWIDTH 18 0
BBX 20 27 -1 -1
BITMAP
00000024200000000000
00004DBACB2000000000
0000D30004C000000000
00009400059000000000
00007600085000000000
000067000A4000000000
000086000A3000000000
0000A400094000000000
0000E565276000000000
0002E866758560000000
0000D00008D8A8000000
06CBE2000B201E100000
3C11A4000C100B500000
8700A4000C100C300000
7700B3000B778B000000
3D00D100089541000000
08C9FDCB759000000000
0034D101276000000000
0000C1000B2000000000
0000B2000D9C96569D60
0000C1000E4B778741D1
0000D0000D1770000085
0001C0000B3570000076
000680000766400000A4
0006B1001AB56ACCA8C0
00006DCCD86873112520
00000022000000000000
ENDCHAR
STARTCHAR Nacute
ENCODING 323
SWIDTH 598 0
DWIDTH 22 0
BBX 20 35 1 -1
BITMAP
000000000003C9100000
00000000000B44C10000
00000000003A00660000
0000000000B202C30000
0000000009601C200000
000000005A00B4000000
00000000680680000000
0000000009CC10000000
00133100000000133000
08DBBDA8200008DBBD70
4C0000AC90003C0000B6
1D0000B5C0001D0000B3
0D0000D0D1000D0000E0
0C1001D086000D1001D0
0D0002C02D100E0002C0
1D0001D008901D0001D0
5B5640D122C35B5640D1
8C8684BDA4878C8684B2
680000D2004B680000D0
3B0002B0000D4B0002C0
1C0003E20007AC0003A0
1D0003EA0000DD0003A0
2C0002BD20003D1002C0
4A0000D76003586000D0
7DCC94B5B6C945EC93B3
680122D1EA1001C022D1
3A0002C06B0000B302C0
2B0004A00B50004A03A0
3A00059003C0000B5490
490004A000C20001D790
770002B00077000097B0
C20000D100490005D0D0
C50003D2002D66AB23D1
1ADBCC3000037AEBCC30
00121000000000021000
ENDCHAR
STARTCHAR nacute
ENCODING 324
SWIDTH 598 0
DWIDTH 22 0
BBX 20 35 1 -1
BITMAP
000000000003C9100000
00000000000B44C10000
00000000003A00660000
0000000000B202C30000
0000000009601C200000
000000005A00B4000000
00000000680680000000
0000000009CC10000000
00133100000000133000
08DBBDA8200008DBBD70
4C0000AC90003C0000B6
1D0000B5C0001D0000B3
0D0000D0D1000D0000E0
0C1001D086000D1001D0
0D0002C02D100E0002C0
1D0001D008901D0001D0
5B5640D122C35B5640D1
8C8684BDA4878C8684B2
680000D2004B680000D0
3B0002B0000D4B0002C0
1C0003E20007AC0003A0
1D0003EA0000DD0003A0
2C0002BD20003D1002C0
4A0000D76003586000D0
7DCC94B5B6C945EC93B3
680122D1EA1001C022D1
3A0002C06B0000B302C0
2B0004A00B50004A03A0
3A00059003C0000B5490
490004A000C20001D790
770002B00077000097B0
C20000D100490005D0D0
C50003D2002D66AB23D1
1ADBCC3000037AEBCC30
00121000000000021000
ENDCHAR
STARTCHAR Ncommaaccent
ENCODING 325
SWIDTH 598 0
DWIDTH 22 0
BBX 20 36 1 -10
BITMAP
00133100000000133000
08DBBDA8200008DBBD70
4C0000AC90003C0000B6
1D0000B5C0001D0000B3
0D0000D0D1000D0000E0
0C1001D086000D1001D0
0D0002C02D100E0002C0
1D0001D008901D0001D0
5B5640D122C35B5640D1
8C8684BDA4878C8684B2
680000D2004B680000D0
3B0002B0000D4B0002C0
1C0003E20007AC0003A0
1D0003EA0000DD0003A0
2C0002BD20003D1002C0
4A0000D76003586000D0
7DCC94B5B6C945EC93B3
680122D1EA1001C022D1
3A0002C06B0000B302C0
2B0004A00B50004A03A0
3A00059003C0000B5490
490004A000C20001D790
770002B00077000097B0
C20000D100490005D0D0
C50003D2002D66AB23D1
1ADBCC3000037AEBCC30
00121000000000021000
000000007A6000000000
00000001C29800000000
00000009500C10000000
0000003B005B10000000
000001C205B000000000
00000B502C1000000000
00000C20B30000000000
000002CC800000000000
00000001000000000000
ENDCHAR
STARTCHAR ncommaaccent
ENCODING 326
SWIDTH 598 0
DWIDTH 22 0
BBX 20 36 1 -10
BITMAP
00133100000000133000
08DBBDA8200008DBBD70
4C0000AC90003C0000B6
1D0000B5C0001D0000B3
0D0000D0D1000D0000E0
0C1001D086000D1001D0
0D0002C02D100E0002C0
1D0001D008901D0001D0
5B5640D122C35B5640D1
8C8684BDA4878C8684B2
680000D2004B680000D0
3B0002B0000D4B0002C0
1C0003E20007AC0003A0
1D0003EA0000DD0003A0
2C0002BD20003D1002C0
4A0000D76003586000D0
7DCC94B5B6C945EC93B3
680122D1EA1001C022D1
3A0002C06B0000B302C0
2B0004A00B50004A03A0
3A00059003C0000B5490
490004A000C20001D790
770002B00077000097B0
C20000D100490005D0D0
C50003D2002D66AB23D1
1ADBCC3000037AEBCC30
00121000000000021000
000000007A6000000000
00000001C29800000000
00000009500C10000000
0000003B005B10000000
000001C205B000000000
00000B502C1000000000
00000C20B30000000000
000002CC800000000000
00000001000000000000
ENDCHAR
STARTCHAR Ncaron
ENCODING 327
SWIDTH 598 0
DWIDTH 22 0
BBX 20 37 1 -1
BITMAP
00000024100033000000
000009B9C005BAC20000
00003A00740B204A0000
00001C101A49004B0000
000004A009C201C10000
000000A302B00B300000
0000003A006867000000
0000000B200DC1000000
0000000683AD70000000
000000018A9910000000
00133100000000133000
08DBBDA8200008DBBD70
4C0000AC90003C0000B6
1D0000B5C0001D0000B3
0D0000D0D1000D0000E0
0C1001D086000D1001D0
0D0002C02D100E0002C0
1D0001D008901D0001D0
5B5640D122C35B5640D1
8C8684BDA4878C8684B2
680000D2004B680000D0
3B0002B0000D4B0002C0
1C0003E20007AC0003A0
1D0003EA0000DD0003A0
2C0002BD20003D1002C0
4A0000D76003586000D0
7DCC94B5B6C945EC93B3
680122D1EA1001C022D1
3A0002C06B0000B302C0
2B0004A00B50004A03A0
3A00059003C0000B5490
490004A000C20001D790
770002B00077000097B0
C20000D100490005D0D0
C50003D2002D66AB23D1
1ADBCC3000037AEBCC30
00121000000000021000
ENDCHAR
STARTCHAR ncaron
ENCODING 328
SWIDTH 598 0
DWIDTH 22 0
BBX 20 37 1 -1
BITMAP
00000024100033000000
000009B9C005BAC20000
00003A00740B204A0000
00001C101A49004B0000
000004A009C201C10000
000000A302B00B300000
0000003A006867000000
0000000B200DC1000000
0000000683AD70000000
000000018A9910000000
00133100000000133000
08DBBDA8200008DBBD70
4C0000AC90003C0000B6
1D0000B5C0001D0000B3
0D0000D0D1000D0000E0
0C1001D086000D1001D0
0D0002C02D100E0002C0
1D0001D008901D0001D0
5B5640D122C35B5640D1
8C8684BDA4878C8684B2
680000D2004B680000D0
3B0002B0000D4B0002C0
1C0003E20007AC0003A0
1D0003EA0000DD0003A0
2C0002BD20003D1002C0
4A0000D76003586000D0
7DCC94B5B6C945EC93B3
680122D1EA1001C022D1
3A0002C06B0000B302C0
2B0004A00B50004A03A0
3A00059003C0000B5490
490004A000C20001D790
770002B00077000097B0
C20000D100490005D0D0
C50003D2002D66AB23D1
1ADBCC3000037AEBCC30
00121000000000021000
ENDCHAR
STARTCHAR napostrophe
ENCODING 329
SWIDTH 807 0
DWIDTH 29 0
BBX 28 27 0 -1
BITMAP
0001200000023200000000023100
000AAC3003CCACC9600003CCACC3
003A02C00B60003ED2000A50003E
00B200B30860003B95000760003B
06800A6005800067590005800067
3B009600049000861D1005900086
C204A00006800095087006800095
893C10000860008601D208600086
06A400000C666258025B0C666259
000000000F97783EC81E1FA7783A
000000000D100068000B4D100067
000000000A40009400059A400095
00000000085000A90000DA5000A3
00000000086000AE30005F6000A3
000000000950009AA0000A700094
000000000B300067D00153D00077
000000000ECCB84BA6AC71CCB83B
000000000D2013586E5000851359
000000000A3000950C40003B0094
00000000094000B303C0000B30A2
000000000A3000C200A50003C1B1
000000000B2000B3004A00006AB2
000000000D000094000D00002D94
000000004A000068000B2001B668
000000004C1000890009967C7089
0000000005DCBD90000058DDBD80
0000000000012000000000012000
ENDCHAR
STARTCHAR Eng
ENCODING 330
SWIDTH 595 0
DWIDTH 21 0
BBX 20 36 1 -10
BITMAP
00133000000000000000
08DBBD98200000588400
4C0000AC90001CB77CA0
1D0000B4C0004A0000B5
0D0000D0D1002C0000C2
0D1001C086000D0000E0
0D0001C02D100D0001C0
1D0000D008900D0003B0
5B5630D122C30D0002B0
8C8783BDA4862B0001C0
680000D2004A7B8850D0
3B0002B0000DBC7683C1
1C0003E10007E70000D0
1D0003E90000DA0002B0
2C0002BD20003D1004A0
4A0000D7700258600490
7DBBA4B5B5C9459004A0
681011D1EA1001C003B0
3A0002C06B0000B300D0
2B0004A00B50004D93C2
2B00059003C0000B93D1
490004A000C20001D5C0
770002C0007700009990
C30000D100490005C680
C50003D2002D66BB2580
1ADBCC300003AB300490
00121000000098A902B0
000000002888DC5880D0
0002446BCBA52000D2D1
001D997301D000009E60
0058000000B100009500
0077000000920356D100
004A00000125CA775000
000D2029DCB910000000
0004D9C5000000000000
00002500000000000000
ENDCHAR
STARTCHAR eng
ENCODING 331
SWIDTH 595 0
DWIDTH 21 0
BBX 20 36 1 -10
BITMAP
00133000000000000000
08DBBD98200000588400
4C0000AC90001CB77CA0
1D0000B4C0004A0000B5
0D0000D0D1002C0000C2
0D1001C086000D0000E0
0D0001C02D100D0001C0
1D0000D008900D0003B0
5B5630D122C30D0002B0
8C8783BDA4862B0001C0
680000D2004A7B8850D0
3B0002B0000DBC7683C1
1C0003E10007E70000D0
1D0003E90000DA0002B0
2C0002BD20003D1004A0
4A0000D7700258600490
7DBBA4B5B5C9459004A0
681011D1EA1001C003B0
3A0002C06B0000B300D0
2B0004A00B50004D93C2
2B00059003C0000B93D1
490004A000C20001D5C0
770002C0007700009990
C30000D100490005C680
C50003D2002D66BB2580
1ADBCC300003AB300490
00121000000098A902B0
000000002888DC5880D0
0002446BCBA52000D2D1
001D997301D000009E60
0058000000B100009500
0077000000920356D100
004A00000125CA775000
000D2029DCB910000000
0004D9C5000000000000
00002500000000000000
ENDCHAR
STARTCHAR Omacron
ENCODING 332
SWIDTH 612 0
DWIDTH 22 0
BBX 22 32 0 -1
BITMAP
00000004B97667A3000000
0000001C2356543C000000
000000580000000B100000
0000003B2454310C000000
00000006A8789BC5000000
0001871000000000000000
000A87CDCCDB6215762000
001C0000115B7BDDBFD700
00490000002A00000A7B00
004900000039000007B800
001C00000054000008B600
000BCCCCD95677510C7700
001D3000D58756DCD74900
006B4300D00003A0201D00
00BB89B2D00007DDDC4C20
00940002C00007A0000D00
00850007700002B0000E00
0094000B300000D1000E00
00B2000D100000B2000D10
01D0000D000000A4000A40
05D7520C200000A3000590
06A57A6A400000CABBA3D0
0580001D000000A72013A0
0670006800000067164580
095000A414A988AED8D880
1D1000BDC98C5542005EA0
780000B3000D0000001FD0
88000095000B1000000DB4
0AC769D2000A0000214AB5
00E8750023336ACEFFFE70
008A17BDBAAB8201465100
0008C72000000000000000
ENDCHAR
STARTCHAR omacron
ENCODING 333
SWIDTH 612 0
DWIDTH 22 0
BBX 22 32 0 -1
BITMAP
00000004B97667A3000000
0000001C2356543C000000
000000580000000B100000
0000003B2454310C000000
00000006A8789BC5000000
0001871000000000000000
000A87CDCCDB6215762000
001C0000115B7BDDBFD700
00490000002A00000A7B00
004900000039000007B800
001C00000054000008B600
000BCCCCD95677510C7700
001D3000D58756DCD74900
006B4300D00003A0201D00
00BB89B2D00007DDDC4C20
00940002C00007A0000D00
00850007700002B0000E00
0094000B300000D1000E00
00B2000D100000B2000D10
01D0000D000000A4000A40
05D7520C200000A3000590
06A57A6A400000CABBA3D0
0580001D000000A72013A0
0670006800000067164580
095000A414A988AED8D880
1D1000BDC98C5542005EA0
780000B3000D0000001FD0
88000095000B1000000DB4
0AC769D2000A0000214AB5
00E8750023336ACEFFFE70
008A17BDBAAB8201465100
0008C72000000000000000
ENDCHAR
STARTCHAR Obreve
ENCODING 334
SWIDTH 612 0
DWIDTH 22 0
BBX 22 36 0 -1
BITMAP
0000002784000464000000
000004C65D001D58B10000
000005800B103900940000
000000C00A105701C00000
000000B20864B946700000
0000009404C875CA300000
00000075049000AE000000
0000004DBD5310C8000000
000000007A99BC90000000
0001871000000000000000
000A87CDCCDB6215762000
001C0000115B7BDDBFD700
00490000002A00000A7B00
004900000039000007B800
001C00000054000008B600
000BCCCCD95677510C7700
001D3000D58756DCD74900
006B4300D00003A0201D00
00BB89B2D00007DDDC4C20
00940002C00007A0000D00
00850007700002B0000E00
0094000B300000D1000E00
00B2000D100000B2000D10
01D0000D000000A4000A40
05D7520C200000A3000590
06A57A6A400000CABBA3D0
0580001D000000A72013A0
0670006800000067164580
095000A414A988AED8D880
1D1000BDC98C5542005EA0
780000B3000D0000001FD0
88000095000B1000000DB4
0AC769D2000A0000214AB5
00E8750023336ACEFFFE70
008A17BDBAAB8201465100
0008C72000000000000000
ENDCHAR
STARTCHAR obreve
ENCODING 335
SWIDTH 612 0
DWIDTH 22 0
BBX 22 36 0 -1
BITMAP
0000002784000464000000
000004C65D001D58B10000
000005800B103900940000
000000C00A105701C00000
000000B20864B946700000
0000009404C875CA300000
00000075049000AE000000
0000004DBD5310C8000000
000000007A99BC90000000
0001871000000000000000
000A87CDCCDB6215762000
001C0000115B7BDDBFD700
00490000002A00000A7B00
004900000039000007B800
001C00000054000008B600
000BCCCCD95677510C7700
001D3000D58756DCD74900
006B4300D00003A0201D00
00BB89B2D00007DDDC4C20
00940002C00007A0000D00
00850007700002B0000E00
0094000B300000D1000E00
00B2000D100000B2000D10
01D0000D000000A4000A40
05D7520C200000A3000590
06A57A6A400000CABBA3D0
0580001D000000A72013A0
0670006800000067164580
095000A414A988AED8D880
1D1000BDC98C5542005EA0
780000B3000D0000001FD0
88000095000B1000000DB4
0AC769D2000A0000214AB5
00E8750023336ACEFFFE70
008A17BDBAAB8201465100
0008C72000000000000000
ENDCHAR
STARTCHAR Ohungarumlaut
ENCODING 336
SWIDTH 612 0
DWIDTH 22 0
BBX 22 35 0 -1
BITMAP
00000000006B70009B5000
0000000001C16B03B19700
0000000007700A3B300C00
000000002C004C6A007A00
00000000B303B3C1069000
00000009601C2C303B0000
0000000A40950C20C20000
00000001BCA003CC600000
0001871000000000000000
000A87CDCCDB6215762000
001C0000115B7BDDBFD700
00490000002A00000A7B00
004900000039000007B800
001C00000054000008B600
000BCCCCD95677510C7700
001D3000D58756DCD74900
006B4300D00003A0201D00
00BB89B2D00007DDDC4C20
00940002C00007A0000D00
00850007700002B0000E00
0094000B300000D1000E00
00B2000D100000B2000D10
01D0000D000000A4000A40
05D7520C200000A3000590
06A57A6A400000CABBA3D0
0580001D000000A72013A0
0670006800000067164580
095000A414A988AED8D880
1D1000BDC98C5542005EA0
780000B3000D0000001FD0
88000095000B1000000DB4
0AC769D2000A0000214AB5
00E8750023336ACEFFFE70
008A17BDBAAB8201465100
0008C72000000000000000
ENDCHAR
STARTCHAR ohungarumlaut
ENCODING 337
SWIDTH 612 0
DWIDTH 22 0
BBX 22 35 0 -1
BITMAP
00000000006B70009B5000
0000000001C16B03B19700
0000000007700A3B300C00
000000002C004C6A007A00
00000000B303B3C1069000
00000009601C2C303B0000
0000000A40950C20C20000
00000001BCA003CC600000
0001871000000000000000
000A87CDCCDB6215762000
001C0000115B7BDDBFD700
00490000002A00000A7B00
004900000039000007B800
001C00000054000008B600
000BCCCCD95677510C7700
001D3000D58756DCD74900
006B4300D00003A0201D00
00BB89B2D00007DDDC4C20
00940002C00007A0000D00
00850007700002B0000E00
0094000B300000D1000E00
00B2000D100000B2000D10
01D0000D000000A4000A40
05D7520C200000A3000590
06A57A6A400000CABBA3D0
0580001D000000A72013A0
0670006800000067164580
095000A414A988AED8D880
1D1000BDC98C5542005EA0
780000B3000D0000001FD0
88000095000B1000000DB4
0AC769D2000A0000214AB5
00E8750023336ACEFFFE70
008A17BDBAAB8201465100
0008C72000000000000000
ENDCHAR
STARTCHAR OE
ENCODING 338
SWIDTH 831 0
DWIDTH 30 0
BBX 30 27 0 -1
BITMAP
000187100000000034200000000010
000A87CDCCDB526DECDA8BDA779DC1
001C0000115B7BDDBC07B2B5564077
00490000002A00000A47707500002B
0049000000390000076B306500001C
001C000000540000084C106200004A
000BCCCCD95677510C1DA868CDDAC3
001D3000D58755EDD70C5575100330
006B4300D00001E5851A4000000000
00BB89B2D00004E867686000000000
00940002C00002C0000B6223740000
00850007700000D0000D9BB97D1000
0094000B300000C1000E0000095000
00B2000D100000C1000E0000077000
01D0000D000000D0000D0000085000
05D7520C200000D0000B99852D1000
06A57A6A400003EDCB679358C50000
0580001D000002C001295000000000
06700068000000D4600D1000000000
095000A427A879E9B50EDDE9545930
1D1000BEB7D764101D1C01D47975C0
780000B3006600000C2D00D00000B2
88000095004800000B1D10C0000094
0AC769D2004700111D0941600000C2
00E875002334ADFCD62BDA8BCA65B0
008A17CDBAAA408DCCD51442137B20
0008C7200000000021000000000000
ENDCHAR
STARTCHAR oe
ENCODING 339
SWIDTH 831 0
DWIDTH 30 0
BBX 30 27 0 -1
BITMAP
000187100000000034200000000010
000A87CDCCDB526DECDA8BDA779DC1
001C0000115B7BDDBC07B2B5564077
00490000002A00000A47707500002B
0049000000390000076B306500001C
001C000000540000084C106200004A
000BCCCCD95677510C1DA868CDDAC3
001D3000D58755EDD70C5575100330
006B4300D00001E5851A4000000000
00BB89B2D00004E867686000000000
00940002C00002C0000B6223740000
00850007700000D0000D9BB97D1000
0094000B300000C1000E0000095000
00B2000D100000C1000E0000077000
01D0000D000000D0000D0000085000
05D7520C200000D0000B99852D1000
06A57A6A400003EDCB679358C50000
0580001D000002C001295000000000
06700068000000D4600D1000000000
095000A427A879E9B50EDDE9545930
1D1000BEB7D764101D1C01D47975C0
780000B3006600000C2D00D00000B2
88000095004800000B1D10C0000094
0AC769D2004700111D0941600000C2
00E875002334ADFCD62BDA8BCA65B0
008A17CDBAAA408DCCD51442137B20
0008C7200000000021000000000000
ENDCHAR
STARTCHAR Racute
ENCODING 340
SWIDTH 532 0
DWIDTH 19 0
BBX 19 35 1 -1
BITMAP
00000000000AA4000000
0000000000582B400000
0000000000C101B00000
0000000007700A700000
000000004B0096000000
00000002C10690000000
00000002C12C10000000
000001005CD400000000
0004CD60000000000000
017D21AB400000000000
3DD500039CC700000000
3BC10000006DB2000000
0DC1000000854CB64100
0D89520000C10037AB00
0D168BD6057000000D00
0E0002C9C52000001D00
3B0001D039CD81006900
7DCCA2C1001A9D64E200
891011D104C5019CB400
590001C3BA200001B500
2B0003CCD779606C6000
1C0004E47D53CA900000
2C0003A5B00098000000
3B0002BA60003B000000
6A4310D1C30009600000
7C99B5C2AC0000B40000
580001DB7942893A0000
3A0003F604BB200D1000
3A0005A001F200078000
49000580005B0000B400
680004A0000A50001C30
A40001C00002C0000940
E10000D10000B2005B00
8B434AB000007969A100
049BA500000005630000
ENDCHAR
STARTCHAR racute
ENCODING 341
SWIDTH 532 0
DWIDTH 19 0
BBX 19 35 1 -1
BITMAP
00000000000AA4000000
0000000000582B400000
0000000000C101B00000
0000000007700A700000
000000004B0096000000
00000002C10690000000
00000002C12C10000000
000001005CD400000000
0004CD60000000000000
017D21AB400000000000
3DD500039CC700000000
3BC10000006DB2000000
0DC1000000854CB64100
0D89520000C10037AB00
0D168BD6057000000D00
0E0002C9C52000001D00
3B0001D039CD81006900
7DCCA2C1001A9D64E200
891011D104C5019CB400
590001C3BA200001B500
2B0003CCD779606C6000
1C0004E47D53CA900000
2C0003A5B00098000000
3B0002BA60003B000000
6A4310D1C30009600000
7C99B5C2AC0000B40000
580001DB7942893A0000
3A0003F604BB200D1000
3A0005A001F200078000
49000580005B0000B400
680004A0000A50001C30
A40001C00002C0000940
E10000D10000B2005B00
8B434AB000007969A100
049BA500000005630000
ENDCHAR
STARTCHAR Rcommaaccent
ENCODING 342
SWIDTH 532 0
DWIDTH 19 0
BBX 19 37 1 -10
BITMAP
00000100000000000000
0004CD60000000000000
017D21AB400000000000
3DD500039CC700000000
3BC10000006DB2000000
0DC1000000854CB64100
0D89520000C10037AB00
0D168BD6057000000D00
0E0002C9C52000001D00
3B0001D039CD81006900
7DCCA2C1001A9D64E200
891011D104C5019CB400
590001C3BA200001B500
2B0003CCD779606C6000
1C0004E47D53CA900000
2C0003A5B00098000000
3B0002BA60003B000000
6A4310D1C30009600000
7C99B5C2AC0000B40000
580001DB7942893A0000
3A0003F604BB200D1000
3A0005A001F200078000
49000580005B0000B400
680004A0000A50001C30
A40001C00002C0000940
E10000D10000B2005B00
8B434AB000007969A100
049BA500000005630000
00000009A40000000000
0000004A2B5000000000
000000B201C000000000
00000590089000000000
00003C10780000000000
0001C204B00000000000
0001C11C100000000000
00004CC5000000000000
00000010000000000000
ENDCHAR
STARTCHAR rcommaaccent
ENCODING 343
SWIDTH 532 0
DWIDTH 19 0
BBX 19 37 1 -10
BITMAP
00000100000000000000
0004CD60000000000000
017D21AB400000000000
3DD500039CC700000000
3BC10000006DB2000000
0DC1000000854CB64100
0D89520000C10037AB00
0D168BD6057000000D00
0E0002C9C52000001D00
3B0001D039CD81006900
7DCCA2C1001A9D64E200
891011D104C5019CB400
590001C3BA200001B500
2B0003CCD779606C6000
1C0004E47D53CA900000
2C0003A5B00098000000
3B0002BA60003B000000
6A4310D1C30009600000
7C99B5C2AC0000B40000
580001DB7942893A0000
3A0003F604BB200D1000
3A0005A001F200078000
49000580005B0000B400
680004A0000A50001C30
A40001C00002C0000940
E10000D10000B2005B00
8B434AB000007969A100
049BA500000005630000
00000009A40000000000
0000004A2B5000000000
000000B201C000000000
00000590089000000000
00003C10780000000000
0001C204B00000000000
0001C11C100000000000
00004CC5000000000000
00000010000000000000
ENDCHAR
STARTCHAR Rcaron
ENCODING 344
SWIDTH 532 0
DWIDTH 19 0
BBX 19 37 1 -1
BITMAP
00000330000320000000
0000BA9A008ABA000000
0006700A11C007700000
0003B004776007800000
00007700BC003B000000
00000C104901C1000000
00000670095940000000
000000C003DB00000000
000000953CD400000000
000001299A8000000000
0004CD60000000000000
017D21AB400000000000
3DD500039CC700000000
3BC10000006DB2000000
0DC1000000854CB64100
0D89520000C10037AB00
0D168BD6057000000D00
0E0002C9C52000001D00
3B0001D039CD81006900
7DCCA2C1001A9D64E200
891011D104C5019CB400
590001C3BA200001B500
2B0003CCD779606C6000
1C0004E47D53CA900000
2C0003A5B00098000000
3B0002BA60003B000000
6A4310D1C30009600000
7C99B5C2AC0000B40000
580001DB7942893A0000
3A0003F604BB200D1000
3A0005A001F200078000
49000580005B0000B400
680004A0000A50001C30
A40001C00002C0000940
E10000D10000B2005B00
8B434AB000007969A100
049BA500000005630000
ENDCHAR
STARTCHAR rcaron
ENCODING 345
SWIDTH 532 0
DWIDTH 19 0
BBX 19 37 1 -1
BITMAP
00000330000320000000
0000BA9A008ABA000000
0006700A11C007700000
0003B004776007800000
00007700BC003B000000
00000C104901C1000000
00000670095940000000
000000C003DB00000000
000000953CD400000000
000001299A8000000000
0004CD60000000000000
017D21AB400000000000
3DD500039CC700000000
3BC10000006DB2000000
0DC1000000854CB64100
0D89520000C10037AB00
0D168BD6057000000D00
0E0002C9C52000001D00
3B0001D039CD81006900
7DCCA2C1001A9D64E200
891011D104C5019CB400
590001C3BA200001B500
2B0003CCD779606C6000
1C0004E47D53CA900000
2C0003A5B00098000000
3B0002BA60003B000000
6A4310D1C30009600000
7C99B5C2AC0000B40000
580001DB7942893A0000
3A0003F604BB200D1000
3A0005A001F200078000
49000580005B0000B400
680004A0000A50001C30
A40001C00002C0000940
E10000D10000B2005B00
8B434AB000007969A100
049BA500000005630000
ENDCHAR
STARTCHAR Sacute
ENCODING 346
SWIDTH 442 0
DWIDTH 16 0
BBX 16 36 0 -1
BITMAP
000000000AA40000
00000000592B5000
00000000C201C000
0000000680098000
0000003B00870000
000001C205A00000
000001C11C100000
0000004CD4000000
0000000000000000
0000000110027C30
005646AEECDB63D1
05B78731D0000085
0A9CDD20A2000068
0DA1076092000087
6A0002B04169A9D2
790000BDCC732330
0A70003C10000000
01C2000890000000
00590000A5000000
000D15B83A000000
0008BA100C200000
0004E10006900000
0000790000B40000
00000A60002C4000
000001D10013C000
000000862AB3C100
0000003DC3007700
0000000A60001D10
00000166E30005B1
1BBACCAC8C00006B
9523100D0B30002D
D000000C167000A7
D100000B03B34B90
A40013337CCCDA00
3D5ACA9A61000000
0294000000000000
ENDCHAR
STARTCHAR sacute
ENCODING 347
SWIDTH 442 0
DWIDTH 16 0
BBX 16 36 0 -1
BITMAP
000000000AA40000
00000000592B5000
00000000C201C000
0000000680098000
0000003B00870000
000001C205A00000
000001C11C100000
0000004CD4000000
0000000000000000
0000000110027C30
005646AEECDB63D1
05B78731D0000085
0A9CDD20A2000068
0DA1076092000087
6A0002B04169A9D2
790000BDCC732330
0A70003C10000000
01C2000890000000
00590000A5000000
000D15B83A000000
0008BA100C200000
0004E10006900000
0000790000B40000
00000A60002C4000
000001D10013C000
000000862AB3C100
0000003DC3007700
0000000A60001D10
00000166E30005B1
1BBACCAC8C00006B
9523100D0B30002D
D000000C167000A7
D100000B03B34B90
A40013337CCCDA00
3D5ACA9A61000000
0294000000000000
ENDCHAR
STARTCHAR Scircumflex
ENCODING 348
SWIDTH 442 0
DWIDTH 16 0
BBX 16 37 0 -1
BITMAP
000001DCDA100000
000006704F700000
00001C101DC10000
00009600A6580000
0005A007A00B3000
003C102CC102C200
006600B358006800
001C23A00C01B400
0003BC3006CC5000
0000000000000000
0000000110027C30
005646AEECDB63D1
05B78731D0000085
0A9CDD20A2000068
0DA1076092000087
6A0002B04169A9D2
790000BDCC732330
0A70003C10000000
01C2000890000000
00590000A5000000
000D15B83A000000
0008BA100C200000
0004E10006900000
0000790000B40000
00000A60002C4000
000001D10013C000
000000862AB3C100
0000003DC3007700
0000000A60001D10
00000166E30005B1
1BBACCAC8C00006B
9523100D0B30002D
D000000C167000A7
D100000B03B34B90
A40013337CCCDA00
3D5ACA9A61000000
0294000000000000
ENDCHAR
STARTCHAR scircumflex
ENCODING 349
SWIDTH 442 0
DWIDTH 16 0
BBX 16 37 0 -1
BITMAP
000001DCDA100000
000006704F700000
00001C101DC10000
00009600A6580000
0005A007A00B3000
003C102CC102C200
006600B358006800
001C23A00C01B400
0003BC3006CC5000
0000000000000000
0000000110027C30
005646AEECDB63D1
05B78731D0000085
0A9CDD20A2000068
0DA1076092000087
6A0002B04169A9D2
790000BDCC732330
0A70003C10000000
01C2000890000000
00590000A5000000
000D15B83A000000
0008BA100C200000
0004E10006900000
0000790000B40000
00000A60002C4000
000001D10013C000
000000862AB3C100
0000003DC3007700
0000000A60001D10
00000166E30005B1
1BBACCAC8C00006B
9523100D0B30002D
D000000C167000A7
D100000B03B34B90
A40013337CCCDA00
3D5ACA9A61000000
0294000000000000
ENDCHAR
STARTCHAR Scedilla
ENCODING 350
SWIDTH 442 0
DWIDTH 16 0
BBX 16 34 0 -8
BITMAP
0000000110027C30
005646AEECDB63D1
05B78731D0000085
0A9CDD20A2000068
0DA1076092000087
6A0002B04169A9D2
790000BDCC732330
0A70003C10000000
01C2000890000000
00590000A5000000
000D15B83A000000
0008BA100C200000
0004E10006900000
0000790000B40000
00000A60002C4000
000001D10013C000
000000862AB3C100
0000003DC3007700
0000000A60001D10
00000166E30005B1
1BBACCAC8C00006B
9523100D0B30002D
D000000C167000A7
D100000B03B34B90
A40013337CEDDA00
3D5ACA9C91660000
0294000750570000
0000000840480000
0000037D202A0000
0007C958B8B80000
000B100026C00000
00084018BA600000
0002C8B500000000
0000250000000000
ENDCHAR
STARTCHAR scedilla
ENCODING 351
SWIDTH 442 0
DWIDTH 16 0
BBX 16 34 0 -8
BITMAP
0000000110027C30
005646AEECDB63D1
05B78731D0000085
0A9CDD20A2000068
0DA1076092000087
6A0002B04169A9D2
790000BDCC732330
0A70003C10000000
01C2000890000000
00590000A5000000
000D15B83A000000
0008BA100C200000
0004E10006900000
0000790000B40000
00000A60002C4000
000001D10013C000
000000862AB3C100
0000003DC3007700
0000000A60001D10
00000166E30005B1
1BBACCAC8C00006B
9523100D0B30002D
D000000C167000A7
D100000B03B34B90
A40013337CEDDA00
3D5ACA9C91660000
0294000750570000
0000000840480000
0000037D202A0000
0007C958B8B80000
000B100026C00000
00084018BA600000
0002C8B500000000
0000250000000000
ENDCHAR
STARTCHAR Scaron
ENCODING 352
SWIDTH 442 0
DWIDTH 16 0
BBX 16 37 0 -1
BITMAP
0000330000320000
001B99A0099BA000
007600B11C008600
004B005685007700
0008600CB004A000
0001C105802C1000
00007600A4A40000
00001C004DA00000
00000A44CD300000
00000399A7000000
0000000110027C30
005646AEECDB63D1
05B78731D0000085
0A9CDD20A2000068
0DA1076092000087
6A0002B04169A9D2
790000BDCC732330
0A70003C10000000
01C2000890000000
00590000A5000000
000D15B83A000000
0008BA100C200000
0004E10006900000
0000790000B40000
00000A60002C4000
000001D10013C000
000000862AB3C100
0000003DC3007700
0000000A60001D10
00000166E30005B1
1BBACCAC8C00006B
9523100D0B30002D
D000000C167000A7
D100000B03B34B90
A40013337CCCDA00
3D5ACA9A61000000
0294000000000000
ENDCHAR
STARTCHAR scaron
ENCODING 353
SWIDTH 442 0
DWIDTH 16 0
BBX 16 37 0 -1
BITMAP
0000330000320000
001B99A0099BA000
007600B11C008600
004B005685007700
0008600CB004A000
0001C105802C1000
00007600A4A40000
00001C004DA00000
00000A44CD300000
00000399A7000000
0000000110027C30
005646AEECDB63D1
05B78731D0000085
0A9CDD20A2000068
0DA1076092000087
6A0002B04169A9D2
790000BDCC732330
0A70003C10000000
01C2000890000000
00590000A5000000
000D15B83A000000
0008BA100C200000
0004E10006900000
0000790000B40000
00000A60002C4000
000001D10013C000
000000862AB3C100
0000003DC3007700
0000000A60001D10
00000166E30005B1
1BBACCAC8C00006B
9523100D0B30002D
D000000C167000A7
D100000B03B34B90
A40013337CCCDA00
3D5ACA9A61000000
0294000000000000
ENDCHAR
STARTCHAR Tcommaaccent
ENCODING 354
SWIDTH 453 0
DWIDTH 16 0
BBX 18 36 -1 -10
BITMAP
005400003410000310
0899CCCCAFCCBCDAC0
1C0000000B30110095
4A0000000940000058
3A0000000930000067
1D10123203134420B3
05CCCACDCDCD99BDA0
00210076000A300000
000000940009400000
000000D55417600000
000002FA7785800000
000000E00008500000
000000B2000A300000
000000A4000C100000
000000A4000B200000
000000B2000A300000
000000E44306700000
000000F989A5900000
000000D10009500000
000000B2000C200000
000000B2000D000000
000000D1000C100000
000001D0000B200000
000005900007600000
000005B1001A700000
0000006DCCD7000000
000000002200000000
0000001B9200000000
000000864C20000000
000001C00490000000
000009501B60000000
00006900B500000000
0003C1087000000000
0004A03B0000000000
00007CD20000000000
000000100000000000
ENDCHAR
STARTCHAR tcommaaccent
ENCODING 355
SWIDTH 453 0
DWIDTH 16 0
BBX 18 36 -1 -10
BITMAP
005400003410000310
0899CCCCAFCCBCDAC0
1C0000000B30110095
4A0000000940000058
3A0000000930000067
1D10123203134420B3
05CCCACDCDCD99BDA0
00210076000A300000
000000940009400000
000000D55417600000
000002FA7785800000
000000E00008500000
000000B2000A300000
000000A4000C100000
000000A4000B200000
000000B2000A300000
000000E44306700000
000000F989A5900000
000000D10009500000
000000B2000C200000
000000B2000D000000
000000D1000C100000
000001D0000B200000
000005900007600000
000005B1001A700000
0000006DCCD7000000
000000002200000000
0000001B9200000000
000000864C20000000
000001C00490000000
000009501B60000000
00006900B500000000
0003C1087000000000
0004A03B0000000000
00007CD20000000000
000000100000000000
ENDCHAR
STARTCHAR Tcaron
ENCODING 356
SWIDTH 453 0
DWIDTH 16 0
BBX 18 37 -1 -1
BITMAP
000001420001310000
00004C8C401D9C5000
0000C102906701C100
00009500A2C101C200
00001C104D60095000
000005900A30680000
000000C101B2C00000
00000067009D400000
0000001C26DC000000
00000006A9A4000000
005400003410000310
0899CCCCAFCCBCDAC0
1C0000000B30110095
4A0000000940000058
3A0000000930000067
1D10123203134420B3
05CCCACDCDCD99BDA0
00210076000A300000
000000940009400000
000000D55417600000
000002FA7785800000
000000E00008500000
000000B2000A300000
000000A4000C100000
000000A4000B200000
000000B2000A300000
000000E44306700000
000000F989A5900000
000000D10009500000
000000B2000C200000
000000B2000D000000
000000D1000C100000
000001D0000B200000
000005900007600000
000005B1001A700000
0000006DCCD7000000
000000002200000000
ENDCHAR
STARTCHAR tcaron
ENCODING 357
SWIDTH 453 0
DWIDTH 16 0
BBX 18 37 -1 -1
BITMAP
000001420001310000
00004C8C401D9C5000
0000C102906701C100
00009500A2C101C200
00001C104D60095000
000005900A30680000
000000C101B2C00000
00000067009D400000
0000001C26DC000000
00000006A9A4000000
005400003410000310
0899CCCCAFCCBCDAC0
1C0000000B30110095
4A0000000940000058
3A0000000930000067
1D10123203134420B3
05CCCACDCDCD99BDA0
00210076000A300000
000000940009400000
000000D55417600000
000002FA7785800000
000000E00008500000
000000B2000A300000
000000A4000C100000
000000A4000B200000
000000B2000A300000
000000E44306700000
000000F989A5900000
000000D10009500000
000000B2000C200000
000000B2000D000000
000000D1000C100000
000001D0000B200000
000005900007600000
000005B1001A700000
0000006DCCD7000000
000000002200000000
ENDCHAR
ENDFONT
